<?xml version="1.0" encoding="UTF-8"?>
<svg id="Layer_1" xmlns="http://www.w3.org/2000/svg" version="1.1" viewBox="0 0 24 24">
  <!-- Generator: Adobe Illustrator 29.8.4, SVG Export Plug-In . SVG Version: 2.1.1 Build 6)  -->
  <defs>
    <style>
      .st0 {
        fill: none;
        stroke: #e9eef7;
        stroke-linecap: round;
        stroke-linejoin: round;
        stroke-width: 2px;
      }
    </style>
  </defs>
  <path class="st0" d="M9.4,21c.7.6,1.6,1,2.6,1s1.9-.4,2.6-1M18,8c0-1.6-.6-3.1-1.8-4.2-1.1-1.1-2.7-1.8-4.2-1.8s-3.1.6-4.2,1.8c-1.1,1.1-1.8,2.7-1.8,4.2,0,3.1-.8,5.2-1.7,6.6-.7,1.2-1.1,1.8-1.1,1.9,0,.2,0,.3.2.4.1,0,.7,0,1.9,0h13.2c1.2,0,1.8,0,1.9,0,.1-.1.2-.2.2-.4,0-.2-.4-.8-1.1-1.9-.9-1.4-1.7-3.5-1.7-6.6Z"/>
</svg>