<?xml version="1.0" encoding="UTF-8"?>
<svg id="Layer_1" xmlns="http://www.w3.org/2000/svg" version="1.1" xmlns:xlink="http://www.w3.org/1999/xlink" viewBox="0 0 102 428">
  <!-- Generator: Adobe Illustrator 29.8.3, SVG Export Plug-In . SVG Version: 2.1.1 Build 3)  -->
  <defs>
    <style>
      .st0 {
        fill: #fbb67d;
      }

      .st1 {
        fill: url(#linear-gradient2);
      }

      .st2 {
        fill: url(#radial-gradient53);
      }

      .st3 {
        fill: url(#radial-gradient20);
      }

      .st4 {
        stroke: #e68fff;
      }

      .st4, .st5, .st6, .st7, .st8, .st9, .st10, .st11 {
        fill: none;
      }

      .st12 {
        fill: #151927;
      }

      .st13 {
        fill: url(#radial-gradient30);
      }

      .st14 {
        fill: url(#radial-gradient28);
      }

      .st15 {
        fill: url(#linear-gradient10);
      }

      .st16 {
        fill: url(#radial-gradient45);
      }

      .st17 {
        fill: #e68fff;
      }

      .st18 {
        fill: #ffca28;
      }

      .st19 {
        fill: #dc0d27;
      }

      .st20 {
        fill: #ff9500;
      }

      .st21 {
        fill: url(#radial-gradient58);
      }

      .st5 {
        stroke: #1f2633;
      }

      .st22 {
        fill: url(#radial-gradient57);
      }

      .st23 {
        fill: #0c0e12;
      }

      .st24 {
        fill: url(#radial-gradient39);
      }

      .st25 {
        fill: url(#radial-gradient48);
      }

      .st6 {
        stroke: #ffd166;
      }

      .st26 {
        fill: url(#radial-gradient59);
      }

      .st27 {
        fill: url(#radial-gradient55);
      }

      .st28 {
        fill: url(#radial-gradient10);
      }

      .st29 {
        fill: url(#radial-gradient41);
      }

      .st30 {
        fill: url(#radial-gradient54);
      }

      .st31 {
        fill: url(#linear-gradient1);
      }

      .st32 {
        fill: url(#radial-gradient24);
      }

      .st33 {
        fill: url(#linear-gradient9);
      }

      .st34 {
        fill: url(#radial-gradient11);
      }

      .st35 {
        fill: url(#radial-gradient49);
      }

      .st36 {
        fill: url(#linear-gradient8);
      }

      .st37 {
        fill: url(#radial-gradient46);
      }

      .st38 {
        fill: url(#linear-gradient11);
      }

      .st7 {
        stroke: #ff9500;
      }

      .st39 {
        fill: #11141c;
      }

      .st40 {
        fill: url(#radial-gradient34);
      }

      .st41 {
        fill: url(#radial-gradient);
      }

      .st42 {
        fill: url(#radial-gradient21);
      }

      .st43 {
        fill: url(#radial-gradient52);
      }

      .st44 {
        fill: #af0c1a;
      }

      .st45 {
        fill: url(#radial-gradient19);
      }

      .st46 {
        fill: url(#radial-gradient22);
      }

      .st47 {
        fill: url(#radial-gradient5);
      }

      .st48 {
        fill: url(#radial-gradient1);
      }

      .st49 {
        fill: url(#radial-gradient42);
      }

      .st50 {
        fill: url(#radial-gradient33);
      }

      .st51 {
        fill: url(#radial-gradient47);
      }

      .st52 {
        fill: url(#radial-gradient38);
      }

      .st53 {
        fill: url(#radial-gradient31);
      }

      .st54 {
        fill: url(#radial-gradient35);
      }

      .st8 {
        stroke: #8ea0bd;
      }

      .st55 {
        fill: url(#radial-gradient26);
      }

      .st56 {
        fill: #8a1e0d;
      }

      .st57 {
        fill: #c30b1b;
      }

      .st58 {
        fill: #5ce1e6;
      }

      .st59 {
        fill: url(#radial-gradient7);
      }

      .st60 {
        fill: url(#radial-gradient37);
      }

      .st61 {
        fill: url(#radial-gradient18);
      }

      .st62 {
        fill: url(#radial-gradient14);
      }

      .st63 {
        fill: url(#linear-gradient7);
      }

      .st64 {
        fill: url(#radial-gradient13);
      }

      .st65 {
        fill: url(#linear-gradient4);
      }

      .st66 {
        fill: #e9eef7;
      }

      .st67 {
        fill: url(#radial-gradient56);
      }

      .st68 {
        fill: url(#radial-gradient32);
      }

      .st69 {
        fill: url(#radial-gradient27);
      }

      .st70 {
        fill: url(#linear-gradient5);
      }

      .st9 {
        stroke: #8a38f5;
        stroke-dasharray: 10 5;
      }

      .st71 {
        fill: url(#radial-gradient8);
      }

      .st72 {
        fill: url(#linear-gradient3);
      }

      .st73 {
        fill: url(#radial-gradient12);
      }

      .st74 {
        fill: url(#radial-gradient43);
      }

      .st10 {
        stroke: #5ce1e6;
      }

      .st75 {
        fill: url(#radial-gradient25);
      }

      .st76 {
        fill: url(#radial-gradient23);
      }

      .st77 {
        fill: url(#radial-gradient17);
      }

      .st78 {
        fill: url(#radial-gradient6);
      }

      .st79 {
        fill: url(#radial-gradient2);
      }

      .st80 {
        fill: url(#radial-gradient40);
      }

      .st81 {
        fill: url(#radial-gradient50);
      }

      .st82 {
        fill: url(#radial-gradient15);
      }

      .st83 {
        fill: url(#radial-gradient60);
      }

      .st84 {
        fill: url(#linear-gradient6);
      }

      .st85 {
        fill: url(#radial-gradient44);
      }

      .st86 {
        fill: #ff7b7b;
      }

      .st87 {
        fill: url(#radial-gradient4);
      }

      .st88 {
        fill: url(#radial-gradient3);
      }

      .st89 {
        fill: url(#radial-gradient29);
      }

      .st90 {
        fill: url(#radial-gradient9);
      }

      .st91 {
        fill: url(#radial-gradient51);
      }

      .st92 {
        fill: url(#linear-gradient);
      }

      .st93 {
        fill: #8ea0bd;
      }

      .st94 {
        fill: #b55e19;
      }

      .st95 {
        fill: url(#radial-gradient36);
      }

      .st96 {
        fill: #faa700;
      }

      .st97 {
        fill: #ffd166;
      }

      .st98 {
        fill: url(#radial-gradient16);
      }

      .st11 {
        stroke: #ff7b7b;
      }
    </style>
    <linearGradient id="linear-gradient" x1="73.2" y1="202.4" x2="42.9" y2="194.6" gradientTransform="translate(0 430) scale(1 -1)" gradientUnits="userSpaceOnUse">
      <stop offset="0" stop-color="#ff0"/>
      <stop offset="1" stop-color="#ff0004"/>
    </linearGradient>
    <linearGradient id="linear-gradient1" x1="84.6" y1="165.3" x2="32" y2="161.7" gradientTransform="translate(0 430) scale(1 -1)" gradientUnits="userSpaceOnUse">
      <stop offset="0" stop-color="#ffea00"/>
      <stop offset="1" stop-color="#ff0004"/>
    </linearGradient>
    <radialGradient id="radial-gradient" cx="36.4" cy="1079.5" fx="36.4" fy="1079.5" r="5.2" gradientTransform="translate(0 -670)" gradientUnits="userSpaceOnUse">
      <stop offset=".3" stop-color="#e03623"/>
      <stop offset=".7" stop-color="#ff6614"/>
    </radialGradient>
    <radialGradient id="radial-gradient1" cx="36.4" cy="1079.5" fx="36.4" fy="1079.5" r="5.2" xlink:href="#radial-gradient"/>
    <radialGradient id="radial-gradient2" cx="36.4" cy="1079.5" fx="36.4" fy="1079.5" r="5.2" xlink:href="#radial-gradient"/>
    <radialGradient id="radial-gradient3" cx="36.4" cy="1079.5" fx="36.4" fy="1079.5" r="5.2" xlink:href="#radial-gradient"/>
    <radialGradient id="radial-gradient4" cx="36.4" cy="1079.5" fx="36.4" fy="1079.5" r="5.2" xlink:href="#radial-gradient"/>
    <radialGradient id="radial-gradient5" cx="34.6" cy="1080.1" fx="34.6" fy="1080.1" r="11.3" gradientTransform="translate(0 -670)" gradientUnits="userSpaceOnUse">
      <stop offset="0" stop-color="#fe7f07"/>
      <stop offset=".8" stop-color="#dc2b25"/>
    </radialGradient>
    <radialGradient id="radial-gradient6" cx="34.6" cy="1080.1" fx="34.6" fy="1080.1" r="11.3" xlink:href="#radial-gradient5"/>
    <radialGradient id="radial-gradient7" cx="34.6" cy="1080.1" fx="34.6" fy="1080.1" r="11.3" xlink:href="#radial-gradient5"/>
    <radialGradient id="radial-gradient8" cx="34.6" cy="1080.1" fx="34.6" fy="1080.1" r="11.3" xlink:href="#radial-gradient5"/>
    <radialGradient id="radial-gradient9" cx="34.6" cy="1080.1" fx="34.6" fy="1080.1" r="11.3" xlink:href="#radial-gradient5"/>
    <radialGradient id="radial-gradient10" cx="9.7" cy="926.3" fx="9.7" fy="926.3" r="7.2" gradientTransform="translate(-3.2 -720.2) rotate(-1.5) scale(1 1.2)" gradientUnits="userSpaceOnUse">
      <stop offset=".2" stop-color="#fe7f07"/>
      <stop offset=".4" stop-color="#f8700c"/>
      <stop offset=".7" stop-color="#e8491a"/>
      <stop offset=".9" stop-color="#dc2b25"/>
    </radialGradient>
    <radialGradient id="radial-gradient11" cx="9.7" cy="926.3" fx="9.7" fy="926.3" r="7.2" xlink:href="#radial-gradient10"/>
    <radialGradient id="radial-gradient12" cx="9.7" cy="926.3" fx="9.7" fy="926.3" r="7.2" xlink:href="#radial-gradient10"/>
    <radialGradient id="radial-gradient13" cx="9.7" cy="926.3" fx="9.7" fy="926.3" r="7.2" xlink:href="#radial-gradient10"/>
    <radialGradient id="radial-gradient14" cx="9.7" cy="926.3" fx="9.7" fy="926.3" r="7.2" xlink:href="#radial-gradient10"/>
    <radialGradient id="radial-gradient15" cx="9.7" cy="926.3" fx="9.7" fy="926.3" r="7.2" xlink:href="#radial-gradient10"/>
    <radialGradient id="radial-gradient16" cx="36.4" cy="1079.5" fx="36.4" fy="1079.5" r="5.2" xlink:href="#radial-gradient"/>
    <radialGradient id="radial-gradient17" cx="9.7" cy="926.3" fx="9.7" fy="926.3" r="7.2" xlink:href="#radial-gradient10"/>
    <radialGradient id="radial-gradient18" cx="9.7" cy="926.3" fx="9.7" fy="926.3" r="7.2" xlink:href="#radial-gradient10"/>
    <radialGradient id="radial-gradient19" cx="34.6" cy="1080.1" fx="34.6" fy="1080.1" r="11.3" xlink:href="#radial-gradient5"/>
    <radialGradient id="radial-gradient20" cx="9.7" cy="926.3" fx="9.7" fy="926.3" r="7.2" xlink:href="#radial-gradient10"/>
    <radialGradient id="radial-gradient21" cx="9.7" cy="926.3" fx="9.7" fy="926.3" r="7.2" xlink:href="#radial-gradient10"/>
    <radialGradient id="radial-gradient22" cx="-245.9" cy="-547.8" fx="-245.9" fy="-547.8" r="4.7" gradientTransform="translate(-1039.1 608.2) rotate(92.5) scale(1 1.9)" gradientUnits="userSpaceOnUse">
      <stop offset=".5" stop-color="#ffd84e"/>
      <stop offset=".7" stop-color="#ffd64b"/>
      <stop offset=".8" stop-color="#ffce42"/>
      <stop offset=".9" stop-color="#ffc132"/>
      <stop offset=".9" stop-color="#feaf1c"/>
      <stop offset="1" stop-color="#fea611"/>
    </radialGradient>
    <radialGradient id="radial-gradient23" cx="-245.9" cy="-547.8" fx="-245.9" fy="-547.8" r="4.7" xlink:href="#radial-gradient22"/>
    <radialGradient id="radial-gradient24" cx="-245.9" cy="-547.8" fx="-245.9" fy="-547.8" r="4.7" xlink:href="#radial-gradient22"/>
    <radialGradient id="radial-gradient25" cx="-245.9" cy="-547.8" fx="-245.9" fy="-547.8" r="4.7" xlink:href="#radial-gradient22"/>
    <radialGradient id="radial-gradient26" cx="-245.9" cy="-547.8" fx="-245.9" fy="-547.8" r="4.7" xlink:href="#radial-gradient22"/>
    <radialGradient id="radial-gradient27" cx="36.4" cy="1079.5" fx="36.4" fy="1079.5" r="5.2" xlink:href="#radial-gradient"/>
    <radialGradient id="radial-gradient28" cx="-245.9" cy="-547.8" fx="-245.9" fy="-547.8" r="4.7" xlink:href="#radial-gradient22"/>
    <radialGradient id="radial-gradient29" cx="36.4" cy="1079.5" fx="36.4" fy="1079.5" r="5.2" xlink:href="#radial-gradient"/>
    <radialGradient id="radial-gradient30" cx="-245.9" cy="-547.8" fx="-245.9" fy="-547.8" r="4.7" xlink:href="#radial-gradient22"/>
    <radialGradient id="radial-gradient31" cy="1079.5" fy="1079.5" r="5.2" xlink:href="#radial-gradient"/>
    <radialGradient id="radial-gradient32" cx="9.7" cy="926.3" fx="9.7" fy="926.3" r="7.2" xlink:href="#radial-gradient10"/>
    <radialGradient id="radial-gradient33" cy="-547.8" fy="-547.8" r="4.7" xlink:href="#radial-gradient22"/>
    <radialGradient id="radial-gradient34" cy="1079.5" fy="1079.5" r="5.2" xlink:href="#radial-gradient"/>
    <linearGradient id="linear-gradient2" x1="37.5" y1="1082.9" x2="38" y2="1081.9" gradientTransform="translate(0 -670)" gradientUnits="userSpaceOnUse">
      <stop offset="0" stop-color="#fea611"/>
      <stop offset=".1" stop-color="#feae1b"/>
      <stop offset=".5" stop-color="#ffc537"/>
      <stop offset=".8" stop-color="#ffd348"/>
      <stop offset="1" stop-color="#ffd84e"/>
    </linearGradient>
    <linearGradient id="linear-gradient3" x1="40" y1="1082.4" x2="41.1" y2="1080.7" gradientTransform="translate(0 -670)" gradientUnits="userSpaceOnUse">
      <stop offset="0" stop-color="#fea611"/>
      <stop offset="1" stop-color="#ffd84e"/>
    </linearGradient>
    <radialGradient id="radial-gradient35" cx="-245.9" cy="-547.8" fx="-245.9" fy="-547.8" r="4.7" xlink:href="#radial-gradient22"/>
    <linearGradient id="linear-gradient4" x1="36.1" y1="1084" x2="35" y2="1081.6" gradientTransform="translate(0 -670)" gradientUnits="userSpaceOnUse">
      <stop offset="0" stop-color="#feca4c"/>
      <stop offset=".2" stop-color="#fed55f"/>
      <stop offset=".4" stop-color="#ffdf71"/>
      <stop offset=".6" stop-color="#ffe57c"/>
      <stop offset=".8" stop-color="#ffe780"/>
    </linearGradient>
    <radialGradient id="radial-gradient36" cx="-245.9" cy="-547.8" fx="-245.9" fy="-547.8" r="4.7" xlink:href="#radial-gradient22"/>
    <linearGradient id="linear-gradient5" x1="35.1" y1="1084.5" x2="33.9" y2="1082.1" xlink:href="#linear-gradient4"/>
    <radialGradient id="radial-gradient37" cx="36.4" cy="1079.5" fx="36.4" fy="1079.5" r="5.2" xlink:href="#radial-gradient"/>
    <radialGradient id="radial-gradient38" cx="-245.9" cy="-547.8" fx="-245.9" fy="-547.8" r="4.7" xlink:href="#radial-gradient22"/>
    <linearGradient id="linear-gradient6" x1="36.2" y1="1083.9" x2="35.1" y2="1081.6" xlink:href="#linear-gradient4"/>
    <radialGradient id="radial-gradient39" cx="36.4" cy="1079.5" fx="36.4" fy="1079.5" r="5.2" xlink:href="#radial-gradient"/>
    <radialGradient id="radial-gradient40" cy="-547.8" fy="-547.8" r="4.7" xlink:href="#radial-gradient22"/>
    <linearGradient id="linear-gradient7" x1="35.2" y1="1084.4" x2="34" y2="1082.1" xlink:href="#linear-gradient4"/>
    <linearGradient id="linear-gradient8" x1="37" y1="1084.2" x2="38.6" y2="1082.4" gradientTransform="translate(0 -670)" gradientUnits="userSpaceOnUse">
      <stop offset=".2" stop-color="#feca4c"/>
      <stop offset=".3" stop-color="#fed55f"/>
      <stop offset=".5" stop-color="#ffdf72"/>
      <stop offset=".6" stop-color="#ffe57c"/>
      <stop offset=".8" stop-color="#ffe780"/>
    </linearGradient>
    <radialGradient id="radial-gradient41" cx="-245.9" cy="-547.8" fx="-245.9" fy="-547.8" r="4.7" xlink:href="#radial-gradient22"/>
    <linearGradient id="linear-gradient9" x1="37" y1="1084.2" x2="38.6" y2="1082.5" xlink:href="#linear-gradient8"/>
    <radialGradient id="radial-gradient42" cx="-245.9" cy="-547.8" fx="-245.9" fy="-547.8" r="4.7" xlink:href="#radial-gradient22"/>
    <radialGradient id="radial-gradient43" cx="-245.9" cy="-547.8" fx="-245.9" fy="-547.8" r="4.7" xlink:href="#radial-gradient22"/>
    <linearGradient id="linear-gradient10" x1="37.1" y1="1084.3" x2="38.7" y2="1082.6" xlink:href="#linear-gradient8"/>
    <radialGradient id="radial-gradient44" cx="36.4" cy="1079.5" fx="36.4" fy="1079.5" r="5.2" xlink:href="#radial-gradient"/>
    <radialGradient id="radial-gradient45" cx="-245.9" cy="-547.8" fx="-245.9" fy="-547.8" r="4.7" xlink:href="#radial-gradient22"/>
    <linearGradient id="linear-gradient11" x1="37.1" y1="1084.3" x2="38.7" y2="1082.5" xlink:href="#linear-gradient8"/>
    <radialGradient id="radial-gradient46" cx="35" cy="1075.7" fx="35" fy="1075.7" r="3.3" gradientTransform="translate(0 -670)" gradientUnits="userSpaceOnUse">
      <stop offset=".2" stop-color="#ffb800"/>
      <stop offset="1" stop-color="#ff9a02"/>
    </radialGradient>
    <radialGradient id="radial-gradient47" cx="34.6" cy="1080.1" fx="34.6" fy="1080.1" r="11.3" xlink:href="#radial-gradient5"/>
    <radialGradient id="radial-gradient48" cx="35" cy="1075.7" fx="35" fy="1075.7" r="3.3" xlink:href="#radial-gradient46"/>
    <radialGradient id="radial-gradient49" cx="34.6" cy="1080.1" fx="34.6" fy="1080.1" r="11.3" xlink:href="#radial-gradient5"/>
    <radialGradient id="radial-gradient50" cy="1075.7" fy="1075.7" r="3.3" xlink:href="#radial-gradient46"/>
    <radialGradient id="radial-gradient51" cx="9.7" cy="926.3" fx="9.7" fy="926.3" r="7.2" xlink:href="#radial-gradient10"/>
    <radialGradient id="radial-gradient52" cx="35" cy="1075.7" fx="35" fy="1075.7" r="3.3" xlink:href="#radial-gradient46"/>
    <radialGradient id="radial-gradient53" cx="9.7" cy="926.3" fx="9.7" fy="926.3" r="7.2" xlink:href="#radial-gradient10"/>
    <radialGradient id="radial-gradient54" cy="1075.7" fy="1075.7" r="3.3" xlink:href="#radial-gradient46"/>
    <radialGradient id="radial-gradient55" cx="34.6" cy="1080.1" fx="34.6" fy="1080.1" r="11.3" xlink:href="#radial-gradient5"/>
    <radialGradient id="radial-gradient56" cx="9.7" cy="926.3" fx="9.7" fy="926.3" r="7.2" xlink:href="#radial-gradient10"/>
    <radialGradient id="radial-gradient57" cx="35" cy="1075.7" fx="35" fy="1075.7" r="3.3" xlink:href="#radial-gradient46"/>
    <radialGradient id="radial-gradient58" cx="34.6" cy="1080.1" fx="34.6" fy="1080.1" r="11.3" xlink:href="#radial-gradient5"/>
    <radialGradient id="radial-gradient59" cx="9.7" cy="926.3" fx="9.7" fy="926.3" r="7.2" xlink:href="#radial-gradient10"/>
    <radialGradient id="radial-gradient60" cx="35" cy="1075.7" fx="35" fy="1075.7" r="3.3" xlink:href="#radial-gradient46"/>
  </defs>
  <rect class="st9" x=".5" y=".5" width="101" height="427" rx="4.5" ry="4.5"/>
  <path class="st12" d="M16,8.5h70c4.1,0,7.5,3.4,7.5,7.5v11c0,4.1-3.4,7.5-7.5,7.5H16c-4.1,0-7.5-3.4-7.5-7.5v-11c0-4.1,3.4-7.5,7.5-7.5Z"/>
  <path class="st5" d="M16,8.5h70c4.1,0,7.5,3.4,7.5,7.5v11c0,4.1-3.4,7.5-7.5,7.5H16c-4.1,0-7.5-3.4-7.5-7.5v-11c0-4.1,3.4-7.5,7.5-7.5Z"/>
  <path class="st93" d="M17.4,26v-8.7h5.3v.9h-4.2v2.9h3.9v.9h-3.9v3h4.3v.9h-5.3ZM26.9,26.1c-.5,0-1-.1-1.4-.4-.4-.3-.7-.7-1-1.2-.2-.5-.4-1.1-.4-1.8s.1-1.3.4-1.8c.2-.5.6-.9,1-1.2.4-.3.9-.4,1.5-.4s.8,0,1,.2c.2.1.4.3.6.5.1.2.2.3.3.4h0v-3.2h1v8.7h-1v-1h-.1c0,.1-.2.3-.3.5-.1.2-.3.3-.6.5-.3.1-.6.2-1,.2ZM27.1,25.2c.4,0,.7-.1,1-.3.3-.2.5-.5.6-.9.1-.4.2-.8.2-1.3s0-.9-.2-1.3c-.1-.4-.4-.7-.6-.9-.3-.2-.6-.3-1-.3s-.8.1-1.1.3c-.3.2-.5.5-.6.9-.1.4-.2.8-.2,1.2s0,.9.2,1.3c.1.4.4.7.6.9.3.2.6.3,1.1.3ZM34.7,26.1c-.6,0-1.2-.1-1.6-.4-.5-.3-.8-.7-1.1-1.2-.2-.5-.4-1.1-.4-1.8s.1-1.3.4-1.8c.2-.5.6-.9,1-1.2.4-.3,1-.4,1.6-.4s.7,0,1,.2c.3.1.6.3.9.6.3.3.5.6.7,1,.2.4.2.9.2,1.5v.4h-5v-.9h4c0-.4,0-.7-.2-1-.1-.3-.4-.5-.6-.7-.3-.2-.6-.3-.9-.3s-.7,0-1,.3c-.3.2-.5.5-.7.8-.2.3-.2.7-.2,1v.6c0,.5,0,.9.3,1.3.2.3.4.6.7.8.3.2.7.3,1.1.3s.5,0,.7-.1c.2,0,.4-.2.6-.3.2-.2.3-.3.4-.6l1,.3c-.1.3-.3.6-.5.9-.2.2-.5.4-.9.6-.4.1-.8.2-1.2.2ZM39.9,17.3v8.7h-1v-8.7h1ZM41.7,26v-6.5h1v1h0c.1-.3.3-.6.6-.8s.7-.3,1.1-.3.2,0,.3,0c.1,0,.2,0,.3,0v1s-.1,0-.2,0c-.1,0-.2,0-.4,0-.3,0-.6,0-.9.2-.2.1-.4.3-.6.5-.1.2-.2.5-.2.8v4.1h-1ZM46.2,26v-6.5h1v6.5h-1ZM46.7,18.4c-.2,0-.4,0-.5-.2-.1-.1-.2-.3-.2-.5s0-.3.2-.5c.1-.1.3-.2.5-.2s.4,0,.5.2c.1.1.2.3.2.5s0,.3-.2.5c-.1.1-.3.2-.5.2ZM51.5,26.1c-.5,0-1-.1-1.4-.4-.4-.3-.7-.7-1-1.2-.2-.5-.4-1.1-.4-1.8s.1-1.3.4-1.8c.2-.5.6-.9,1-1.2.4-.3.9-.4,1.5-.4s.8,0,1,.2c.2.1.4.3.6.5.1.2.2.3.3.4h0v-3.2h1v8.7h-1v-1h-.1c0,.1-.2.3-.3.5-.1.2-.3.3-.6.5-.3.1-.6.2-1,.2ZM51.7,25.2c.4,0,.7-.1,1-.3.3-.2.5-.5.6-.9.1-.4.2-.8.2-1.3s0-.9-.2-1.3c-.1-.4-.4-.7-.6-.9-.3-.2-.6-.3-1-.3s-.8.1-1.1.3c-.3.2-.5.5-.6.9-.1.4-.2.8-.2,1.2s0,.9.2,1.3c.1.4.4.7.6.9.3.2.6.3,1.1.3ZM67.4,21.6c0,.9-.2,1.7-.5,2.4-.3.7-.8,1.2-1.4,1.6-.6.4-1.2.5-2,.5s-1.4-.2-2-.5c-.6-.4-1-.9-1.4-1.6-.3-.7-.5-1.5-.5-2.4s.2-1.7.5-2.4c.3-.7.8-1.2,1.4-1.6.6-.4,1.2-.5,2-.5s1.4.2,2,.5c.6.4,1,.9,1.4,1.6.3.7.5,1.5.5,2.4ZM66.4,21.6c0-.8-.1-1.4-.4-1.9-.2-.5-.6-.9-1-1.2-.4-.3-.9-.4-1.4-.4s-1,.1-1.4.4c-.4.3-.8.7-1,1.2-.2.5-.4,1.2-.4,1.9s.1,1.4.4,1.9c.3.5.6.9,1,1.2.4.3.9.4,1.4.4s1-.1,1.4-.4c.4-.3.8-.7,1-1.2.3-.5.4-1.2.4-1.9ZM70,22.1v3.9h-1v-8.7h1v3.2h0c.2-.3.4-.6.7-.8.3-.2.7-.3,1.2-.3s.8,0,1.2.3c.3.2.6.4.8.8.2.4.3.8.3,1.4v4.2h-1v-4.1c0-.5-.1-.9-.4-1.2-.3-.3-.6-.4-1.1-.4s-.6,0-.9.2c-.3.1-.5.3-.6.6-.1.3-.2.6-.2,1ZM76.1,26v-6.5h1v1h0c.1-.3.4-.6.7-.8.3-.2.7-.3,1.1-.3s.8,0,1.1.3c.3.2.5.5.7.8h0c.2-.3.4-.6.8-.8.3-.2.7-.3,1.2-.3s1.1.2,1.4.5c.4.4.6.9.6,1.7v4.4h-1v-4.4c0-.5-.1-.8-.4-1-.3-.2-.6-.3-.9-.3s-.8.1-1.1.4c-.3.3-.4.6-.4,1v4.3h-1v-4.5c0-.4-.1-.7-.4-.9-.2-.2-.6-.3-.9-.3s-.5,0-.7.2c-.2.1-.4.3-.5.6-.1.2-.2.5-.2.8v4.1h-1Z"/>
  <path class="st39" d="M17.5,43.5h67c4.1,0,7.5,3.4,7.5,7.5v11c0,4.1-3.4,7.5-7.5,7.5H17.5c-4.1,0-7.5-3.4-7.5-7.5v-11c0-4.1,3.4-7.5,7.5-7.5Z"/>
  <path class="st8" d="M17.5,43.5h67c4.1,0,7.5,3.4,7.5,7.5v11c0,4.1-3.4,7.5-7.5,7.5H17.5c-4.1,0-7.5-3.4-7.5-7.5v-11c0-4.1,3.4-7.5,7.5-7.5Z"/>
  <path class="st66" d="M25,55c0-.3-.2-.5-.4-.8-.2-.2-.3-.4-.5-.6-.2-.2-.4-.3-.7-.4-.3,0-.6-.1-.9-.1-.5,0-1,.1-1.4.4-.4.3-.8.7-1,1.2s-.4,1.2-.4,1.9.1,1.4.4,1.9c.3.5.6.9,1,1.2.4.3.9.4,1.5.4s.9-.1,1.3-.3c.4-.2.7-.5.9-.9.2-.4.3-.9.3-1.4h.3c0,0-2.6,0-2.6,0v-.9h3.3v.9c0,.7-.2,1.3-.5,1.9-.3.5-.7.9-1.3,1.2-.5.3-1.1.4-1.8.4s-1.5-.2-2-.5c-.6-.4-1-.9-1.4-1.6-.3-.7-.5-1.5-.5-2.4s0-1.3.3-1.9c.2-.6.5-1,.8-1.4.3-.4.7-.7,1.2-.9.5-.2,1-.3,1.5-.3s.9,0,1.3.2c.4.1.8.3,1.1.6.3.2.6.5.8.9.2.3.4.7.4,1.2h-1.1ZM30.6,61.1c-.6,0-1.2-.1-1.6-.4-.5-.3-.8-.7-1.1-1.2-.2-.5-.4-1.1-.4-1.8s.1-1.3.4-1.8c.2-.5.6-.9,1-1.2.4-.3,1-.4,1.6-.4s.7,0,1,.2c.3.1.6.3.9.6.3.3.5.6.7,1s.2.9.2,1.5v.4h-5v-.9h4c0-.4,0-.7-.2-1-.1-.3-.4-.5-.6-.7-.3-.2-.6-.3-.9-.3s-.7,0-1,.3c-.3.2-.5.5-.7.8-.2.3-.2.7-.2,1v.6c0,.5,0,.9.3,1.3.2.3.4.6.7.8.3.2.7.3,1.1.3s.5,0,.7-.1c.2,0,.4-.2.6-.3.2-.2.3-.3.4-.6l1,.3c-.1.3-.3.6-.5.9-.2.2-.5.4-.9.6-.4.1-.8.2-1.2.2ZM37.7,54.5v.9h-3.4v-.9h3.4ZM35.3,52.9h1v6.2c0,.3,0,.5.1.6,0,.1.2.2.3.3.1,0,.3,0,.4,0s.2,0,.3,0c0,0,.1,0,.2,0l.2.9c0,0-.2,0-.3,0-.1,0-.3,0-.5,0-.3,0-.6,0-.8-.2-.3-.1-.5-.3-.7-.6-.2-.2-.3-.6-.3-.9v-6.5ZM47.5,54.5c0-.4-.3-.8-.6-1-.4-.2-.8-.4-1.3-.4s-.7,0-1,.2c-.3.1-.5.3-.7.5-.2.2-.2.5-.2.7s0,.4.2.6c.1.2.3.3.4.4.2.1.4.2.6.3.2,0,.4.1.5.2l.9.2c.2,0,.5.1.8.2.3.1.5.2.8.4.3.2.5.4.6.7.2.3.3.6.3,1s-.1.9-.4,1.3c-.2.4-.6.7-1.1.9-.5.2-1,.3-1.7.3s-1.2-.1-1.6-.3c-.5-.2-.8-.5-1.1-.8-.3-.4-.4-.8-.4-1.3h1.1c0,.3.1.6.3.8.2.2.4.4.7.5.3.1.6.2,1,.2s.8,0,1.1-.2c.3-.1.6-.3.8-.6.2-.2.3-.5.3-.8s0-.5-.2-.7c-.2-.2-.4-.3-.6-.4-.3-.1-.5-.2-.9-.3l-1.1-.3c-.7-.2-1.2-.5-1.6-.8-.4-.4-.6-.8-.6-1.4s.1-.9.4-1.3c.3-.4.6-.7,1.1-.9.5-.2,1-.3,1.5-.3s1.1.1,1.5.3c.4.2.8.5,1,.8.3.3.4.7.4,1.2h-1ZM53.1,54.5v.9h-3.4v-.9h3.4ZM50.6,52.9h1v6.2c0,.3,0,.5.1.6,0,.1.2.2.3.3.1,0,.3,0,.4,0s.2,0,.3,0c0,0,.1,0,.2,0l.2.9c0,0-.2,0-.3,0-.1,0-.3,0-.5,0-.3,0-.6,0-.8-.2-.3-.1-.5-.3-.7-.6-.2-.2-.3-.6-.3-.9v-6.5ZM56.5,61.2c-.4,0-.8,0-1.1-.2-.3-.2-.6-.4-.8-.7-.2-.3-.3-.7-.3-1.1s0-.7.2-.9c.1-.2.3-.4.6-.6.2-.1.5-.2.8-.3.3,0,.6-.1.9-.2.4,0,.7,0,1-.1.2,0,.4,0,.5-.1.1,0,.2-.2.2-.3h0c0-.5-.1-.8-.3-1-.2-.2-.6-.3-1-.3s-.9.1-1.1.3c-.3.2-.5.4-.6.7l-1-.3c.2-.4.4-.7.7-.9.3-.2.6-.4.9-.5.3,0,.7-.1,1-.1s.5,0,.7,0c.3,0,.5.1.8.3.3.2.5.4.6.7.2.3.3.7.3,1.2v4.3h-1v-.9h0c0,.1-.2.3-.3.5-.2.2-.4.3-.6.4-.3.1-.6.2-1,.2ZM56.6,60.2c.4,0,.7,0,1-.2.3-.2.5-.4.6-.6.1-.2.2-.5.2-.8v-.9c0,0-.1,0-.3.1-.1,0-.3,0-.5.1-.2,0-.4,0-.5,0-.2,0-.3,0-.4,0-.3,0-.5,0-.7.2-.2,0-.4.2-.5.3-.1.1-.2.3-.2.6s.1.6.4.8c.3.2.6.3,1,.3ZM61.3,61v-6.5h1v1h0c.1-.3.3-.6.6-.8.3-.2.7-.3,1.1-.3s.2,0,.3,0c.1,0,.2,0,.3,0v1s-.1,0-.2,0c-.1,0-.2,0-.4,0-.3,0-.6,0-.9.2-.2.1-.4.3-.6.5-.1.2-.2.5-.2.8v4.1h-1ZM69,54.5v.9h-3.4v-.9h3.4ZM66.6,52.9h1v6.2c0,.3,0,.5.1.6,0,.1.2.2.3.3.1,0,.3,0,.4,0s.2,0,.3,0c0,0,.1,0,.2,0l.2.9c0,0-.2,0-.3,0-.1,0-.3,0-.5,0-.3,0-.6,0-.8-.2-.3-.1-.5-.3-.7-.6-.2-.2-.3-.6-.3-.9v-6.5ZM73.2,61.1c-.6,0-1.2-.1-1.6-.4-.5-.3-.8-.7-1.1-1.2-.2-.5-.4-1.1-.4-1.8s.1-1.3.4-1.8c.2-.5.6-.9,1-1.2.4-.3,1-.4,1.6-.4s.7,0,1,.2c.3.1.6.3.9.6.3.3.5.6.7,1,.2.4.2.9.2,1.5v.4h-5v-.9h4c0-.4,0-.7-.2-1-.1-.3-.4-.5-.6-.7-.3-.2-.6-.3-.9-.3s-.7,0-1,.3c-.3.2-.5.5-.7.8-.2.3-.2.7-.2,1v.6c0,.5,0,.9.3,1.3.2.3.4.6.7.8.3.2.7.3,1.1.3s.5,0,.7-.1c.2,0,.4-.2.6-.3.2-.2.3-.3.4-.6l1,.3c-.1.3-.3.6-.5.9-.2.2-.5.4-.9.6-.4.1-.8.2-1.2.2ZM79.9,61.1c-.5,0-1-.1-1.4-.4-.4-.3-.7-.7-1-1.2-.2-.5-.4-1.1-.4-1.8s.1-1.3.4-1.8c.2-.5.6-.9,1-1.2.4-.3.9-.4,1.5-.4s.8,0,1,.2c.2.1.4.3.6.5.1.2.2.3.3.4h0v-3.2h1v8.7h-1v-1h-.1c0,.1-.2.3-.3.5-.1.2-.3.3-.6.5-.3.1-.6.2-1,.2ZM80.1,60.2c.4,0,.7-.1,1-.3.3-.2.5-.5.6-.9.1-.4.2-.8.2-1.3s0-.9-.2-1.3c-.1-.4-.4-.7-.6-.9-.3-.2-.6-.3-1-.3s-.8.1-1.1.3c-.3.2-.5.5-.6.9-.1.4-.2.8-.2,1.2s0,.9.2,1.3c.1.4.4.7.6.9.3.2.6.3,1.1.3Z"/>
  <path class="st39" d="M17.5,78.5h67c4.1,0,7.5,3.4,7.5,7.5v11c0,4.1-3.4,7.5-7.5,7.5H17.5c-4.1,0-7.5-3.4-7.5-7.5v-11c0-4.1,3.4-7.5,7.5-7.5Z"/>
  <path class="st10" d="M17.5,78.5h67c4.1,0,7.5,3.4,7.5,7.5v11c0,4.1-3.4,7.5-7.5,7.5H17.5c-4.1,0-7.5-3.4-7.5-7.5v-11c0-4.1,3.4-7.5,7.5-7.5Z"/>
  <path class="st58" d="M25,90c0-.3-.2-.5-.4-.8-.2-.2-.3-.4-.5-.6-.2-.2-.4-.3-.7-.4-.3,0-.6-.1-.9-.1-.5,0-1,.1-1.4.4-.4.3-.8.7-1,1.2s-.4,1.2-.4,1.9.1,1.4.4,1.9c.3.5.6.9,1,1.2.4.3.9.4,1.5.4s.9-.1,1.3-.3c.4-.2.7-.5.9-.9.2-.4.3-.9.3-1.4h.3c0,0-2.6,0-2.6,0v-.9h3.3v.9c0,.7-.2,1.3-.5,1.9-.3.5-.7.9-1.3,1.2-.5.3-1.1.4-1.8.4s-1.5-.2-2-.5c-.6-.4-1-.9-1.4-1.6-.3-.7-.5-1.5-.5-2.4s0-1.3.3-1.9c.2-.6.5-1,.8-1.4.3-.4.7-.7,1.2-.9.5-.2,1-.3,1.5-.3s.9,0,1.3.2c.4.1.8.3,1.1.6.3.2.6.5.8.9.2.3.4.7.4,1.2h-1.1ZM30.6,96.1c-.6,0-1.2-.1-1.6-.4-.5-.3-.8-.7-1.1-1.2-.2-.5-.4-1.1-.4-1.8s.1-1.3.4-1.8c.2-.5.6-.9,1-1.2.4-.3,1-.4,1.6-.4s.7,0,1,.2c.3.1.6.3.9.6.3.3.5.6.7,1,.2.4.2.9.2,1.5v.4h-5v-.9h4c0-.4,0-.7-.2-1-.1-.3-.4-.5-.6-.7-.3-.2-.6-.3-.9-.3s-.7,0-1,.3c-.3.2-.5.5-.7.8-.2.3-.2.7-.2,1v.6c0,.5,0,.9.3,1.3.2.3.4.6.7.8.3.2.7.3,1.1.3s.5,0,.7-.1c.2,0,.4-.2.6-.3.2-.2.3-.3.4-.6l1,.3c-.1.3-.3.6-.5.9-.2.2-.5.4-.9.6-.4.1-.8.2-1.2.2ZM37.7,89.5v.9h-3.4v-.9h3.4ZM35.3,87.9h1v6.2c0,.3,0,.5.1.6,0,.1.2.2.3.3.1,0,.3,0,.4,0s.2,0,.3,0c0,0,.1,0,.2,0l.2.9c0,0-.2,0-.3,0-.1,0-.3,0-.5,0-.3,0-.6,0-.8-.2-.3-.1-.5-.3-.7-.6-.2-.2-.3-.6-.3-.9v-6.5ZM47.5,89.5c0-.4-.3-.8-.6-1-.4-.2-.8-.4-1.3-.4s-.7,0-1,.2c-.3.1-.5.3-.7.5-.2.2-.2.5-.2.7s0,.4.2.6c.1.2.3.3.4.4.2.1.4.2.6.3.2,0,.4.1.5.2l.9.2c.2,0,.5.1.8.2.3.1.5.2.8.4.3.2.5.4.6.7.2.3.3.6.3,1s-.1.9-.4,1.3c-.2.4-.6.7-1.1.9-.5.2-1,.3-1.7.3s-1.2-.1-1.6-.3c-.5-.2-.8-.5-1.1-.8-.3-.4-.4-.8-.4-1.3h1.1c0,.3.1.6.3.8.2.2.4.4.7.5.3.1.6.2,1,.2s.8,0,1.1-.2c.3-.1.6-.3.8-.6.2-.2.3-.5.3-.8s0-.5-.2-.7c-.2-.2-.4-.3-.6-.4-.3-.1-.5-.2-.9-.3l-1.1-.3c-.7-.2-1.2-.5-1.6-.8-.4-.4-.6-.8-.6-1.4s.1-.9.4-1.3c.3-.4.6-.7,1.1-.9.5-.2,1-.3,1.5-.3s1.1.1,1.5.3c.4.2.8.5,1,.8.3.3.4.7.4,1.2h-1ZM53.1,89.5v.9h-3.4v-.9h3.4ZM50.6,87.9h1v6.2c0,.3,0,.5.1.6,0,.1.2.2.3.3.1,0,.3,0,.4,0s.2,0,.3,0c0,0,.1,0,.2,0l.2.9c0,0-.2,0-.3,0-.1,0-.3,0-.5,0-.3,0-.6,0-.8-.2-.3-.1-.5-.3-.7-.6-.2-.2-.3-.6-.3-.9v-6.5ZM56.5,96.2c-.4,0-.8,0-1.1-.2-.3-.2-.6-.4-.8-.7-.2-.3-.3-.7-.3-1.1s0-.7.2-.9c.1-.2.3-.4.6-.6.2-.1.5-.2.8-.3.3,0,.6-.1.9-.2.4,0,.7,0,1-.1.2,0,.4,0,.5-.1.1,0,.2-.2.2-.3h0c0-.5-.1-.8-.3-1-.2-.2-.6-.3-1-.3s-.9.1-1.1.3c-.3.2-.5.4-.6.7l-1-.3c.2-.4.4-.7.7-.9.3-.2.6-.4.9-.5.3,0,.7-.1,1-.1s.5,0,.7,0c.3,0,.5.1.8.3.3.2.5.4.6.7.2.3.3.7.3,1.2v4.3h-1v-.9h0c0,.1-.2.3-.3.5-.2.2-.4.3-.6.4-.3.1-.6.2-1,.2ZM56.6,95.2c.4,0,.7,0,1-.2.3-.2.5-.4.6-.6.1-.2.2-.5.2-.8v-.9c0,0-.1,0-.3.1-.1,0-.3,0-.5.1-.2,0-.4,0-.5,0-.2,0-.3,0-.4,0-.3,0-.5,0-.7.2-.2,0-.4.2-.5.3-.1.1-.2.3-.2.6s.1.6.4.8c.3.2.6.3,1,.3ZM61.3,96v-6.5h1v1h0c.1-.3.3-.6.6-.8s.7-.3,1.1-.3.2,0,.3,0c.1,0,.2,0,.3,0v1s-.1,0-.2,0c-.1,0-.2,0-.4,0-.3,0-.6,0-.9.2-.2.1-.4.3-.6.5-.1.2-.2.5-.2.8v4.1h-1ZM69,89.5v.9h-3.4v-.9h3.4ZM66.6,87.9h1v6.2c0,.3,0,.5.1.6,0,.1.2.2.3.3.1,0,.3,0,.4,0s.2,0,.3,0c0,0,.1,0,.2,0l.2.9c0,0-.2,0-.3,0-.1,0-.3,0-.5,0-.3,0-.6,0-.8-.2-.3-.1-.5-.3-.7-.6-.2-.2-.3-.6-.3-.9v-6.5ZM73.2,96.1c-.6,0-1.2-.1-1.6-.4-.5-.3-.8-.7-1.1-1.2-.2-.5-.4-1.1-.4-1.8s.1-1.3.4-1.8c.2-.5.6-.9,1-1.2.4-.3,1-.4,1.6-.4s.7,0,1,.2c.3.1.6.3.9.6.3.3.5.6.7,1,.2.4.2.9.2,1.5v.4h-5v-.9h4c0-.4,0-.7-.2-1-.1-.3-.4-.5-.6-.7-.3-.2-.6-.3-.9-.3s-.7,0-1,.3c-.3.2-.5.5-.7.8-.2.3-.2.7-.2,1v.6c0,.5,0,.9.3,1.3.2.3.4.6.7.8.3.2.7.3,1.1.3s.5,0,.7-.1c.2,0,.4-.2.6-.3.2-.2.3-.3.4-.6l1,.3c-.1.3-.3.6-.5.9-.2.2-.5.4-.9.6-.4.1-.8.2-1.2.2ZM79.9,96.1c-.5,0-1-.1-1.4-.4-.4-.3-.7-.7-1-1.2-.2-.5-.4-1.1-.4-1.8s.1-1.3.4-1.8c.2-.5.6-.9,1-1.2.4-.3.9-.4,1.5-.4s.8,0,1,.2c.2.1.4.3.6.5.1.2.2.3.3.4h0v-3.2h1v8.7h-1v-1h-.1c0,.1-.2.3-.3.5-.1.2-.3.3-.6.5-.3.1-.6.2-1,.2ZM80.1,95.2c.4,0,.7-.1,1-.3.3-.2.5-.5.6-.9.1-.4.2-.8.2-1.3s0-.9-.2-1.3c-.1-.4-.4-.7-.6-.9-.3-.2-.6-.3-1-.3s-.8.1-1.1.3c-.3.2-.5.5-.6.9-.1.4-.2.8-.2,1.2s0,.9.2,1.3c.1.4.4.7.6.9.3.2.6.3,1.1.3Z"/>
  <path class="st39" d="M17.5,113.5h67c4.1,0,7.5,3.4,7.5,7.5v11c0,4.1-3.4,7.5-7.5,7.5H17.5c-4.1,0-7.5-3.4-7.5-7.5v-11c0-4.1,3.4-7.5,7.5-7.5Z"/>
  <path class="st6" d="M17.5,113.5h67c4.1,0,7.5,3.4,7.5,7.5v11c0,4.1-3.4,7.5-7.5,7.5H17.5c-4.1,0-7.5-3.4-7.5-7.5v-11c0-4.1,3.4-7.5,7.5-7.5Z"/>
  <path class="st97" d="M25,125c0-.3-.2-.5-.4-.8-.2-.2-.3-.4-.5-.6-.2-.2-.4-.3-.7-.4-.3,0-.6-.1-.9-.1-.5,0-1,.1-1.4.4s-.8.7-1,1.2-.4,1.2-.4,1.9.1,1.4.4,1.9c.3.5.6.9,1,1.2s.9.4,1.5.4.9-.1,1.3-.3c.4-.2.7-.5.9-.9.2-.4.3-.9.3-1.4h.3c0,0-2.6,0-2.6,0v-.9h3.3v.9c0,.7-.2,1.3-.5,1.9-.3.5-.7.9-1.3,1.2-.5.3-1.1.4-1.8.4s-1.5-.2-2-.5c-.6-.4-1-.9-1.4-1.6-.3-.7-.5-1.5-.5-2.4s0-1.3.3-1.9c.2-.6.5-1,.8-1.4.3-.4.7-.7,1.2-.9.5-.2,1-.3,1.5-.3s.9,0,1.3.2c.4.1.8.3,1.1.6.3.2.6.6.8.9.2.3.4.7.4,1.2h-1.1ZM30.6,131.1c-.6,0-1.2-.1-1.6-.4-.5-.3-.8-.7-1.1-1.2-.2-.5-.4-1.1-.4-1.8s.1-1.3.4-1.8c.2-.5.6-.9,1-1.2.4-.3,1-.4,1.6-.4s.7,0,1,.2c.3.1.6.3.9.6.3.3.5.6.7,1,.2.4.2.9.2,1.5v.4h-5v-.9h4c0-.4,0-.7-.2-1-.1-.3-.4-.5-.6-.7-.3-.2-.6-.3-.9-.3s-.7,0-1,.3c-.3.2-.5.5-.7.8-.2.3-.2.7-.2,1v.6c0,.5,0,.9.3,1.3.2.3.4.6.7.8.3.2.7.3,1.1.3s.5,0,.7-.1c.2,0,.4-.2.6-.3.2-.2.3-.3.4-.6l1,.3c-.1.3-.3.6-.5.9-.2.2-.5.4-.9.6-.4.1-.8.2-1.2.2ZM37.7,124.5v.9h-3.4v-.9h3.4ZM35.3,122.9h1v6.2c0,.3,0,.5.1.6,0,.1.2.2.3.3.1,0,.3,0,.4,0s.2,0,.3,0c0,0,.1,0,.2,0l.2.9c0,0-.2,0-.3,0-.1,0-.3,0-.5,0-.3,0-.6,0-.8-.2-.3-.1-.5-.3-.7-.6-.2-.2-.3-.6-.3-.9v-6.5ZM47.5,124.5c0-.4-.3-.8-.6-1-.4-.2-.8-.4-1.3-.4s-.7,0-1,.2c-.3.1-.5.3-.7.5-.2.2-.2.5-.2.7s0,.4.2.6c.1.2.3.3.4.4.2.1.4.2.6.3.2,0,.4.1.5.2l.9.2c.2,0,.5.1.8.2.3.1.5.2.8.4.3.2.5.4.6.7.2.3.3.6.3,1s-.1.9-.4,1.3c-.2.4-.6.7-1.1.9-.5.2-1,.3-1.7.3s-1.2-.1-1.6-.3c-.5-.2-.8-.5-1.1-.8-.3-.4-.4-.8-.4-1.3h1.1c0,.3.1.6.3.8.2.2.4.4.7.5.3.1.6.2,1,.2s.8,0,1.1-.2c.3-.1.6-.3.8-.6.2-.2.3-.5.3-.8s0-.5-.2-.7c-.2-.2-.4-.3-.6-.4-.3-.1-.5-.2-.9-.3l-1.1-.3c-.7-.2-1.2-.5-1.6-.8-.4-.4-.6-.8-.6-1.4s.1-.9.4-1.3c.3-.4.6-.6,1.1-.9.5-.2,1-.3,1.5-.3s1.1.1,1.5.3c.4.2.8.5,1,.8.3.3.4.7.4,1.2h-1ZM53.1,124.5v.9h-3.4v-.9h3.4ZM50.6,122.9h1v6.2c0,.3,0,.5.1.6,0,.1.2.2.3.3.1,0,.3,0,.4,0s.2,0,.3,0c0,0,.1,0,.2,0l.2.9c0,0-.2,0-.3,0-.1,0-.3,0-.5,0-.3,0-.6,0-.8-.2-.3-.1-.5-.3-.7-.6-.2-.2-.3-.6-.3-.9v-6.5ZM56.5,131.2c-.4,0-.8,0-1.1-.2-.3-.2-.6-.4-.8-.7-.2-.3-.3-.7-.3-1.1s0-.7.2-.9c.1-.2.3-.4.6-.6.2-.1.5-.2.8-.3.3,0,.6-.1.9-.2.4,0,.7,0,1-.1.2,0,.4,0,.5-.1.1,0,.2-.2.2-.3h0c0-.5-.1-.8-.3-1-.2-.2-.6-.3-1-.3s-.9.1-1.1.3c-.3.2-.5.4-.6.7l-1-.3c.2-.4.4-.7.7-.9.3-.2.6-.4.9-.5.3,0,.7-.1,1-.1s.5,0,.7,0c.3,0,.5.1.8.3.3.2.5.4.6.7.2.3.3.7.3,1.2v4.3h-1v-.9h0c0,.1-.2.3-.3.5-.2.2-.4.3-.6.4-.3.1-.6.2-1,.2ZM56.6,130.2c.4,0,.7,0,1-.2.3-.2.5-.4.6-.6.1-.2.2-.5.2-.8v-.9c0,0-.1,0-.3.1-.1,0-.3,0-.5.1-.2,0-.4,0-.5,0-.2,0-.3,0-.4,0-.3,0-.5,0-.7.2-.2,0-.4.2-.5.3-.1.1-.2.3-.2.6s.1.6.4.8c.3.2.6.3,1,.3ZM61.3,131v-6.5h1v1h0c.1-.3.3-.6.6-.8.3-.2.7-.3,1.1-.3s.2,0,.3,0c.1,0,.2,0,.3,0v1s-.1,0-.2,0c-.1,0-.2,0-.4,0-.3,0-.6,0-.9.2-.2.1-.4.3-.6.5-.1.2-.2.5-.2.8v4.1h-1ZM69,124.5v.9h-3.4v-.9h3.4ZM66.6,122.9h1v6.2c0,.3,0,.5.1.6,0,.1.2.2.3.3.1,0,.3,0,.4,0s.2,0,.3,0c0,0,.1,0,.2,0l.2.9c0,0-.2,0-.3,0-.1,0-.3,0-.5,0-.3,0-.6,0-.8-.2-.3-.1-.5-.3-.7-.6-.2-.2-.3-.6-.3-.9v-6.5ZM73.2,131.1c-.6,0-1.2-.1-1.6-.4-.5-.3-.8-.7-1.1-1.2-.2-.5-.4-1.1-.4-1.8s.1-1.3.4-1.8c.2-.5.6-.9,1-1.2.4-.3,1-.4,1.6-.4s.7,0,1,.2c.3.1.6.3.9.6.3.3.5.6.7,1,.2.4.2.9.2,1.5v.4h-5v-.9h4c0-.4,0-.7-.2-1-.1-.3-.4-.5-.6-.7-.3-.2-.6-.3-.9-.3s-.7,0-1,.3c-.3.2-.5.5-.7.8-.2.3-.2.7-.2,1v.6c0,.5,0,.9.3,1.3.2.3.4.6.7.8.3.2.7.3,1.1.3s.5,0,.7-.1c.2,0,.4-.2.6-.3.2-.2.3-.3.4-.6l1,.3c-.1.3-.3.6-.5.9-.2.2-.5.4-.9.6-.4.1-.8.2-1.2.2ZM79.9,131.1c-.5,0-1-.1-1.4-.4-.4-.3-.7-.7-1-1.2-.2-.5-.4-1.1-.4-1.8s.1-1.3.4-1.8c.2-.5.6-.9,1-1.2.4-.3.9-.4,1.5-.4s.8,0,1,.2c.2.1.4.3.6.5.1.2.2.3.3.4h0v-3.2h1v8.7h-1v-1h-.1c0,.1-.2.3-.3.5-.1.2-.3.3-.6.5-.3.1-.6.2-1,.2ZM80.1,130.2c.4,0,.7-.1,1-.3.3-.2.5-.5.6-.9.1-.4.2-.8.2-1.3s0-.9-.2-1.3c-.1-.4-.4-.7-.6-.9-.3-.2-.6-.3-1-.3s-.8.1-1.1.3c-.3.2-.5.5-.6.9-.1.4-.2.8-.2,1.2s0,.9.2,1.3c.1.4.4.7.6.9.3.2.6.3,1.1.3Z"/>
  <path class="st39" d="M17.5,148.5h67c4.1,0,7.5,3.4,7.5,7.5v11c0,4.1-3.4,7.5-7.5,7.5H17.5c-4.1,0-7.5-3.4-7.5-7.5v-11c0-4.1,3.4-7.5,7.5-7.5Z"/>
  <path class="st4" d="M17.5,148.5h67c4.1,0,7.5,3.4,7.5,7.5v11c0,4.1-3.4,7.5-7.5,7.5H17.5c-4.1,0-7.5-3.4-7.5-7.5v-11c0-4.1,3.4-7.5,7.5-7.5Z"/>
  <path class="st17" d="M25,160c0-.3-.2-.5-.4-.8-.2-.2-.3-.4-.5-.6-.2-.2-.4-.3-.7-.4-.3,0-.6-.1-.9-.1-.5,0-1,.1-1.4.4s-.8.7-1,1.2c-.2.5-.4,1.2-.4,1.9s.1,1.4.4,1.9c.3.5.6.9,1,1.2s.9.4,1.5.4.9-.1,1.3-.3c.4-.2.7-.5.9-.9.2-.4.3-.9.3-1.4h.3c0,0-2.6,0-2.6,0v-.9h3.3v.9c0,.7-.2,1.3-.5,1.9-.3.5-.7.9-1.3,1.2-.5.3-1.1.4-1.8.4s-1.5-.2-2-.5c-.6-.4-1-.9-1.4-1.6-.3-.7-.5-1.5-.5-2.4s0-1.3.3-1.9c.2-.6.5-1,.8-1.4.3-.4.7-.7,1.2-.9.5-.2,1-.3,1.5-.3s.9,0,1.3.2c.4.1.8.3,1.1.6.3.2.6.6.8.9.2.3.4.7.4,1.2h-1.1ZM30.6,166.1c-.6,0-1.2-.1-1.6-.4-.5-.3-.8-.7-1.1-1.2-.2-.5-.4-1.1-.4-1.8s.1-1.3.4-1.8c.2-.5.6-.9,1-1.2.4-.3,1-.4,1.6-.4s.7,0,1,.2c.3.1.6.3.9.6.3.3.5.6.7,1,.2.4.2.9.2,1.5v.4h-5v-.9h4c0-.4,0-.7-.2-1-.1-.3-.4-.5-.6-.7-.3-.2-.6-.3-.9-.3s-.7,0-1,.3c-.3.2-.5.5-.7.8-.2.3-.2.7-.2,1v.6c0,.5,0,.9.3,1.3.2.3.4.6.7.8.3.2.7.3,1.1.3s.5,0,.7-.1c.2,0,.4-.2.6-.3.2-.2.3-.3.4-.6l1,.3c-.1.3-.3.6-.5.9-.2.2-.5.4-.9.6-.4.1-.8.2-1.2.2ZM37.7,159.5v.9h-3.4v-.9h3.4ZM35.3,157.9h1v6.2c0,.3,0,.5.1.6,0,.1.2.2.3.3.1,0,.3,0,.4,0s.2,0,.3,0c0,0,.1,0,.2,0l.2.9c0,0-.2,0-.3,0-.1,0-.3,0-.5,0-.3,0-.6,0-.8-.2-.3-.1-.5-.3-.7-.6-.2-.2-.3-.6-.3-.9v-6.5ZM47.5,159.5c0-.4-.3-.8-.6-1-.4-.2-.8-.4-1.3-.4s-.7,0-1,.2c-.3.1-.5.3-.7.5-.2.2-.2.5-.2.7s0,.4.2.6c.1.2.3.3.4.4.2.1.4.2.6.3.2,0,.4.1.5.2l.9.2c.2,0,.5.1.8.2.3.1.5.2.8.4.3.2.5.4.6.7.2.3.3.6.3,1s-.1.9-.4,1.3c-.2.4-.6.7-1.1.9-.5.2-1,.3-1.7.3s-1.2-.1-1.6-.3c-.5-.2-.8-.5-1.1-.8-.3-.4-.4-.8-.4-1.3h1.1c0,.3.1.6.3.8.2.2.4.4.7.5.3.1.6.2,1,.2s.8,0,1.1-.2c.3-.1.6-.3.8-.6.2-.2.3-.5.3-.8s0-.5-.2-.7c-.2-.2-.4-.3-.6-.4-.3-.1-.5-.2-.9-.3l-1.1-.3c-.7-.2-1.2-.5-1.6-.8-.4-.4-.6-.8-.6-1.4s.1-.9.4-1.3c.3-.4.6-.6,1.1-.9.5-.2,1-.3,1.5-.3s1.1.1,1.5.3c.4.2.8.5,1,.8.3.3.4.7.4,1.2h-1ZM53.1,159.5v.9h-3.4v-.9h3.4ZM50.6,157.9h1v6.2c0,.3,0,.5.1.6,0,.1.2.2.3.3.1,0,.3,0,.4,0s.2,0,.3,0c0,0,.1,0,.2,0l.2.9c0,0-.2,0-.3,0-.1,0-.3,0-.5,0-.3,0-.6,0-.8-.2-.3-.1-.5-.3-.7-.6-.2-.2-.3-.6-.3-.9v-6.5ZM56.5,166.2c-.4,0-.8,0-1.1-.2-.3-.2-.6-.4-.8-.7-.2-.3-.3-.7-.3-1.1s0-.7.2-.9c.1-.2.3-.4.6-.6.2-.1.5-.2.8-.3.3,0,.6-.1.9-.2.4,0,.7,0,1-.1.2,0,.4,0,.5-.1.1,0,.2-.2.2-.3h0c0-.5-.1-.8-.3-1-.2-.2-.6-.3-1-.3s-.9.1-1.1.3c-.3.2-.5.4-.6.7l-1-.3c.2-.4.4-.7.7-.9.3-.2.6-.4.9-.5.3,0,.7-.1,1-.1s.5,0,.7,0c.3,0,.5.1.8.3.3.2.5.4.6.7.2.3.3.7.3,1.2v4.3h-1v-.9h0c0,.1-.2.3-.3.5-.2.2-.4.3-.6.4-.3.1-.6.2-1,.2ZM56.6,165.2c.4,0,.7,0,1-.2.3-.2.5-.4.6-.6.1-.2.2-.5.2-.8v-.9c0,0-.1,0-.3.1-.1,0-.3,0-.5.1-.2,0-.4,0-.5,0-.2,0-.3,0-.4,0-.3,0-.5,0-.7.2-.2,0-.4.2-.5.3-.1.1-.2.3-.2.6s.1.6.4.8c.3.2.6.3,1,.3ZM61.3,166v-6.5h1v1h0c.1-.3.3-.6.6-.8s.7-.3,1.1-.3.2,0,.3,0c.1,0,.2,0,.3,0v1s-.1,0-.2,0c-.1,0-.2,0-.4,0-.3,0-.6,0-.9.2-.2.1-.4.3-.6.5-.1.2-.2.5-.2.8v4.1h-1ZM69,159.5v.9h-3.4v-.9h3.4ZM66.6,157.9h1v6.2c0,.3,0,.5.1.6,0,.1.2.2.3.3.1,0,.3,0,.4,0s.2,0,.3,0c0,0,.1,0,.2,0l.2.9c0,0-.2,0-.3,0-.1,0-.3,0-.5,0-.3,0-.6,0-.8-.2-.3-.1-.5-.3-.7-.6-.2-.2-.3-.6-.3-.9v-6.5ZM73.2,166.1c-.6,0-1.2-.1-1.6-.4-.5-.3-.8-.7-1.1-1.2-.2-.5-.4-1.1-.4-1.8s.1-1.3.4-1.8c.2-.5.6-.9,1-1.2.4-.3,1-.4,1.6-.4s.7,0,1,.2c.3.1.6.3.9.6.3.3.5.6.7,1,.2.4.2.9.2,1.5v.4h-5v-.9h4c0-.4,0-.7-.2-1-.1-.3-.4-.5-.6-.7-.3-.2-.6-.3-.9-.3s-.7,0-1,.3c-.3.2-.5.5-.7.8-.2.3-.2.7-.2,1v.6c0,.5,0,.9.3,1.3.2.3.4.6.7.8.3.2.7.3,1.1.3s.5,0,.7-.1c.2,0,.4-.2.6-.3.2-.2.3-.3.4-.6l1,.3c-.1.3-.3.6-.5.9-.2.2-.5.4-.9.6-.4.1-.8.2-1.2.2ZM79.9,166.1c-.5,0-1-.1-1.4-.4-.4-.3-.7-.7-1-1.2-.2-.5-.4-1.1-.4-1.8s.1-1.3.4-1.8c.2-.5.6-.9,1-1.2.4-.3.9-.4,1.5-.4s.8,0,1,.2c.2.1.4.3.6.5.1.2.2.3.3.4h0v-3.2h1v8.7h-1v-1h-.1c0,.1-.2.3-.3.5-.1.2-.3.3-.6.5-.3.1-.6.2-1,.2ZM80.1,165.2c.4,0,.7-.1,1-.3.3-.2.5-.5.6-.9.1-.4.2-.8.2-1.3s0-.9-.2-1.3c-.1-.4-.4-.7-.6-.9-.3-.2-.6-.3-1-.3s-.8.1-1.1.3c-.3.2-.5.5-.6.9-.1.4-.2.8-.2,1.2s0,.9.2,1.3c.1.4.4.7.6.9.3.2.6.3,1.1.3Z"/>
  <path class="st39" d="M17.5,183.5h67c4.1,0,7.5,3.4,7.5,7.5v11c0,4.1-3.4,7.5-7.5,7.5H17.5c-4.1,0-7.5-3.4-7.5-7.5v-11c0-4.1,3.4-7.5,7.5-7.5Z"/>
  <path class="st11" d="M17.5,183.5h67c4.1,0,7.5,3.4,7.5,7.5v11c0,4.1-3.4,7.5-7.5,7.5H17.5c-4.1,0-7.5-3.4-7.5-7.5v-11c0-4.1,3.4-7.5,7.5-7.5Z"/>
  <path class="st86" d="M25,195c0-.3-.2-.5-.4-.8-.2-.2-.3-.4-.5-.6-.2-.2-.4-.3-.7-.4-.3,0-.6-.1-.9-.1-.5,0-1,.1-1.4.4s-.8.7-1,1.2c-.2.5-.4,1.2-.4,1.9s.1,1.4.4,1.9c.3.5.6.9,1,1.2s.9.4,1.5.4.9-.1,1.3-.3c.4-.2.7-.5.9-.9.2-.4.3-.9.3-1.4h.3c0,0-2.6,0-2.6,0v-.9h3.3v.9c0,.7-.2,1.3-.5,1.9-.3.5-.7.9-1.3,1.2-.5.3-1.1.4-1.8.4s-1.5-.2-2-.5c-.6-.4-1-.9-1.4-1.6-.3-.7-.5-1.5-.5-2.4s0-1.3.3-1.9c.2-.6.5-1,.8-1.4.3-.4.7-.7,1.2-.9.5-.2,1-.3,1.5-.3s.9,0,1.3.2c.4.1.8.3,1.1.6.3.2.6.6.8.9.2.3.4.7.4,1.2h-1.1ZM30.6,201.1c-.6,0-1.2-.1-1.6-.4-.5-.3-.8-.7-1.1-1.2-.2-.5-.4-1.1-.4-1.8s.1-1.3.4-1.8c.2-.5.6-.9,1-1.2.4-.3,1-.4,1.6-.4s.7,0,1,.2c.3.1.6.3.9.6.3.3.5.6.7,1,.2.4.2.9.2,1.5v.4h-5v-.9h4c0-.4,0-.7-.2-1-.1-.3-.4-.5-.6-.7-.3-.2-.6-.3-.9-.3s-.7,0-1,.3c-.3.2-.5.5-.7.8-.2.3-.2.7-.2,1v.6c0,.5,0,.9.3,1.3.2.3.4.6.7.8.3.2.7.3,1.1.3s.5,0,.7-.1c.2,0,.4-.2.6-.3.2-.2.3-.3.4-.6l1,.3c-.1.3-.3.6-.5.9-.2.2-.5.4-.9.6-.4.1-.8.2-1.2.2ZM37.7,194.5v.9h-3.4v-.9h3.4ZM35.3,192.9h1v6.2c0,.3,0,.5.1.6,0,.1.2.2.3.3.1,0,.3,0,.4,0s.2,0,.3,0c0,0,.1,0,.2,0l.2.9c0,0-.2,0-.3,0-.1,0-.3,0-.5,0-.3,0-.6,0-.8-.2-.3-.1-.5-.3-.7-.6-.2-.2-.3-.6-.3-.9v-6.5ZM47.5,194.5c0-.4-.3-.8-.6-1-.4-.2-.8-.4-1.3-.4s-.7,0-1,.2c-.3.1-.5.3-.7.5-.2.2-.2.5-.2.7s0,.4.2.6c.1.2.3.3.4.4.2.1.4.2.6.3.2,0,.4.1.5.2l.9.2c.2,0,.5.1.8.2.3.1.5.2.8.4.3.2.5.4.6.7.2.3.3.6.3,1s-.1.9-.4,1.3c-.2.4-.6.7-1.1.9-.5.2-1,.3-1.7.3s-1.2-.1-1.6-.3c-.5-.2-.8-.5-1.1-.8-.3-.4-.4-.8-.4-1.3h1.1c0,.3.1.6.3.8.2.2.4.4.7.5.3.1.6.2,1,.2s.8,0,1.1-.2c.3-.1.6-.3.8-.6.2-.2.3-.5.3-.8s0-.5-.2-.7c-.2-.2-.4-.3-.6-.4-.3-.1-.5-.2-.9-.3l-1.1-.3c-.7-.2-1.2-.5-1.6-.8-.4-.4-.6-.8-.6-1.4s.1-.9.4-1.3c.3-.4.6-.6,1.1-.9.5-.2,1-.3,1.5-.3s1.1.1,1.5.3c.4.2.8.5,1,.8.3.3.4.7.4,1.2h-1ZM53.1,194.5v.9h-3.4v-.9h3.4ZM50.6,192.9h1v6.2c0,.3,0,.5.1.6,0,.1.2.2.3.3.1,0,.3,0,.4,0s.2,0,.3,0c0,0,.1,0,.2,0l.2.9c0,0-.2,0-.3,0-.1,0-.3,0-.5,0-.3,0-.6,0-.8-.2-.3-.1-.5-.3-.7-.6-.2-.2-.3-.6-.3-.9v-6.5ZM56.5,201.2c-.4,0-.8,0-1.1-.2-.3-.2-.6-.4-.8-.7-.2-.3-.3-.7-.3-1.1s0-.7.2-.9c.1-.2.3-.4.6-.6.2-.1.5-.2.8-.3.3,0,.6-.1.9-.2.4,0,.7,0,1-.1.2,0,.4,0,.5-.1.1,0,.2-.2.2-.3h0c0-.5-.1-.8-.3-1-.2-.2-.6-.3-1-.3s-.9.1-1.1.3c-.3.2-.5.4-.6.7l-1-.3c.2-.4.4-.7.7-.9.3-.2.6-.4.9-.5.3,0,.7-.1,1-.1s.5,0,.7,0c.3,0,.5.1.8.3.3.2.5.4.6.7.2.3.3.7.3,1.2v4.3h-1v-.9h0c0,.1-.2.3-.3.5-.2.2-.4.3-.6.4-.3.1-.6.2-1,.2ZM56.6,200.2c.4,0,.7,0,1-.2.3-.2.5-.4.6-.6.1-.2.2-.5.2-.8v-.9c0,0-.1,0-.3.1-.1,0-.3,0-.5.1-.2,0-.4,0-.5,0-.2,0-.3,0-.4,0-.3,0-.5,0-.7.2-.2,0-.4.2-.5.3-.1.1-.2.3-.2.6s.1.6.4.8c.3.2.6.3,1,.3ZM61.3,201v-6.5h1v1h0c.1-.3.3-.6.6-.8s.7-.3,1.1-.3.2,0,.3,0c.1,0,.2,0,.3,0v1s-.1,0-.2,0c-.1,0-.2,0-.4,0-.3,0-.6,0-.9.2-.2.1-.4.3-.6.5-.1.2-.2.5-.2.8v4.1h-1ZM69,194.5v.9h-3.4v-.9h3.4ZM66.6,192.9h1v6.2c0,.3,0,.5.1.6,0,.1.2.2.3.3.1,0,.3,0,.4,0s.2,0,.3,0c0,0,.1,0,.2,0l.2.9c0,0-.2,0-.3,0-.1,0-.3,0-.5,0-.3,0-.6,0-.8-.2-.3-.1-.5-.3-.7-.6-.2-.2-.3-.6-.3-.9v-6.5ZM73.2,201.1c-.6,0-1.2-.1-1.6-.4-.5-.3-.8-.7-1.1-1.2-.2-.5-.4-1.1-.4-1.8s.1-1.3.4-1.8c.2-.5.6-.9,1-1.2.4-.3,1-.4,1.6-.4s.7,0,1,.2c.3.1.6.3.9.6.3.3.5.6.7,1,.2.4.2.9.2,1.5v.4h-5v-.9h4c0-.4,0-.7-.2-1-.1-.3-.4-.5-.6-.7-.3-.2-.6-.3-.9-.3s-.7,0-1,.3c-.3.2-.5.5-.7.8-.2.3-.2.7-.2,1v.6c0,.5,0,.9.3,1.3.2.3.4.6.7.8.3.2.7.3,1.1.3s.5,0,.7-.1c.2,0,.4-.2.6-.3.2-.2.3-.3.4-.6l1,.3c-.1.3-.3.6-.5.9-.2.2-.5.4-.9.6-.4.1-.8.2-1.2.2ZM79.9,201.1c-.5,0-1-.1-1.4-.4-.4-.3-.7-.7-1-1.2-.2-.5-.4-1.1-.4-1.8s.1-1.3.4-1.8c.2-.5.6-.9,1-1.2.4-.3.9-.4,1.5-.4s.8,0,1,.2c.2.1.4.3.6.5.1.2.2.3.3.4h0v-3.2h1v8.7h-1v-1h-.1c0,.1-.2.3-.3.5-.1.2-.3.3-.6.5-.3.1-.6.2-1,.2ZM80.1,200.2c.4,0,.7-.1,1-.3.3-.2.5-.5.6-.9.1-.4.2-.8.2-1.3s0-.9-.2-1.3c-.1-.4-.4-.7-.6-.9-.3-.2-.6-.3-1-.3s-.8.1-1.1.3c-.3.2-.5.5-.6.9-.1.4-.2.8-.2,1.2s0,.9.2,1.3c.1.4.4.7.6.9.3.2.6.3,1.1.3Z"/>
  <path class="st39" d="M30,218.5h42c4.1,0,7.5,3.4,7.5,7.5v11c0,4.1-3.4,7.5-7.5,7.5H30c-4.1,0-7.5-3.4-7.5-7.5v-11c0-4.1,3.4-7.5,7.5-7.5Z"/>
  <path class="st7" d="M30,218.5h42c4.1,0,7.5,3.4,7.5,7.5v11c0,4.1-3.4,7.5-7.5,7.5H30c-4.1,0-7.5-3.4-7.5-7.5v-11c0-4.1,3.4-7.5,7.5-7.5Z"/>
  <path class="st92" d="M50.2,230h-1.1c0-.3-.2-.6-.3-.8-.2-.2-.3-.4-.6-.6-.2-.2-.5-.3-.7-.4-.3,0-.5-.1-.8-.1-.5,0-1,.1-1.4.4-.4.3-.8.7-1,1.2-.2.5-.4,1.2-.4,1.9s.1,1.4.4,1.9c.3.5.6.9,1,1.2.4.3.9.4,1.4.4s.6,0,.8-.1c.3,0,.5-.2.7-.4.2-.2.4-.4.6-.6.2-.2.3-.5.3-.8h1.1c0,.4-.2.8-.4,1.2-.2.4-.5.7-.8.9-.3.2-.7.4-1.1.6-.4.1-.8.2-1.2.2-.7,0-1.4-.2-2-.5-.6-.4-1-.9-1.4-1.6-.3-.7-.5-1.5-.5-2.4s.2-1.7.5-2.4c.3-.7.8-1.2,1.4-1.6.6-.4,1.2-.5,2-.5s.9,0,1.2.2c.4.1.7.3,1.1.6.3.2.6.5.8.9.2.3.4.7.4,1.2ZM51.8,236v-6.5h1v1h0c.1-.3.3-.6.6-.8s.7-.3,1.1-.3.2,0,.3,0c.1,0,.2,0,.3,0v1s-.1,0-.2,0c-.1,0-.2,0-.4,0-.3,0-.6,0-.9.2-.2.1-.4.3-.6.5-.1.2-.2.5-.2.8v4.1h-1ZM58.8,236.1c-.6,0-1.2-.1-1.6-.4-.5-.3-.8-.7-1.1-1.2-.2-.5-.4-1.1-.4-1.8s.1-1.3.4-1.8c.2-.5.6-.9,1-1.2.4-.3,1-.4,1.6-.4s.7,0,1,.2c.3.1.6.3.9.6.3.3.5.6.7,1,.2.4.2.9.2,1.5v.4h-5v-.9h4c0-.4,0-.7-.2-1-.1-.3-.4-.5-.6-.7-.3-.2-.6-.3-.9-.3s-.7,0-1,.3c-.3.2-.5.5-.7.8-.2.3-.2.7-.2,1v.6c0,.5,0,.9.3,1.3.2.3.4.6.7.8.3.2.7.3,1.1.3s.5,0,.7-.1c.2,0,.4-.2.6-.3.2-.2.3-.3.4-.6l1,.3c-.1.3-.3.6-.5.9-.2.2-.5.4-.9.6-.4.1-.8.2-1.2.2ZM64.5,236l-2-6.5h1.1l1.4,5h0l1.4-5h1.1l1.4,5h0l1.4-5h1.1l-2,6.5h-1l-1.4-5h-.1l-1.4,5h-1Z"/>
  <path class="st39" d="M21.5,253.5h59c4.1,0,7.5,3.4,7.5,7.5v11c0,4.1-3.4,7.5-7.5,7.5H21.5c-4.1,0-7.5-3.4-7.5-7.5v-11c0-4.1,3.4-7.5,7.5-7.5Z"/>
  <path class="st7" d="M21.5,253.5h59c4.1,0,7.5,3.4,7.5,7.5v11c0,4.1-3.4,7.5-7.5,7.5H21.5c-4.1,0-7.5-3.4-7.5-7.5v-11c0-4.1,3.4-7.5,7.5-7.5Z"/>
  <path class="st31" d="M34.7,271v-8.7h5.2v.9h-4.2v2.9h3.8v.9h-3.8v3.9h-1.1ZM43.8,271.1c-.6,0-1.1-.1-1.6-.4-.4-.3-.8-.7-1-1.2-.2-.5-.4-1.1-.4-1.8s.1-1.3.4-1.8c.2-.5.6-.9,1-1.2.4-.3,1-.4,1.6-.4s1.1.1,1.6.4c.4.3.8.7,1,1.2.2.5.4,1.1.4,1.8s-.1,1.3-.4,1.8c-.2.5-.6.9-1,1.2-.4.3-1,.4-1.6.4ZM43.8,270.2c.4,0,.8-.1,1.1-.3.3-.2.5-.5.6-.9s.2-.8.2-1.2,0-.8-.2-1.2c-.1-.4-.4-.7-.6-.9-.3-.2-.7-.3-1.1-.3s-.8.1-1.1.3c-.3.2-.5.5-.6.9-.1.4-.2.8-.2,1.2s0,.8.2,1.2c.1.4.4.7.6.9.3.2.7.3,1.1.3ZM52.5,268.3v-3.9h1v6.5h-1v-1.1h0c-.2.3-.4.6-.7.8-.3.2-.7.3-1.2.3s-.8,0-1.1-.3c-.3-.2-.6-.5-.8-.8-.2-.4-.3-.8-.3-1.4v-4.2h1v4.1c0,.5.1.9.4,1.1.3.3.6.4,1,.4s.5,0,.8-.2c.3-.1.5-.3.7-.6.2-.3.3-.6.3-1ZM56.3,267.1v3.9h-1v-6.5h1v1h0c.2-.3.4-.6.7-.8.3-.2.7-.3,1.2-.3s.8,0,1.2.3c.3.2.6.5.8.8.2.4.3.8.3,1.4v4.2h-1v-4.1c0-.5-.1-.9-.4-1.2-.3-.3-.6-.4-1.1-.4s-.6,0-.9.2c-.2.1-.4.3-.6.6-.1.3-.2.6-.2,1ZM64.8,271.1c-.5,0-1-.1-1.4-.4-.4-.3-.7-.7-1-1.2-.2-.5-.4-1.1-.4-1.8s.1-1.3.4-1.8c.2-.5.6-.9,1-1.2.4-.3.9-.4,1.5-.4s.8,0,1,.2c.2.1.4.3.6.5.1.2.2.3.3.4h0v-3.2h1v8.7h-1v-1h-.1c0,.1-.2.3-.3.5-.1.2-.3.3-.6.5-.3.1-.6.2-1,.2ZM64.9,270.2c.4,0,.7-.1,1-.3.3-.2.5-.5.6-.9.1-.4.2-.8.2-1.3s0-.9-.2-1.3c-.1-.4-.4-.7-.6-.9-.3-.2-.6-.3-1-.3s-.8.1-1.1.3c-.3.2-.5.5-.6.9-.1.4-.2.8-.2,1.2s0,.9.2,1.3c.1.4.4.7.6.9.3.2.6.3,1.1.3ZM72.5,271.1c-.6,0-1.2-.1-1.6-.4-.5-.3-.8-.7-1.1-1.2-.2-.5-.4-1.1-.4-1.8s.1-1.3.4-1.8c.2-.5.6-.9,1-1.2.4-.3,1-.4,1.6-.4s.7,0,1,.2c.3.1.6.3.9.6.3.3.5.6.7,1,.2.4.2.9.2,1.5v.4h-5v-.9h4c0-.4,0-.7-.2-1-.1-.3-.4-.5-.6-.7-.3-.2-.6-.3-.9-.3s-.7,0-1,.3c-.3.2-.5.5-.7.8-.2.3-.2.7-.2,1v.6c0,.5,0,.9.3,1.3.2.3.4.6.7.8.3.2.7.3,1.1.3s.5,0,.7-.1c.2,0,.4-.2.6-.3.2-.2.3-.3.4-.6l1,.3c-.1.3-.3.6-.5.9-.2.2-.5.4-.9.6-.4.1-.8.2-1.2.2ZM76.8,271v-6.5h1v1h0c.1-.3.3-.6.6-.8s.7-.3,1.1-.3.2,0,.3,0c.1,0,.2,0,.3,0v1s-.1,0-.2,0c-.1,0-.2,0-.4,0-.3,0-.6,0-.9.2-.2.1-.4.3-.6.5-.1.2-.2.5-.2.8v4.1h-1Z"/>
  <path class="st23" d="M25.5,288.5h51c4.1,0,7.5,3.4,7.5,7.5v11c0,4.1-3.4,7.5-7.5,7.5H25.5c-4.1,0-7.5-3.4-7.5-7.5v-11c0-4.1,3.4-7.5,7.5-7.5Z"/>
  <path class="st5" d="M25.5,288.5h51c4.1,0,7.5,3.4,7.5,7.5v11c0,4.1-3.4,7.5-7.5,7.5H25.5c-4.1,0-7.5-3.4-7.5-7.5v-11c0-4.1,3.4-7.5,7.5-7.5Z"/>
  <path class="st66" d="M26.8,306v-8.7h3.1c.6,0,1.1.1,1.5.3.4.2.7.5.9.8.2.3.3.7.3,1.2s0,.7-.2.9c-.1.2-.3.4-.5.6-.2.1-.4.2-.7.3h0c.3.1.5.2.8.4.3.2.5.4.7.7s.3.7.3,1.2,0,.8-.3,1.2c-.2.4-.5.6-.9.8-.4.2-1,.3-1.7.3h-3.2ZM27.9,305.1h2.1c.7,0,1.2-.1,1.5-.4.3-.3.4-.6.4-1s0-.6-.2-.8c-.2-.3-.4-.5-.6-.6-.3-.2-.6-.2-1-.2h-2.1v3ZM27.9,301.1h2c.3,0,.6,0,.9-.2.3-.1.5-.3.6-.5.2-.2.2-.5.2-.8s-.1-.7-.4-1c-.3-.3-.7-.4-1.3-.4h-2v2.9ZM37.3,306.1c-.6,0-1.2-.1-1.6-.4-.5-.3-.8-.7-1.1-1.2-.2-.5-.4-1.1-.4-1.8s.1-1.3.4-1.8c.2-.5.6-.9,1-1.2.4-.3,1-.4,1.6-.4s.7,0,1,.2c.3.1.6.3.9.6.3.3.5.6.7,1,.2.4.2.9.2,1.5v.4h-5v-.9h4c0-.4,0-.7-.2-1-.1-.3-.4-.5-.6-.7-.3-.2-.6-.3-.9-.3s-.7,0-1,.3c-.3.2-.5.5-.7.8-.2.3-.2.7-.2,1v.6c0,.5,0,.9.3,1.3.2.3.4.6.7.8.3.2.7.3,1.1.3s.5,0,.7-.1c.2,0,.4-.2.6-.3.2-.2.3-.3.4-.6l1,.3c-.1.3-.3.6-.5.9-.2.2-.5.4-.9.6-.4.1-.8.2-1.2.2ZM44.1,308.6c-.5,0-.9,0-1.3-.2-.3-.1-.6-.3-.9-.5-.2-.2-.4-.4-.5-.6l.8-.6c0,.1.2.3.3.4.1.2.3.3.6.4.2.1.6.2,1,.2s1-.1,1.3-.4c.3-.3.5-.7.5-1.2v-1.3h0c0,.1-.2.3-.3.4-.1.2-.3.3-.6.5-.2.1-.6.2-1,.2s-1-.1-1.4-.4c-.4-.2-.7-.6-1-1.1-.2-.5-.4-1.1-.4-1.7s.1-1.3.4-1.8c.2-.5.6-.9,1-1.2.4-.3.9-.4,1.5-.4s.8,0,1,.2c.3.1.4.3.6.5.1.2.2.3.3.4h.1v-1h1v6.7c0,.6-.1,1-.4,1.4-.3.4-.6.6-1,.8-.4.2-.9.3-1.4.3ZM44.1,305c.4,0,.7,0,1-.3.3-.2.5-.5.6-.8.1-.3.2-.8.2-1.2s0-.9-.2-1.2c-.1-.4-.4-.6-.6-.8-.3-.2-.6-.3-1-.3s-.8.1-1.1.3c-.3.2-.5.5-.6.9-.1.4-.2.8-.2,1.2s0,.9.2,1.2c.1.3.4.6.6.8.3.2.6.3,1.1.3ZM48.8,306v-6.5h1v6.5h-1ZM49.3,298.4c-.2,0-.4,0-.5-.2-.1-.1-.2-.3-.2-.5s0-.3.2-.5c.1-.1.3-.2.5-.2s.4,0,.5.2c.1.1.2.3.2.5s0,.3-.2.5c-.1.1-.3.2-.5.2ZM52.7,302.1v3.9h-1v-6.5h1v1h0c.2-.3.4-.6.7-.8.3-.2.7-.3,1.2-.3s.8,0,1.2.3c.3.2.6.5.8.8.2.4.3.8.3,1.4v4.2h-1v-4.1c0-.5-.1-.9-.4-1.2-.3-.3-.6-.4-1.1-.4s-.6,0-.9.2c-.2.1-.4.3-.6.6-.1.3-.2.6-.2,1ZM59.7,302.1v3.9h-1v-6.5h1v1h0c.2-.3.4-.6.7-.8.3-.2.7-.3,1.2-.3s.8,0,1.2.3c.3.2.6.5.8.8.2.4.3.8.3,1.4v4.2h-1v-4.1c0-.5-.1-.9-.4-1.2-.3-.3-.6-.4-1.1-.4s-.6,0-.9.2c-.2.1-.4.3-.6.6-.1.3-.2.6-.2,1ZM68.4,306.1c-.6,0-1.2-.1-1.6-.4-.5-.3-.8-.7-1.1-1.2-.2-.5-.4-1.1-.4-1.8s.1-1.3.4-1.8c.2-.5.6-.9,1-1.2.4-.3,1-.4,1.6-.4s.7,0,1,.2c.3.1.6.3.9.6.3.3.5.6.7,1,.2.4.2.9.2,1.5v.4h-5v-.9h4c0-.4,0-.7-.2-1-.1-.3-.4-.5-.6-.7-.3-.2-.6-.3-.9-.3s-.7,0-1,.3c-.3.2-.5.5-.7.8-.2.3-.2.7-.2,1v.6c0,.5,0,.9.3,1.3.2.3.4.6.7.8.3.2.7.3,1.1.3s.5,0,.7-.1c.2,0,.4-.2.6-.3.2-.2.3-.3.4-.6l1,.3c-.1.3-.3.6-.5.9-.2.2-.5.4-.9.6-.4.1-.8.2-1.2.2ZM72.7,306v-6.5h1v1h0c.1-.3.3-.6.6-.8s.7-.3,1.1-.3.2,0,.3,0c.1,0,.2,0,.3,0v1s-.1,0-.2,0c-.1,0-.2,0-.4,0-.3,0-.6,0-.9.2-.2.1-.4.3-.6.5-.1.2-.2.5-.2.8v4.1h-1Z"/>
  <path class="st23" d="M28,323.5h46c4.1,0,7.5,3.4,7.5,7.5v11c0,4.1-3.4,7.5-7.5,7.5H28c-4.1,0-7.5-3.4-7.5-7.5v-11c0-4.1,3.4-7.5,7.5-7.5Z"/>
  <path class="st10" d="M28,323.5h46c4.1,0,7.5,3.4,7.5,7.5v11c0,4.1-3.4,7.5-7.5,7.5H28c-4.1,0-7.5-3.4-7.5-7.5v-11c0-4.1,3.4-7.5,7.5-7.5Z"/>
  <path class="st58" d="M29.1,332.3h1.3l3,7.2h.1l3-7.2h1.3v8.7h-1v-6.6h0l-2.7,6.6h-1l-2.7-6.6h0v6.6h-1v-8.7ZM42.3,341.1c-.6,0-1.2-.1-1.6-.4-.5-.3-.8-.7-1.1-1.2-.2-.5-.4-1.1-.4-1.8s.1-1.3.4-1.8c.2-.5.6-.9,1-1.2.4-.3,1-.4,1.6-.4s.7,0,1,.2c.3.1.6.3.9.6.3.3.5.6.7,1,.2.4.2.9.2,1.5v.4h-5v-.9h4c0-.4,0-.7-.2-1-.1-.3-.4-.5-.6-.7-.3-.2-.6-.3-.9-.3s-.7,0-1,.3c-.3.2-.5.5-.7.8-.2.3-.2.7-.2,1v.6c0,.5,0,.9.3,1.3.2.3.4.6.7.8.3.2.7.3,1.1.3s.5,0,.7-.1c.2,0,.4-.2.6-.3.2-.2.3-.3.4-.6l1,.3c-.1.3-.3.6-.5.9-.2.2-.5.4-.9.6-.4.1-.8.2-1.2.2ZM49.1,341.1c-.5,0-1-.1-1.4-.4-.4-.3-.7-.7-1-1.2-.2-.5-.4-1.1-.4-1.8s.1-1.3.4-1.8c.2-.5.6-.9,1-1.2.4-.3.9-.4,1.5-.4s.8,0,1,.2c.2.1.4.3.6.5.1.2.2.3.3.4h0v-3.2h1v8.7h-1v-1h-.1c0,.1-.2.3-.3.5-.1.2-.3.3-.6.5-.3.1-.6.2-1,.2ZM49.2,340.2c.4,0,.7-.1,1-.3.3-.2.5-.5.6-.9.1-.4.2-.8.2-1.3s0-.9-.2-1.3c-.1-.4-.4-.7-.6-.9-.3-.2-.6-.3-1-.3s-.8.1-1.1.3c-.3.2-.5.5-.6.9-.1.4-.2.8-.2,1.2s0,.9.2,1.3c.1.4.4.7.6.9.3.2.6.3,1.1.3ZM54,341v-6.5h1v6.5h-1ZM54.5,333.4c-.2,0-.4,0-.5-.2-.1-.1-.2-.3-.2-.5s0-.3.2-.5c.1-.1.3-.2.5-.2s.4,0,.5.2c.1.1.2.3.2.5s0,.3-.2.5c-.1.1-.3.2-.5.2ZM58.8,341.2c-.4,0-.8,0-1.1-.2-.3-.2-.6-.4-.8-.7-.2-.3-.3-.7-.3-1.1s0-.7.2-.9c.1-.2.3-.4.6-.6.2-.1.5-.2.8-.3.3,0,.6-.1.9-.2.4,0,.7,0,1-.1.2,0,.4,0,.5-.1.1,0,.2-.2.2-.3h0c0-.5-.1-.8-.3-1-.2-.2-.6-.3-1-.3s-.9.1-1.1.3c-.3.2-.5.4-.6.7l-1-.3c.2-.4.4-.7.7-.9.3-.2.6-.4.9-.5.3,0,.7-.1,1-.1s.5,0,.7,0c.3,0,.5.1.8.3.3.2.5.4.6.7.2.3.3.7.3,1.2v4.3h-1v-.9h0c0,.1-.2.3-.3.5-.2.2-.4.3-.6.4-.3.1-.6.2-1,.2ZM59,340.2c.4,0,.7,0,1-.2.3-.2.5-.4.6-.6.1-.2.2-.5.2-.8v-.9c0,0-.1,0-.3.1-.1,0-.3,0-.5.1-.2,0-.4,0-.5,0-.2,0-.3,0-.4,0-.3,0-.5,0-.7.2-.2,0-.4.2-.5.3-.1.1-.2.3-.2.6s.1.6.4.8c.3.2.6.3,1,.3ZM66.5,334.5v.9h-3.4v-.9h3.4ZM64.1,332.9h1v6.2c0,.3,0,.5.1.6,0,.1.2.2.3.3.1,0,.3,0,.4,0s.2,0,.3,0c0,0,.1,0,.2,0l.2.9c0,0-.2,0-.3,0-.1,0-.3,0-.5,0-.3,0-.6,0-.8-.2-.3-.1-.5-.3-.7-.6-.2-.2-.3-.6-.3-.9v-6.5ZM70.7,341.1c-.6,0-1.2-.1-1.6-.4-.5-.3-.8-.7-1.1-1.2-.2-.5-.4-1.1-.4-1.8s.1-1.3.4-1.8c.2-.5.6-.9,1-1.2.4-.3,1-.4,1.6-.4s.7,0,1,.2c.3.1.6.3.9.6.3.3.5.6.7,1,.2.4.2.9.2,1.5v.4h-5v-.9h4c0-.4,0-.7-.2-1-.1-.3-.4-.5-.6-.7-.3-.2-.6-.3-.9-.3s-.7,0-1,.3c-.3.2-.5.5-.7.8-.2.3-.2.7-.2,1v.6c0,.5,0,.9.3,1.3.2.3.4.6.7.8.3.2.7.3,1.1.3s.5,0,.7-.1c.2,0,.4-.2.6-.3.2-.2.3-.3.4-.6l1,.3c-.1.3-.3.6-.5.9-.2.2-.5.4-.9.6-.4.1-.8.2-1.2.2Z"/>
  <path class="st23" d="M22.5,358.5h57c4.1,0,7.5,3.4,7.5,7.5v11c0,4.1-3.4,7.5-7.5,7.5H22.5c-4.1,0-7.5-3.4-7.5-7.5v-11c0-4.1,3.4-7.5,7.5-7.5Z"/>
  <path class="st7" d="M22.5,358.5h57c4.1,0,7.5,3.4,7.5,7.5v11c0,4.1-3.4,7.5-7.5,7.5H22.5c-4.1,0-7.5-3.4-7.5-7.5v-11c0-4.1,3.4-7.5,7.5-7.5Z"/>
  <path class="st20" d="M23.9,376h-1.1l3.2-8.7h1.1l3.2,8.7h-1.1l-2.6-7.3h0l-2.6,7.3ZM24.3,372.6h4.5v.9h-4.5v-.9ZM34,376.1c-.5,0-1-.1-1.4-.4-.4-.3-.7-.7-1-1.2-.2-.5-.4-1.1-.4-1.8s.1-1.3.4-1.8c.2-.5.6-.9,1-1.2.4-.3.9-.4,1.5-.4s.8,0,1,.2c.2.1.4.3.6.5.1.2.2.3.3.4h0v-3.2h1v8.7h-1v-1h-.1c0,.1-.2.3-.3.5-.1.2-.3.3-.6.5-.3.1-.6.2-1,.2ZM34.2,375.2c.4,0,.7-.1,1-.3.3-.2.5-.5.6-.9.1-.4.2-.8.2-1.3s0-.9-.2-1.3c-.1-.4-.4-.7-.6-.9-.3-.2-.6-.3-1-.3s-.8.1-1.1.3c-.3.2-.5.5-.6.9-.1.4-.2.8-.2,1.2s0,.9.2,1.3c.1.4.4.7.6.9.3.2.6.3,1.1.3ZM44.4,369.5l-2.4,6.5h-1l-2.4-6.5h1.1l1.8,5.2h0l1.8-5.2h1.1ZM47.4,376.2c-.4,0-.8,0-1.1-.2-.3-.2-.6-.4-.8-.7-.2-.3-.3-.7-.3-1.1s0-.7.2-.9c.1-.2.3-.4.6-.6.2-.1.5-.2.8-.3.3,0,.6-.1.9-.2.4,0,.7,0,1-.1.2,0,.4,0,.5-.1.1,0,.2-.2.2-.3h0c0-.5-.1-.8-.3-1-.2-.2-.6-.3-1-.3s-.9.1-1.1.3c-.3.2-.5.4-.6.7l-1-.3c.2-.4.4-.7.7-.9.3-.2.6-.4.9-.5.3,0,.7-.1,1-.1s.5,0,.7,0c.3,0,.5.1.8.3.3.2.5.4.6.7.2.3.3.7.3,1.2v4.3h-1v-.9h0c0,.1-.2.3-.3.5-.2.2-.4.3-.6.4-.3.1-.6.2-1,.2ZM47.6,375.2c.4,0,.7,0,1-.2.3-.2.5-.4.6-.6.1-.2.2-.5.2-.8v-.9c0,0-.1,0-.3.1-.1,0-.3,0-.5.1-.2,0-.4,0-.5,0-.2,0-.3,0-.4,0-.3,0-.5,0-.7.2-.2,0-.4.2-.5.3-.1.1-.2.3-.2.6s.1.6.4.8c.3.2.6.3,1,.3ZM53.2,372.1v3.9h-1v-6.5h1v1h0c.2-.3.4-.6.7-.8.3-.2.7-.3,1.2-.3s.8,0,1.2.3c.3.2.6.5.8.8.2.4.3.8.3,1.4v4.2h-1v-4.1c0-.5-.1-.9-.4-1.2-.3-.3-.6-.4-1.1-.4s-.6,0-.9.2c-.2.1-.4.3-.6.6-.1.3-.2.6-.2,1ZM61.9,376.1c-.6,0-1.1-.1-1.6-.4-.4-.3-.8-.7-1-1.2-.2-.5-.4-1.1-.4-1.7s.1-1.3.4-1.8c.2-.5.6-.9,1-1.2.4-.3,1-.4,1.6-.4s.9,0,1.2.3c.4.2.7.4.9.7.2.3.4.7.4,1.1h-1c0-.3-.2-.6-.5-.8-.3-.2-.6-.3-1.1-.3s-.7.1-1,.3c-.3.2-.5.5-.7.9-.2.4-.2.8-.2,1.3s0,.9.2,1.3c.2.4.4.7.7.9.3.2.6.3,1,.3s.5,0,.7-.1c.2,0,.4-.2.5-.4.1-.2.3-.4.3-.6h1c0,.4-.2.7-.4,1-.2.3-.5.6-.9.7-.4.2-.8.3-1.3.3ZM68.7,376.1c-.6,0-1.2-.1-1.6-.4-.5-.3-.8-.7-1.1-1.2-.2-.5-.4-1.1-.4-1.8s.1-1.3.4-1.8c.2-.5.6-.9,1-1.2.4-.3,1-.4,1.6-.4s.7,0,1,.2c.3.1.6.3.9.6.3.3.5.6.7,1,.2.4.2.9.2,1.5v.4h-5v-.9h4c0-.4,0-.7-.2-1-.1-.3-.4-.5-.6-.7-.3-.2-.6-.3-.9-.3s-.7,0-1,.3c-.3.2-.5.5-.7.8-.2.3-.2.7-.2,1v.6c0,.5,0,.9.3,1.3.2.3.4.6.7.8.3.2.7.3,1.1.3s.5,0,.7-.1c.2,0,.4-.2.6-.3.2-.2.3-.3.4-.6l1,.3c-.1.3-.3.6-.5.9-.2.2-.5.4-.9.6-.4.1-.8.2-1.2.2ZM75.4,376.1c-.5,0-1-.1-1.4-.4-.4-.3-.7-.7-1-1.2-.2-.5-.4-1.1-.4-1.8s.1-1.3.4-1.8c.2-.5.6-.9,1-1.2.4-.3.9-.4,1.5-.4s.8,0,1,.2c.2.1.4.3.6.5.1.2.2.3.3.4h0v-3.2h1v8.7h-1v-1h-.1c0,.1-.2.3-.3.5-.1.2-.3.3-.6.5-.3.1-.6.2-1,.2ZM75.6,375.2c.4,0,.7-.1,1-.3.3-.2.5-.5.6-.9.1-.4.2-.8.2-1.3s0-.9-.2-1.3c-.1-.4-.4-.7-.6-.9-.3-.2-.6-.3-1-.3s-.8.1-1.1.3c-.3.2-.5.5-.6.9-.1.4-.2.8-.2,1.2s0,.9.2,1.3c.1.4.4.7.6.9.3.2.6.3,1.1.3Z"/>
  <path class="st23" d="M31,393.5h40c4.1,0,7.5,3.4,7.5,7.5v11c0,4.1-3.4,7.5-7.5,7.5H31c-4.1,0-7.5-3.4-7.5-7.5v-11c0-4.1,3.4-7.5,7.5-7.5Z"/>
  <path class="st7" d="M31,393.5h40c4.1,0,7.5,3.4,7.5,7.5v11c0,4.1-3.4,7.5-7.5,7.5H31c-4.1,0-7.5-3.4-7.5-7.5v-11c0-4.1,3.4-7.5,7.5-7.5Z"/>
  <path class="st20" d="M47.5,411v-8.7h2.9c.7,0,1.2.1,1.7.4.4.2.8.6,1,1,.2.4.3.9.3,1.4s-.1,1-.3,1.4c-.2.4-.5.8-1,1-.4.2-1,.4-1.7.4h-2.1v-.9h2.1c.5,0,.8,0,1.1-.2.3-.2.5-.4.6-.7.1-.3.2-.6.2-.9s0-.7-.2-.9c-.1-.3-.3-.5-.6-.6-.3-.2-.7-.2-1.1-.2h-1.9v7.8h-1.1ZM55.1,411v-8.7h2.9c.7,0,1.2.1,1.7.3.4.2.8.5,1,.9.2.4.3.9.3,1.4s-.1,1-.3,1.4c-.2.4-.5.7-1,.9-.4.2-1,.3-1.7.3h-2.4v-1h2.4c.5,0,.8,0,1.1-.2.3-.1.5-.3.6-.6.1-.3.2-.6.2-.9s0-.7-.2-.9c-.1-.3-.3-.5-.6-.6-.3-.1-.7-.2-1.1-.2h-1.9v7.8h-1.1ZM59.3,407.1l2.1,3.9h-1.2l-2.1-3.9h1.2ZM70.2,406.6c0,.9-.2,1.7-.5,2.4-.3.7-.8,1.2-1.4,1.6-.6.4-1.2.5-2,.5s-1.4-.2-2-.5c-.6-.4-1-.9-1.4-1.6-.3-.7-.5-1.5-.5-2.4s.2-1.7.5-2.4c.3-.7.8-1.2,1.4-1.6.6-.4,1.2-.5,2-.5s1.4.2,2,.5c.6.4,1,.9,1.4,1.6.3.7.5,1.5.5,2.4ZM69.2,406.6c0-.8-.1-1.4-.4-1.9-.2-.5-.6-.9-1-1.2-.4-.3-.9-.4-1.4-.4s-1,.1-1.4.4c-.4.3-.8.7-1,1.2-.2.5-.4,1.2-.4,1.9s.1,1.4.4,1.9c.3.5.6.9,1,1.2.4.3.9.4,1.4.4s1-.1,1.4-.4c.4-.3.8-.7,1-1.2.3-.5.4-1.2.4-1.9Z"/>
  <g>
    <path class="st18" d="M28.8,259.7c0,.3-1.1,5.2-1.1,5.4,0,0,0,0,0,.1,0,.1,0,.2,0,.4.1,0,.2.1.3.2.6.4,1,.8,1.3,1,0-1,.1-2.3.2-2.6,0-.4.4-3.8.5-4.3,0-.2,0-.3,0-.4-.2-.4-.8-.2-.9.3Z"/>
    <path class="st18" d="M23.5,264.1c-.1.2-.2.7-.2.9,0,0,0,0,0,0,0,.5.2.9.2,1.1,0-.1,0-.3.2,0,0,.1.3.2.6.3,0,0,.2-.2.3-.2.3,0,.5-.2.7-.3,0-.7,0-1.7-.3-2.3-.3-.3-1.1-.6-1.6.3Z"/>
    <path class="st18" d="M20.8,261.8c0,.5.5,3.5.6,3.8.3,1,.2,2.2.6,3.8.2,1.1.9,2.3,2.2,2.9,1.3.4,2.4.3,3.4-.2.8-.5,1.3-1.1,1.6-1.7.6-1,.6-2,.3-2.5-.3-.6-1.6-1.5-2-1.9-.2-.2-.6-.2-.9,0-.3.1-1.6.6-1.9.7-.5.2-.3,1.2.2,1.3,0,0,0,0,0,0,0,0,0,0,0,0-.1,0,0-.2,0-.2.6,0,1.5-.5,1.7-.6.4-.2.7,0,.8.1,0,0,.9,1,1,1.1.1.2,0,.6-.5.6-.5.2-1.3-.5-1.5-.7,0,0-.1,0-.2,0,0,0-.9,1-1,2.4,0,0,0,0,0,0-.1-.2-.1-.6,0-1-1.5-.3-2.3-1.5-2.1-3.6-.5-.7-.5-1.2-.6-1.3-.1-.3-1-3-1.1-3.2,0,0,0,0,0,0-.3-.3-.8,0-.8.3Z"/>
    <path class="st18" d="M25.5,264s0,0,0,0c.1.5.2,1.2.2,1.9.5-.2.8-.4,1.4-.4s.1,0,.2,0v-.2c0-.3,0-1-.3-1.5-.3-.3-1.1-.7-1.6.2Z"/>
    <path class="st96" d="M27.6,265.3s0,0,0-.1c0-.2,1.1-5.1,1.1-5.4.1-.5.7-.7.9-.3,0-.2-.1-.3-.2-.4-.4-.2-.9,0-1.1.6-.1.4-.9,4.4-1,4.6,0,.3.1.7.1,1.1Z"/>
    <path class="st96" d="M24.2,272.3c-1.4-.6-2-1.8-2.2-2.9-.4-1.6-.3-2.8-.6-3.8-.1-.4-.6-3.4-.6-3.8s.5-.6.8-.3c0-.2-.3-.4-.6-.4-.3,0-.6.4-.6.8,0,.6.4,2.8.5,3.2.5,2.3.2,2.4.7,4.5.2,1,.7,1.7,1.2,2.2,0,0,0,0,0,0,.4.2.9.4,1.3.5Z"/>
    <path class="st96" d="M23.1,265.3c0-.2,0-.2,0-.3,0-.1.2-.1.2,0,0-.3,0-.7.2-.9.5-.9,1.2-.6,1.6-.3,0-.1-.1-.3-.2-.3,0,0,0-.1,0-.2-.1,0-.2,0-.4,0-.6,0-1.2.3-1.5,1.6,0,0,0,.3.1.5Z"/>
    <path class="st96" d="M25.5,264c.5-.8,1.3-.5,1.6-.2,0-.1-.1-.3-.2-.4,0,0,0,0,0-.1-.1,0-.2,0-.3-.1-.5,0-.9,0-1.1.5,0,0,0,.2.1.3,0,0,0,0,0,0Z"/>
    <path class="st96" d="M25.3,269.7c.1-.6.4-1.2.5-1.4-.7,0-1.2-.1-1.4-.4-1.1,0-1.1-1.3-1.1-1.8,0,0,0,0,0,0-.2,2.1.6,3.3,2.1,3.6Z"/>
    <path class="st96" d="M28.6,268.4c-.1-.2-1-1.1-1-1.1,0,0-.4-.4-.8-.1-.1,0-1,.6-1.7.6,0,0-.2,0,0,.2,0,0,0,0,0,0,.8.1,1.7,0,2-.4,0,0,.1,0,.1,0,0,.3-.4.4-.4.4.2.2.4.4.6.6.3.2.6.2.7.2,0,0,.1,0,0,.1,0,0,0,0-.1,0,.5,0,.7-.4.5-.6Z"/>
    <path class="st96" d="M23.8,266.3c-.2-.4-.2-.2-.2,0,0,0,0,.1,0,.1,0,.3,0,.6.1.9,0,.2.2.3.4.4-.1-.4,0-.8.2-1.1-.3,0-.5-.1-.6-.3Z"/>
    <path class="st94" d="M29.5,267.2c.2-2.2.4-5.2.6-7.2,0-.5-.2-.8-.5-.9,0,0,.1.2.2.4,0,.1,0,.3,0,.4,0,.6-.4,4-.5,4.3,0,.3-.1,1.6-.2,2.6-.3-.2-.7-.6-1.3-1,0,0-.2-.1-.3-.2,0-.1,0-.3,0-.4,0-.4,0-.7-.1-1.1-.1-.4-.4-.7-.7-.8,0,0,0,0,0,.1,0,.1.2.3.2.4.2.5.3,1.2.3,1.5v.2c-.1,0-.2,0-.2,0-.6,0-.9.2-1.4.4,0-.7,0-1.5-.2-1.9,0-.1,0-.2-.1-.3,0-.2-.3-.3-.5-.4,0,0,0,.1,0,.2,0,0,.2.2.2.3.3.6.3,1.5.3,2.3-.2,0-.4.2-.7.3,0,0-.2,0-.3.2-.2.2-.3.7-.2,1.1-.2,0-.4-.2-.4-.4,0-.2,0-.5-.1-.9,0,0,0,0,0-.1,0-.2-.2-.6-.2-1.1,0,0,0,0,0,0,0-.1-.2-.1-.2,0,0,0,0,.1,0,.3-.2-.2-.1-.5-.1-.5,0-.1-1-3-1.1-3.3-.1-.4-.5-.5-.8-.5.3,0,.5.3.6.4,0,0,0,0,0,0,0,.2.9,3,1.1,3.2,0,.2,0,.6.6,1.3,0,0,0,0,0,0,0,.4,0,1.7,1.1,1.8.3.3.7.4,1.4.4-.1.1-.4.8-.5,1.4,0,.4-.1.7,0,1,0,0,0,0,0,0,0-1.5.9-2.4,1-2.4,0,0,.1,0,.2,0,.1.3,1,.9,1.5.7,0,0,0,0,.1,0,0,0,0-.1,0-.1s-.3,0-.7-.2c-.2-.1-.4-.3-.6-.6,0,0,.3-.2.4-.4,0,0,0-.1-.1,0-.4.4-1.2.5-2,.4,0,0,0,0,0,0-.6,0-.7-1.1-.2-1.3.3-.1,1.6-.6,1.9-.7.3-.1.7-.1.9,0,.4.3,1.7,1.3,2,1.9.3.6.3,1.5-.3,2.5-.3.6-.8,1.2-1.6,1.7-.9.5-2.1.6-3.4.2-.4-.1-.8-.3-1.3-.5,0,0,0,0,0,0,1.4,1.3,3.5,1.2,4.8.6,1.6-.7,2.3-2.9,2.4-3.3.2-.9-.1-1.6-.6-2Z"/>
  </g>
  <g>
    <path class="st18" d="M36.8,224.7c0,.3-1.1,5.2-1.1,5.4,0,0,0,0,0,.1,0,.1,0,.2,0,.4.1,0,.2.1.3.2.6.4,1,.8,1.3,1,0-1,.1-2.3.2-2.6,0-.4.4-3.8.5-4.3,0-.2,0-.3,0-.4-.2-.4-.8-.2-.9.3Z"/>
    <path class="st18" d="M31.5,229.1c-.1.2-.2.7-.2.9,0,0,0,0,0,0,0,.5.2.9.2,1.1,0-.1,0-.3.2,0,0,.1.3.2.6.3,0,0,.2-.2.3-.2.3,0,.5-.2.7-.3,0-.7,0-1.7-.3-2.3-.3-.3-1.1-.6-1.6.3Z"/>
    <path class="st18" d="M28.8,226.7c0,.5.5,3.5.6,3.8.3,1,.2,2.2.6,3.8.2,1.1.9,2.3,2.2,2.9,1.3.4,2.4.3,3.4-.2.8-.5,1.3-1.1,1.6-1.7.6-1,.6-2,.3-2.5-.3-.6-1.6-1.5-2-1.9-.2-.2-.6-.2-.9,0-.3.1-1.6.6-1.9.7-.5.2-.3,1.2.2,1.3,0,0,0,0,0,0,0,0,0,0,0,0-.1,0,0-.2,0-.2.6,0,1.5-.5,1.7-.6.4-.2.7,0,.8.1,0,0,.9,1,1,1.1.1.2,0,.6-.5.6-.5.2-1.3-.5-1.5-.7,0,0-.1,0-.2,0,0,0-.9,1-1,2.4,0,0,0,0,0,0-.1-.2-.1-.6,0-1-1.5-.3-2.3-1.5-2.1-3.6-.5-.7-.5-1.2-.6-1.3-.1-.3-1-3-1.1-3.2,0,0,0,0,0,0-.3-.3-.8,0-.8.3Z"/>
    <path class="st18" d="M33.4,229s0,0,0,0c.1.5.2,1.2.2,1.9.5-.2.8-.4,1.4-.4s.1,0,.2,0v-.2c0-.3,0-1-.3-1.5-.3-.3-1.1-.7-1.6.2Z"/>
    <path class="st96" d="M35.6,230.3s0,0,0-.1c0-.2,1.1-5.1,1.1-5.4.1-.5.7-.7.9-.3,0-.2-.1-.3-.2-.4-.4-.2-.9,0-1.1.6-.1.4-.9,4.4-1,4.6,0,.3.1.7.1,1.1Z"/>
    <path class="st96" d="M32.2,237.3c-1.4-.6-2-1.8-2.2-2.9-.4-1.6-.3-2.8-.6-3.8-.1-.4-.6-3.4-.6-3.8s.5-.6.8-.3c0-.2-.3-.4-.6-.4-.3,0-.6.4-.6.8,0,.6.4,2.8.5,3.2.5,2.3.2,2.4.7,4.5.2,1,.7,1.7,1.2,2.2,0,0,0,0,0,0,.4.2.9.4,1.3.5Z"/>
    <path class="st96" d="M31.1,230.3c0-.2,0-.2,0-.3,0-.1.2-.1.2,0,0-.3,0-.7.2-.9.5-.9,1.2-.6,1.6-.3,0-.1-.1-.3-.2-.3,0,0,0-.1,0-.2-.1,0-.2,0-.4,0-.6,0-1.2.3-1.5,1.6,0,0,0,.3.1.5Z"/>
    <path class="st96" d="M33.4,229c.5-.8,1.3-.5,1.6-.2,0-.1-.1-.3-.2-.4,0,0,0,0,0-.1-.1,0-.2,0-.3-.1-.5,0-.9,0-1.1.5,0,0,0,.2.1.3,0,0,0,0,0,0Z"/>
    <path class="st96" d="M33.3,234.7c.1-.6.4-1.2.5-1.4-.7,0-1.2-.1-1.4-.4-1.1,0-1.1-1.3-1.1-1.8,0,0,0,0,0,0-.2,2.1.6,3.3,2.1,3.6Z"/>
    <path class="st96" d="M36.5,233.4c-.1-.2-1-1.1-1-1.1,0,0-.4-.4-.8-.1-.1,0-1,.6-1.7.6,0,0-.2,0,0,.2,0,0,0,0,0,0,.8.1,1.7,0,2-.4,0,0,.1,0,.1,0,0,.3-.4.4-.4.4.2.2.4.4.6.6.3.2.6.2.7.2,0,0,.1,0,0,.1,0,0,0,0-.1,0,.5,0,.7-.4.5-.6Z"/>
    <path class="st96" d="M31.7,231.3c-.2-.4-.2-.2-.2,0,0,0,0,.1,0,.1,0,.3,0,.6.1.9,0,.2.2.3.4.4-.1-.4,0-.8.2-1.1-.3,0-.5-.1-.6-.3Z"/>
    <path class="st94" d="M37.4,232.2c.2-2.2.4-5.2.6-7.2,0-.5-.2-.8-.5-.9,0,0,.1.2.2.4,0,.1,0,.3,0,.4,0,.6-.4,4-.5,4.3,0,.3-.1,1.6-.2,2.6-.3-.2-.7-.6-1.3-1,0,0-.2-.1-.3-.2,0-.1,0-.3,0-.4,0-.4,0-.7-.1-1.1-.1-.4-.4-.7-.7-.8,0,0,0,0,0,.1,0,.1.2.3.2.4.2.5.3,1.2.3,1.5v.2c-.1,0-.2,0-.2,0-.6,0-.9.2-1.4.4,0-.7,0-1.5-.2-1.9,0-.1,0-.2-.1-.3,0-.2-.3-.3-.5-.4,0,0,0,.1,0,.2,0,0,.2.2.2.3.3.6.3,1.5.3,2.3-.2,0-.4.2-.7.3,0,0-.2,0-.3.2-.2.2-.3.7-.2,1.1-.2,0-.4-.2-.4-.4,0-.2,0-.5-.1-.9,0,0,0,0,0-.1,0-.2-.2-.6-.2-1.1,0,0,0,0,0,0,0-.1-.2-.1-.2,0,0,0,0,.1,0,.3-.2-.2-.1-.5-.1-.5,0-.1-1-3-1.1-3.3-.1-.4-.5-.5-.8-.5.3,0,.5.3.6.4,0,0,0,0,0,0,0,.2.9,3,1.1,3.2,0,.2,0,.6.6,1.3,0,0,0,0,0,0,0,.4,0,1.7,1.1,1.8.3.3.7.4,1.4.4-.1.1-.4.8-.5,1.4,0,.4-.1.7,0,1,0,0,0,0,0,0,0-1.5.9-2.4,1-2.4,0,0,.1,0,.2,0,.1.3,1,.9,1.5.7,0,0,0,0,.1,0,0,0,0-.1,0-.1s-.3,0-.7-.2c-.2-.1-.4-.3-.6-.6,0,0,.3-.2.4-.4,0,0,0-.1-.1,0-.4.4-1.2.5-2,.4,0,0,0,0,0,0-.6,0-.7-1.1-.2-1.3.3-.1,1.6-.6,1.9-.7.3-.1.7-.1.9,0,.4.3,1.7,1.3,2,1.9.3.6.3,1.5-.3,2.5-.3.6-.8,1.2-1.6,1.7-.9.5-2.1.6-3.4.2-.4-.1-.8-.3-1.3-.5,0,0,0,0,0,0,1.4,1.3,3.5,1.2,4.8.6,1.6-.7,2.3-2.9,2.4-3.3.2-.9-.1-1.6-.6-2Z"/>
  </g>
  <g>
    <path class="st57" d="M37.2,401.6c.1.1.2.4.1.7,0,0,0,0,0,0,0,0,0,0,0,0,0,0,.1-.2.2-.3,0-.2,0-.4-.3-.5-.2-.1-.3,0-.4,0,0,0,.2,0,.3,0Z"/>
    <path class="st44" d="M41.3,400.8c.2,1.1,0,1.4.2,1.4,0,0,.1,0,.2-.2,0-.2-.1-1.4-.5-1.9-.4-.6-.9-.8-1.1-.8s-.2.1-.2.1h0s0,0,0,0c0,0,1.1.3,1.3,1.5Z"/>
    <path class="st44" d="M41.8,401.6h0s0,0,0,0c0,0,0,0,0,0Z"/>
    <path class="st44" d="M38.8,398.7c.2,0,.5.2.8.7.3.5.4.9.5.9,0,0,.1,0,.1-.2,0,0,0,0,0,0-.1,0-.3-.6-.6-.9-.3-.3-.6-.5-.9-.5,0,0-.1,0-.1,0,0,0,.1,0,.2,0Z"/>
    <path class="st44" d="M43.2,403.9c-.1-1.9-1.1-2.4-1.2-2.4s-.1,0-.1,0c0,0,0,0,0,0,0,0,1,.8,1.1,2.2.2,2.3-1.8,3.3-1.8,3.3,0,0,0,1.4-1.5,1.9-1.5.5-3-.5-3-.5,0,0-.1,0-.2,0,0,0,0,.2.3.5.3.2.7.4.7.4,0,0,0,0,0,0h0s1.4.6,2.8-.2c1.3-.7,1.2-1.8,1.3-1.9,0,0,1.8-1,1.7-3.4Z"/>
    <path class="st44" d="M38.6,398.7s0,0,0,0h0s0,0,0,0,0,0,0,0Z"/>
    <path class="st57" d="M37.6,402.7c-.3.4-.7.3-.7.3s0,0,0,.1c.2,0,.7,0,.9-.5.2-.4,0-.8-.1-.9,0,0,0,0,0,0,0,0,.2.7,0,1Z"/>
    <path class="st41" d="M39.8,412.5c0,.2-.1.5-.1.5,0,0,.5-.2.8-.5,0,0,.2-.2.3-.3-.2-.1-.6-.4-1-.6,0,.4,0,.8,0,1Z"/>
    <path class="st48" d="M37.9,410.7c-.3,0-.6-.3-.6-.3,0,0-.1.5-.6.6,0,0,0,0,.1,0,.1,0,.3-.1.3-.1,0,0,.3.6.4.7,0,.1,0,.3,0,.4,0,0-.6.3-.7.4s0,.7-.1.7c-.1,0-.3-.3-.4-.4,0-.1-.2-.5,0-.7s.6-.2.6-.2c0,0-.3-.6-.3-.6-.4,0-.7-.4-.7-.4,0,0,0,.4-.5.5-.1,0-.2,0-.3,0,0,0,.2,0,.4,0,.2,0,.3-.1.3-.1,0,0,.2.8.2,1.5,0,0,0,.1,0,.2.3.3.5.6.5.6,0,0,.3-.2.8-.3.5,0,1-.1,1.4-.6.4-.5.3-.9.5-1.3-.2-.1-.3-.2-.4-.3-.1,0-.4,0-.7,0ZM38.4,411s0,.2-.1.4c0,.2,0,.4,0,.6,0,.4-.5.5-.5.4,0,0,0-.2,0-.4,0-.2,0-.4.1-.7.2-.3.5-.4.5-.4Z"/>
    <path class="st79" d="M33.9,411.9s-.2-.3-.1-.8c0-.1,0-.3,0-.4,0,0,0,0-.1,0-.1.2-.3.4-.5.6,0,.1.2.2.3.3s.4.3.4.3Z"/>
    <path class="st88" d="M32.9,413s-.3-.5-.5-1c0,0,0,0,0-.1-.2.1-.3.2-.4.3,0,0,.1.1.2.2.4.5.7.7.7.7Z"/>
    <path class="st87" d="M35.1,412c0-.4-.2-1-.2-1-.4-.1-.6-.5-.6-.5,0,0-.2.1-.3.2,0,.2,0,.4.2.6.3.4.6.6.9.8Z"/>
    <path class="st44" d="M34.3,408.8c-.4,0-1.8.3-3-.5-1-.7-1-1.6-1-1.7,0-.1-.5-.3-.8-.9-.4-.8-.3-1.5-.1-1.6.1,0,.4.3.5.2.2-.1-.2-.4-.1-1.7,0-1.3.7-2,.9-1.9,0,0,0,.3.1.5,0-.3,0-.6-.1-.6-.3,0-1,.7-1.1,2,0,1,.1,1.4.2,1.7-.1,0-.3-.2-.4-.1-.2.1-.4.9,0,1.7.3.6.7.9.7,1,0,.1.1,1.2,1.1,1.9,1.2.8,2.5.7,3.2.6,0,0,0-.2,0-.3,0,0,0,0,0-.1Z"/>
    <path class="st44" d="M31.2,401.7c0,0,0-.3.1-1.2.2-.8.7-1.2.8-1.1,0,0,0,.1,0,.3,0-.1,0-.3,0-.3-.1,0-.8,0-1,1.1-.1.5-.1.9,0,1,0,0,0,0,0,0,.1.1.2.3.3.2Z"/>
    <path class="st44" d="M32.4,400.6c0,0,0-.4.3-.9.2-.5.8-1,.9-.9,0,0,0,0,0,0,0,0,0,0,0,0-.2-.1-.8.2-1.1.8-.3.5-.3.7-.3.8,0,0,0,0,0,0,0,.1.2.2.2.2Z"/>
    <path class="st47" d="M30.9,401.4c0,0-.1-.2-.1-.3,0,0,0,0,0,0,0,0,0,0,0,0,0,.1.1.3.2.3Z"/>
    <path class="st78" d="M33.3,404.1c0,.8.3,1.8.3,1.8v.4c.2-.4.4-.8.8-1,0,0,0,0,0,0-.1,0-.9-.4-.9-1.2,0-.8.3-1.1.5-1.4.3-.5,0-.7-.2-1.3s-.3-.9-.3-1.4c0-.4.1-.9.1-1.1,0,.2-.3.7-.3,1.1,0,.7,0,3.3,0,4.1Z"/>
    <path class="st59" d="M32.1,400.2s0,0,0,0c0-.1,0-.3,0-.4,0,.1,0,.2,0,.2,0,0,0,.1,0,.3Z"/>
    <path class="st71" d="M32.2,400.4s0,0,0-.1c0,0,0,.1,0,.1Z"/>
    <path class="st44" d="M30.7,400.6c-.1,0-.8.7-.9,1.9,0,1.3.3,1.6.1,1.7-.2.1-.4-.3-.5-.2-.2.1-.3.9.1,1.6.3.6.7.8.8.9,0,.1,0,1,1,1.7,1.2.9,2.6.6,3,.5,0-.3-.1-.5-.1-.5,0,0,0,0,0-.1-.2-.3-.3-.6-.4-.9,0-.3-.1-.7,0-1.1v-.4c-.2,0-.4-1-.5-1.8,0-.8,0-3.4,0-4.1,0-.4.3-.9.3-1.1,0,0,0,0,0,0,0,0-.7.4-.9.9-.2.5-.2.9-.3.9,0,0-.1,0-.2-.2,0,0,0,0,0-.1,0,0,0,0,0-.1,0-.1,0-.3,0-.3,0,0,0,0,0-.2,0-.2,0-.3,0-.3,0,0-.6.3-.8,1.1-.2.8,0,1.1-.1,1.2,0,0-.2,0-.3-.2,0,0-.1-.2-.2-.3,0,0,0,0,0,0,0-.2,0-.5-.1-.5Z"/>
    <path class="st90" d="M30.7,400.6c-.1,0-.8.7-.9,1.9,0,1.3.3,1.6.1,1.7-.2.1-.4-.3-.5-.2-.2.1-.3.9.1,1.6.3.6.7.8.8.9,0,.1,0,1,1,1.7,1.2.9,2.6.6,3,.5,0-.3-.1-.5-.1-.5,0,0,0,0,0-.1-.2-.3-.3-.6-.4-.9,0-.3-.1-.7,0-1.1v-.4c-.2,0-.4-1-.5-1.8,0-.8,0-3.4,0-4.1,0-.4.3-.9.3-1.1,0,0,0,0,0,0,0,0-.7.4-.9.9-.2.5-.2.9-.3.9,0,0-.1,0-.2-.2,0,0,0,0,0-.1,0,0,0,0,0-.1,0-.1,0-.3,0-.3,0,0,0,0,0-.2,0-.2,0-.3,0-.3,0,0-.6.3-.8,1.1-.2.8,0,1.1-.1,1.2,0,0-.2,0-.3-.2,0,0-.1-.2-.2-.3,0,0,0,0,0,0,0-.2,0-.5-.1-.5Z"/>
    <path class="st19" d="M37.2,402.3s0,0,0,0c.1-.3,0-.5-.1-.7,0,0-.3-.1-.3,0,0,0,0,0,0,0,0,0,0,.1,0,.3,0,.3-.4.3-.6.3.2.1.4.3.4.3,0,0,.3,0,.5,0Z"/>
    <path class="st28" d="M40.4,399.8l-.4-.5c0,.1.2.5.2.6,0,0,0,0,0,.1.1,0,.2-.2.2-.2Z"/>
    <path class="st34" d="M36.2,408.3l4.4-2.6-.9-5.4-1-1.5c0,.2.3.8.2,1.7,0,1.2-.5,1.5-.5,2.1,0,.6.5,1.8-.2,2.6-.6.7-1.4.6-1.5.5,0-.1.3-.5.4-1.3,0-.5,0-1-.1-1.2,0,0,0,0,0,0,0,0-.3-.1-.3-.1,0,0,.8-.4.9-.5,0,0,.2-.8.2-.8,0,0,0,0,0,0,0,0,0,0,0,0,0,0,0,.1-.2.2,0,0,0,0,0,0,0,.2-.1.4-.1.4l-.6.3s0,0,.1-.1c0,0-.5-.2-.5-.2,0,0-.3-.3-.3-.3,0,0,0,0,.2,0-.2,0-.3-.1-.5-.1-.5,0-.7.4-.8.5,0,0,.1,0,.2.2,0,0,.2.2.2.2,0,0,0,0,0,0,0,0,.1,0,.1,0,0,0,0,.2,0,.2,0,0,0,0,0,.2,0,0,0,.1,0,.2.1,0,.5.2.5.7,0,.7-.7,1.1-.7,1.1,0,0,0,0,0,0,0,0,0,0,0,0,1.4,0,1.5,1.5,1.2,2.3-.4,1.1-1,2.1-1.1,2.1,0,0-.2-.2-.5-.6h0c0,.1-.2.2-.4.2,0,.2-.1.4-.2.6-.2.3-.6.6-.6.6,0,0,0,.1.2.2.2-.2.3-.4.3-.4l2.4-.4,1.9.4s.1.2.4.4c0,0,.1,0,.1,0,.1,0,0,0,0-.1,0,0-.4-.3-.7-.5-.3-.2-.6-.6-.6-.7h-1c0,.1-.3-1-.3-1ZM36,403.1c-.3,0-.4-.3-.4-.3,0,0,.2,0,.3,0,.1,0,.2-.2.2-.2s.2.4-.2.4Z"/>
    <path class="st73" d="M41.9,402v-.4c0,0,0,0-.1.1,0,0,0,.1,0,.3,0,0,0,0,0,0h.2Z"/>
    <path class="st57" d="M37.2,402.3c-.1.2-.3.2-.3.2,0,0,0,0,0,0,0,0-.1.1-.1.1l.6-.3s.1-.2.1-.4c0,0,0,0,0,0,0,0-.1.2-.2.3s0,0,0,0Z"/>
    <path class="st64" d="M37.2,402.3c-.1.2-.3.2-.3.2,0,0,0,0,0,0,0,0-.1.1-.1.1l.6-.3s.1-.2.1-.4c0,0,0,0,0,0,0,0-.1.2-.2.3s0,0,0,0Z"/>
    <path class="st44" d="M36.8,408.9c-.3-.2-.3-.4-.3-.5,0,0,.1,0,.2,0,0,0,1.5,1,3,.5,1.5-.5,1.5-1.9,1.5-1.9,0,0,2-1,1.8-3.3-.1-1.4-1-2.2-1.1-2.2,0,0,0,0,0,0,0,0,0,0,0,0,0,0,0,0,0,0v.4c0,0,0,0,0,0,0,0,0,0,0,0,0,.1-.1.2-.2.2-.2,0,0-.3-.2-1.4-.2-1.1-1.3-1.6-1.3-1.5,0,0,0,0,0,0l.4.5s0,.3-.2.2c0,0,0,.2-.1.2-.1,0-.2-.4-.5-.9-.3-.5-.6-.6-.8-.7,0,0-.2,0-.2,0,0,0,0,0,0,0,0,0,0,0,0,0s0,0,0,0l1,1.5.9,5.4-4.4,2.6.3,1.1h1c0-.1,0-.1,0-.1,0,0-.4-.2-.7-.4Z"/>
    <path class="st62" d="M36.8,408.9c-.3-.2-.3-.4-.3-.5,0,0,.1,0,.2,0,0,0,1.5,1,3,.5,1.5-.5,1.5-1.9,1.5-1.9,0,0,2-1,1.8-3.3-.1-1.4-1-2.2-1.1-2.2,0,0,0,0,0,0,0,0,0,0,0,0,0,0,0,0,0,0v.4c0,0,0,0,0,0,0,0,0,0,0,0,0,.1-.1.2-.2.2-.2,0,0-.3-.2-1.4-.2-1.1-1.3-1.6-1.3-1.5,0,0,0,0,0,0l.4.5s0,.3-.2.2c0,0,0,.2-.1.2-.1,0-.2-.4-.5-.9-.3-.5-.6-.6-.8-.7,0,0-.2,0-.2,0,0,0,0,0,0,0,0,0,0,0,0,0s0,0,0,0l1,1.5.9,5.4-4.4,2.6.3,1.1h1c0-.1,0-.1,0-.1,0,0-.4-.2-.7-.4Z"/>
    <path class="st57" d="M37.5,402.6c0,0-.9.5-.9.5,0,0,.3.1.3.1,0,0,0,0,0,0,0,0,0-.1,0-.1,0,0,.4,0,.7-.3.3-.3.1-.9,0-1,0,0,0,0,0,0,0,0-.1.7-.2.8Z"/>
    <path class="st82" d="M37.5,402.6c0,0-.9.5-.9.5,0,0,.3.1.3.1,0,0,0,0,0,0,0,0,0-.1,0-.1,0,0,.4,0,.7-.3.3-.3.1-.9,0-1,0,0,0,0,0,0,0,0-.1.7-.2.8Z"/>
    <path class="st98" d="M38.3,410.3l-1.9-.4-2.4.4s-.1.2-.3.4c0,0,0,0,.1,0,0-.2.1-.3.2-.3s0,.1,0,.3c.2,0,.3-.2.3-.2,0,0,.2.4.6.5h0s0,0,0,0c0,0,.2,0,.3,0,.5,0,.5-.5.5-.5,0,0,.2.4.7.4,0,0,0,0,0,0,0,0,.1,0,.2,0,.5,0,.6-.6.6-.6,0,0,.3.2.6.3.3,0,.6,0,.7,0-.3-.2-.4-.4-.4-.4Z"/>
    <path class="st77" d="M38.3,410.3l-1.9-.4-2.4.4s-.1.2-.3.4c0,0,0,0,.1,0,0-.2.1-.3.2-.3s0,.1,0,.3c.2,0,.3-.2.3-.2,0,0,.2.4.6.5h0s0,0,0,0c0,0,.2,0,.3,0,.5,0,.5-.5.5-.5,0,0,.2.4.7.4,0,0,0,0,0,0,0,0,.1,0,.2,0,.5,0,.6-.6.6-.6,0,0,.3.2.6.3.3,0,.6,0,.7,0-.3-.2-.4-.4-.4-.4Z"/>
    <path class="st44" d="M34.7,409c0-.1-.2-.2-.2-.4h0c0,.1,0,.2-.1.2,0,0,0,0,0,.1,0,.1,0,.2,0,.3.3,0,.4-.1.4-.1h0Z"/>
    <path class="st61" d="M34.7,409c0-.1-.2-.2-.2-.4h0c0,.1,0,.2-.1.2,0,0,0,0,0,.1,0,.1,0,.2,0,.3.3,0,.4-.1.4-.1h0Z"/>
    <path class="st44" d="M34.2,408.4s.1.2.1.5c0,0,.1,0,.1,0h0c0-.3-.2-.4-.3-.6,0,0,0,.1,0,.1Z"/>
    <path class="st45" d="M34.2,408.4s.1.2.1.5c0,0,.1,0,.1,0h0c0-.3-.2-.4-.3-.6,0,0,0,.1,0,.1Z"/>
    <path class="st3" d="M34.2,408.4s.1.2.1.5c0,0,.1,0,.1,0h0c0-.3-.2-.4-.3-.6,0,0,0,.1,0,.1Z"/>
    <path class="st19" d="M36.1,402.1s.3.3.3.3c0,0,.5.2.5.2,0,0,0,0,0,0,0,0,.2,0,.3-.2-.2.1-.5.1-.5,0,0,0-.2-.2-.4-.3-.1,0-.2,0-.2,0Z"/>
    <path class="st42" d="M36.1,402.1s.3.3.3.3c0,0,.5.2.5.2,0,0,0,0,0,0,0,0,.2,0,.3-.2-.2.1-.5.1-.5,0,0,0-.2-.2-.4-.3-.1,0-.2,0-.2,0Z"/>
    <path class="st46" d="M39.7,411.5c0,0,0-.2,0-.2,0-.5.4-.8.4-.9,0,0-.7,0-1,.6,0,0,0,0,0,0,.1,0,.2.2.4.3.1,0,.2.1.3.2Z"/>
    <path class="st76" d="M40.5,413c-.4.2-1,.2-1,.2,0,0-.2,0-.6.2-.2.3-.4.5-.4.5,0,0-.4.1-1.1,0,0,0,.2,0,.2,0,.9,0,1.4-.3,1.4-.3,0,0,.5.3,1.3.1.8-.2,1-.8,1.2-1.5.2-.7.4-.7.4-.7,0,0-.4,0-.7,0-.3.1-.5.4-.7.6.3.2.4.3.4.3,0,0-.2.4-.6.6Z"/>
    <path class="st32" d="M36.8,413.5c-.3,0-.5,0-.5,0,0,0-.1,0-.3,0,0,.2.1.3.1.3,0,0,0,0-.2,0,0,0,0,0,0,0,.4,0,.6-.1.6-.1,0,0,.2.1.6.2-.4,0-.6-.3-.6-.3,0,0,.2,0,.3-.2Z"/>
    <path class="st75" d="M34.5,413.8s-.3-.2-.7-.6c-.4,0-.7-.1-.7-.1,0,0-1.4-.5-1.4-.7,0,0,.1-.2.4-.3-.3-.4-.4-.7-.7-1.1-.5-.7-1.2-.8-1.2-.7,0,0,.1.2.4.6.2.4.2,1.2.9,1.8.9.8,1.7.4,1.7.4,0,0,.6.6,1.5.7,0,0,0,0,.1,0,0,0,0,0,0,0-.1,0-.2,0-.2,0Z"/>
    <path class="st55" d="M33.2,411.2c-.2-.2-.3-.4-.5-.5-.6-.5-1.2-.4-1.2-.4s.4.4.5.6c.2.2.3.5.4.9.1,0,.2-.1.3-.2.2-.1.3-.2.5-.4Z"/>
    <path class="st69" d="M37.1,412.9c-.5,0-.8.3-.8.3,0,0-.2-.3-.5-.6,0,.2,0,.4,0,.7,0,0,0,.1,0,.2.2,0,.3,0,.3,0,0,0,.2,0,.5,0,0,0,.2,0,.3,0,.4-.1.7,0,1.2-.3.4-.2.8-.7.8-.7,0,0,0,.2,0,.7,0,.1,0,.2-.1.3.3,0,.6-.2.6-.2,0,0,.6,0,1-.2.4-.2.6-.6.6-.6,0,0-.2,0-.4-.3,0,0-.2.2-.3.3-.3.3-.8.5-.8.5,0,0,.1-.2.1-.5,0-.2,0-.6,0-1,0,0-.2-.1-.3-.2-.1,0-.2-.2-.4-.3-.2.4-.2.8-.5,1.3-.4.5-.9.5-1.4.6Z"/>
    <path class="st14" d="M37.1,412.9c-.5,0-.8.3-.8.3,0,0-.2-.3-.5-.6,0,.2,0,.4,0,.7,0,0,0,.1,0,.2.2,0,.3,0,.3,0,0,0,.2,0,.5,0,0,0,.2,0,.3,0,.4-.1.7,0,1.2-.3.4-.2.8-.7.8-.7,0,0,0,.2,0,.7,0,.1,0,.2-.1.3.3,0,.6-.2.6-.2,0,0,.6,0,1-.2.4-.2.6-.6.6-.6,0,0-.2,0-.4-.3,0,0-.2.2-.3.3-.3.3-.8.5-.8.5,0,0,.1-.2.1-.5,0-.2,0-.6,0-1,0,0-.2-.1-.3-.2-.1,0-.2-.2-.4-.3-.2.4-.2.8-.5,1.3-.4.5-.9.5-1.4.6Z"/>
    <path class="st89" d="M31.7,412.5c0,.1,1.4.7,1.4.7,0,0,.3,0,.7.1,0,0-.1-.1-.2-.2-.3-.4-.5-1.1-.5-1.1,0,0,.3.2.7.5.4.2.7.3.7.3,0,0-.2-.3-.2-.4-.1-.3-.2-.7-.2-.7,0,0,.3.3.5.4.1,0,.3.2.5.4,0,0,0-.1,0-.2,0,0,0-.2,0-.3-.3-.2-.6-.3-.9-.8-.1-.2-.2-.4-.2-.6,0,0-.1,0-.2,0,0,0,0,0,0,0,0,.1,0,.3,0,.4,0,.5.1.8.1.8,0,0-.3-.2-.4-.3s-.2-.2-.3-.3c-.1.1-.3.3-.5.4-.1,0-.2.1-.3.2,0,0,0,0,0,.1.1.6.5,1,.5,1,0,0-.4-.2-.7-.7,0,0-.1-.1-.2-.2-.2.2-.4.3-.4.3Z"/>
    <path class="st13" d="M31.7,412.5c0,.1,1.4.7,1.4.7,0,0,.3,0,.7.1,0,0-.1-.1-.2-.2-.3-.4-.5-1.1-.5-1.1,0,0,.3.2.7.5.4.2.7.3.7.3,0,0-.2-.3-.2-.4-.1-.3-.2-.7-.2-.7,0,0,.3.3.5.4.1,0,.3.2.5.4,0,0,0-.1,0-.2,0,0,0-.2,0-.3-.3-.2-.6-.3-.9-.8-.1-.2-.2-.4-.2-.6,0,0-.1,0-.2,0,0,0,0,0,0,0,0,.1,0,.3,0,.4,0,.5.1.8.1.8,0,0-.3-.2-.4-.3s-.2-.2-.3-.3c-.1.1-.3.3-.5.4-.1,0-.2.1-.3.2,0,0,0,0,0,.1.1.6.5,1,.5,1,0,0-.4-.2-.7-.7,0,0-.1-.1-.2-.2-.2.2-.4.3-.4.3Z"/>
    <path class="st53" d="M34.1,410.6c0-.2,0-.3,0-.3s-.1.1-.2.3c0,0,0,0,0,0,0,0,.1,0,.2,0Z"/>
    <path class="st68" d="M34.1,410.6c0-.2,0-.3,0-.3s-.1.1-.2.3c0,0,0,0,0,0,0,0,.1,0,.2,0Z"/>
    <path class="st50" d="M34.1,410.6c0-.2,0-.3,0-.3s-.1.1-.2.3c0,0,0,0,0,0,0,0,.1,0,.2,0Z"/>
    <path class="st40" d="M37.9,411.4c-.1.2,0,.4-.1.7,0,.2-.1.4,0,.4,0,0,.5,0,.5-.4,0-.3,0-.5,0-.6,0-.2.2-.4.1-.4,0,0-.4,0-.5.4Z"/>
    <path class="st1" d="M37.9,411.4c-.1.2,0,.4-.1.7,0,.2-.1.4,0,.4,0,0,.5,0,.5-.4,0-.3,0-.5,0-.6,0-.2.2-.4.1-.4,0,0-.4,0-.5.4Z"/>
    <path class="st72" d="M41,410.2c-.2.3-.2.5-.4.8-.1.1-.4.3-.4.4,0,0,.8.2,1.1,0,.2-.2.3-.5.4-.7.1-.5,0-1,0-1,0,0-.4,0-.7.6Z"/>
    <path class="st54" d="M35.9,413.7s0,0,0,0c.1,0,.2,0,.2,0,0,0,0-.1-.1-.3,0,0,0,0,0,0,0,.1,0,.2,0,.3Z"/>
    <path class="st65" d="M35.9,413.7s0,0,0,0c.1,0,.2,0,.2,0,0,0,0-.1-.1-.3,0,0,0,0,0,0,0,.1,0,.2,0,.3Z"/>
    <path class="st95" d="M33.8,413.3c.4.4.7.6.7.6,0,0,0,0,.2,0,0,0,0,0,0,0,0,0,.4-.3.5-.4-.1,0-.3,0-.4,0-.4,0-.8,0-1.1-.1Z"/>
    <path class="st70" d="M33.8,413.3c.4.4.7.6.7.6,0,0,0,0,.2,0,0,0,0,0,0,0,0,0,.4-.3.5-.4-.1,0-.3,0-.4,0-.4,0-.8,0-1.1-.1Z"/>
    <path class="st60" d="M36,413.4c0,0,0-.1,0-.2,0,0,0,.1,0,.2,0,0,0,0,0,0Z"/>
    <path class="st52" d="M36,413.4c0,0,0-.1,0-.2,0,0,0,.1,0,.2,0,0,0,0,0,0Z"/>
    <path class="st84" d="M36,413.4c0,0,0-.1,0-.2,0,0,0,.1,0,.2,0,0,0,0,0,0Z"/>
    <path class="st24" d="M34.2,411.6s0,.3.2.7c0,.1.2.4.2.4,0,0-.4,0-.7-.3-.4-.2-.6-.5-.7-.5,0,0,.2.7.5,1.1,0,0,.1.1.2.2.3,0,.7,0,1.1.1.1,0,.3,0,.4,0,0,0,0,0,0,0,0,0,0-.6,0-.9-.2-.2-.4-.3-.5-.4-.2-.2-.5-.5-.5-.4Z"/>
    <path class="st80" d="M34.2,411.6s0,.3.2.7c0,.1.2.4.2.4,0,0-.4,0-.7-.3-.4-.2-.6-.5-.7-.5,0,0,.2.7.5,1.1,0,0,.1.1.2.2.3,0,.7,0,1.1.1.1,0,.3,0,.4,0,0,0,0,0,0,0,0,0,0-.6,0-.9-.2-.2-.4-.3-.5-.4-.2-.2-.5-.5-.5-.4Z"/>
    <path class="st63" d="M34.2,411.6s0,.3.2.7c0,.1.2.4.2.4,0,0-.4,0-.7-.3-.4-.2-.6-.5-.7-.5,0,0,.2.7.5,1.1,0,0,.1.1.2.2.3,0,.7,0,1.1.1.1,0,.3,0,.4,0,0,0,0,0,0,0,0,0,0-.6,0-.9-.2-.2-.4-.3-.5-.4-.2-.2-.5-.5-.5-.4Z"/>
    <path class="st36" d="M37.4,413.9c-.1,0-.2,0-.3,0,0,0,.2,0,.3,0Z"/>
    <path class="st29" d="M38.5,413.8s.2-.2.4-.5c-.2,0-.4,0-.6.1-.4,0-1,0-1.5,0-.2,0-.3.2-.3.2,0,0,.2.2.6.3,0,0,.2,0,.3,0,0,0,0,0,0,0,.6,0,1.1,0,1.1,0Z"/>
    <path class="st33" d="M38.5,413.8s.2-.2.4-.5c-.2,0-.4,0-.6.1-.4,0-1,0-1.5,0-.2,0-.3.2-.3.2,0,0,.2.2.6.3,0,0,.2,0,.3,0,0,0,0,0,0,0,.6,0,1.1,0,1.1,0Z"/>
    <path class="st49" d="M37.5,413.9s0,0,0,0c0,0,0,0,0,0,0,0,0,0,0,0Z"/>
    <path class="st74" d="M37.5,413.9s0,0,0,0c0,0,0,0,0,0,0,0,0,0,0,0Z"/>
    <path class="st15" d="M37.5,413.9s0,0,0,0c0,0,0,0,0,0,0,0,0,0,0,0Z"/>
    <path class="st85" d="M38.3,413.5c.2,0,.4-.1.6-.1,0,0,0-.2.1-.3.1-.4.1-.7,0-.7s-.4.5-.8.7c-.4.2-.8.2-1.2.3,0,0-.2,0-.3,0,.4,0,1.1.1,1.5,0Z"/>
    <path class="st16" d="M38.3,413.5c.2,0,.4-.1.6-.1,0,0,0-.2.1-.3.1-.4.1-.7,0-.7s-.4.5-.8.7c-.4.2-.8.2-1.2.3,0,0-.2,0-.3,0,.4,0,1.1.1,1.5,0Z"/>
    <path class="st38" d="M38.3,413.5c.2,0,.4-.1.6-.1,0,0,0-.2.1-.3.1-.4.1-.7,0-.7s-.4.5-.8.7c-.4.2-.8.2-1.2.3,0,0-.2,0-.3,0,.4,0,1.1.1,1.5,0Z"/>
    <path class="st0" d="M35.3,403.3c0,0,0-.1,0-.2,0,0,0,0,0,0,0,0,0,0-.1,0,0,0-.2,0-.4.1-.1,0-.5.1-.6,0-.1,0-.1,0-.1,0,0,0,.3,0,.6-.1.2,0,.5-.2.5-.2,0,0,0,0,.1-.1,0,0,0-.1-.2-.2,0-.1-.2-.2-.2-.2,0,0,0,0,0,0,0,0-.4.2-.6.4-.1.1-.2.4-.1.4.1.1.5,0,.6.1s.4,0,.4,0c0,0,0,0,0,0,0,0,0,0,0-.2Z"/>
    <path class="st44" d="M35.2,403s-.3.1-.5.2c-.2,0-.6.1-.6.1,0,0,0,0,.1,0,.1,0,.4,0,.6,0,.2,0,.4-.1.4-.1,0,0,0,0,.1,0,0,0,0,0,0,0,0,0,0-.1,0-.2,0,0-.1-.1-.1,0,0,0,0,0,0,0,0,0,0,0-.1.1Z"/>
    <path class="st56" d="M36.2,402.7c0,0-.1.1-.2.2-.1,0-.3,0-.3,0,0,0,0,.4.4.3.3,0,.3-.4.2-.4Z"/>
    <path class="st44" d="M35.9,413.7c0-.1,0-.2,0-.3,0,0,0-.1,0-.2,0-.2,0-.5,0-.7,0,0,0-.1,0-.2,0-.6-.2-1.5-.2-1.5,0,0-.1,0-.3.1-.2,0-.3,0-.4,0,0,0,0,0,0,0h0s.1.6.2,1c0,.1,0,.2,0,.3,0,0,0,.1,0,.2,0,.4.1.9,0,.9,0,0,0,0,0,0,0,.1-.4.3-.5.4,0,0,0,0,0,0,0,0,0,0,0,0-.1,0-.3.2-.3.3,0,.1.5.2.9,0,.3-.1.6-.3.7-.4,0,0,0,0,0,0,0,0,0,0,0,0Z"/>
    <path class="st44" d="M36.7,411.6c0,0-.5,0-.6.2s0,.6,0,.7c0,.2.2.4.4.4.2,0,0-.6.1-.7s.6-.3.7-.4c0,0,0-.3,0-.4,0-.1-.4-.7-.4-.7,0,0-.1,0-.3.1,0,0,0,0-.1,0-.1,0-.2,0-.2,0,0,0,0,0,0,0,0,0,.3.6.3.6Z"/>
    <path class="st37" d="M34.9,405.2c-.2,0-.4,0-.5.1,0,0,.1,0,.2,0,.1-.1.3-.2.3-.2Z"/>
    <path class="st51" d="M33.7,406.3l.5,1.4c0-.6,0-1.5.2-2.1,0-.1,0-.2.2-.2,0,0-.1,0-.2,0-.4.2-.6.6-.7,1Z"/>
    <path class="st25" d="M33.7,406.3l.5,1.4c0-.6,0-1.5.2-2.1,0-.1,0-.2.2-.2,0,0-.1,0-.2,0-.4.2-.6.6-.7,1Z"/>
    <path class="st44" d="M33.7,406.3c0,.4,0,.8,0,1.1,0,.3.2.6.4.9,0-.1,0-.3,0-.6l-.5-1.4Z"/>
    <path class="st35" d="M33.7,406.3c0,.4,0,.8,0,1.1,0,.3.2.6.4.9,0-.1,0-.3,0-.6l-.5-1.4Z"/>
    <path class="st81" d="M33.7,406.3c0,.4,0,.8,0,1.1,0,.3.2.6.4.9,0-.1,0-.3,0-.6l-.5-1.4Z"/>
    <path class="st91" d="M34.9,405.5l-.4,3,.2.6c.2.3.4.6.5.6,0,0,.7-1,1.1-2.1.3-.8.2-2.3-1.2-2.3s0,0,0,0c0,0-.2,0-.3.2.1,0,.3,0,.3,0Z"/>
    <path class="st43" d="M34.9,405.5l-.4,3,.2.6c.2.3.4.6.5.6,0,0,.7-1,1.1-2.1.3-.8.2-2.3-1.2-2.3s0,0,0,0c0,0-.2,0-.3.2.1,0,.3,0,.3,0Z"/>
    <path class="st44" d="M34.5,408.7c0,.1.2.2.2.4l-.2-.6v.2Z"/>
    <path class="st2" d="M34.5,408.7c0,.1.2.2.2.4l-.2-.6v.2Z"/>
    <path class="st30" d="M34.5,408.7c0,.1.2.2.2.4l-.2-.6v.2Z"/>
    <path class="st27" d="M34.9,405.5s-.2,0-.3,0c0,0-.1.1-.2.2-.1.6-.2,1.4-.2,2.1l.3.8.4-3Z"/>
    <path class="st67" d="M34.9,405.5s-.2,0-.3,0c0,0-.1.1-.2.2-.1.6-.2,1.4-.2,2.1l.3.8.4-3Z"/>
    <path class="st22" d="M34.9,405.5s-.2,0-.3,0c0,0-.1.1-.2.2-.1.6-.2,1.4-.2,2.1l.3.8.4-3Z"/>
    <path class="st44" d="M34.2,407.7c0,.2,0,.4,0,.6,0,.1.2.3.3.4v-.2s-.2-.8-.2-.8Z"/>
    <path class="st21" d="M34.2,407.7c0,.2,0,.4,0,.6,0,.1.2.3.3.4v-.2s-.2-.8-.2-.8Z"/>
    <path class="st26" d="M34.2,407.7c0,.2,0,.4,0,.6,0,.1.2.3.3.4v-.2s-.2-.8-.2-.8Z"/>
    <path class="st83" d="M34.2,407.7c0,.2,0,.4,0,.6,0,.1.2.3.3.4v-.2s-.2-.8-.2-.8Z"/>
  </g>
</svg>