<svg width="121" height="42" viewBox="0 0 121 42" fill="none" xmlns="http://www.w3.org/2000/svg">
<g filter="url(#filter0_d_484_1308)">
<path d="M12 0.5H109C114.247 0.5 118.5 4.7533 118.5 10V28C118.5 33.2467 114.247 37.5 109 37.5H12C6.7533 37.5 2.5 33.2467 2.5 28V10C2.5 4.7533 6.7533 0.5 12 0.5Z" fill="url(#paint0_linear_484_1308)"/>
<path d="M12 0.5H109C114.247 0.5 118.5 4.7533 118.5 10V28C118.5 33.2467 114.247 37.5 109 37.5H12C6.7533 37.5 2.5 33.2467 2.5 28V10C2.5 4.7533 6.7533 0.5 12 0.5Z" stroke="#5CE1E6"/>
<path d="M73.5753 29.8577C74.0192 29.9308 75.1208 29.3083 76.8815 27.9888L77.3146 27.6315L77.3403 27.4745C77.3078 27.0225 77.389 26.197 77.5866 24.9965C77.7679 23.8922 78.155 21.4197 78.7491 17.5802C77.6488 16.775 76.5662 15.7573 75.4997 14.5298C74.8975 13.7882 74.5497 13.4092 74.4536 13.3944C73.3655 14.0372 72.7619 14.3485 72.6401 14.3295L72.6482 14.2767C72.6753 13.6745 72.6983 13.3213 72.7146 13.2157C72.8973 12.3171 73.0326 11.6066 73.1179 11.0856L73.2126 10.8338C73.1165 10.8176 72.1989 9.88244 70.4585 8.02565L70.3016 7.99994C70.219 8.50473 70.0539 9.61989 69.8062 11.3467C69.5274 12.8273 69.292 13.8247 69.1011 14.3376C68.867 14.2997 68.2079 13.7449 67.1239 12.6744C67.0887 12.669 67.0684 12.6838 67.063 12.7177C66.8695 13.9005 67.4866 15.1442 68.9144 16.4502L67.511 25.006C67.4839 25.1711 67.0414 25.5812 66.1847 26.2348L66.09 26.4866L66.0385 26.7992C66.1441 26.8614 66.8329 27.5638 68.1037 28.9063L68.1565 28.9145C69.8333 27.618 70.6778 26.9359 70.6886 26.8655L73.5726 29.8564L73.5753 29.8577ZM70.9809 25.0926L71.5114 21.8581C71.6928 20.7538 71.9174 19.2733 72.1868 17.4151C72.9 17.5315 74.0124 17.3935 75.5227 16.9983L75.5755 17.0064C75.3279 18.7333 75.1262 20.0758 74.9692 21.0313L74.8664 21.6579C74.7013 22.6661 74.455 24.0546 74.1302 25.8234C73.2654 26.4676 72.7335 26.7735 72.5332 26.7396L72.429 26.722C72.1949 26.6842 71.7117 26.1401 70.9823 25.0913L70.9809 25.0926Z" fill="#E9EEF7"/>
<path d="M50.3114 27.0022C50.3222 27.0712 51.1667 27.7547 52.8435 29.0512L52.8962 29.0431C54.167 27.7005 54.8559 26.9982 54.9614 26.9359L54.91 26.6233L54.8153 26.3716C53.9586 25.7179 53.5161 25.3078 53.489 25.1427L52.0856 16.5869C53.5134 15.2809 54.1318 14.0372 53.937 12.8544C53.9315 12.8192 53.9112 12.8057 53.8761 12.8111C52.7934 13.8816 52.1343 14.4365 51.8988 14.4744C51.708 13.9614 51.4725 12.964 51.1937 11.4835C50.9461 9.75661 50.781 8.6401 50.6984 8.13666L50.5414 8.16237C48.801 10.0192 47.8835 10.9557 47.7874 10.9706L47.8821 11.2223C47.9674 11.7433 48.1014 12.4538 48.2854 13.3524C48.303 13.4566 48.3247 13.8099 48.3517 14.4134L48.3598 14.4662C48.238 14.4865 47.6331 14.1753 46.5464 13.5311C46.4503 13.5473 46.1025 13.9249 45.5002 14.6665C44.4338 15.8954 43.3511 16.9117 42.2509 17.717C42.845 21.5564 43.2334 24.0289 43.4134 25.1333C43.6096 26.3337 43.6922 27.1592 43.6597 27.6112L43.6854 27.7682L44.1185 28.1255C45.8792 29.4436 46.9821 30.0662 47.4247 29.9945L50.3087 27.0036L50.3114 27.0022ZM48.5723 26.8588L48.4681 26.8764C48.2678 26.9088 47.736 26.6043 46.8712 25.9602C46.545 24.1927 46.3001 22.8042 46.135 21.7946L46.0321 21.168C45.8751 20.2112 45.6735 18.87 45.4258 17.1431L45.4786 17.135C46.9903 17.5302 48.1014 17.6696 48.8146 17.5518C49.0839 19.41 49.3085 20.8905 49.4899 21.9949L50.0204 25.2293C49.2909 26.2782 48.8078 26.8209 48.5737 26.8601L48.5723 26.8588Z" fill="#E9EEF7"/>
<path d="M60.7876 10.1274C59.7212 10.6647 57.8888 11.8109 55.2903 13.5635H55.1848V13.6691C55.1848 13.8978 55.4487 14.1982 55.9778 14.5677C55.9778 14.6029 55.9954 14.6557 56.0306 14.726C55.9954 18.3909 55.9602 20.8404 55.9251 22.0747C55.3783 22.551 54.9033 22.7974 54.4973 22.8149H54.0209L53.9153 22.7622V23.2385C54.5853 24.0316 55.1848 24.508 55.7126 24.6663C56.2323 25.3362 56.6383 25.6705 56.9279 25.6705C57.0862 25.6705 57.8793 25.0886 59.3071 23.926C59.6427 23.926 60.3464 24.4024 61.421 25.3538C61.8351 25.6353 62.1166 25.7761 62.2668 25.7761H62.8488C62.9814 25.7761 63.562 25.4066 64.5932 24.6663C65.3781 24.2522 65.9939 23.9883 66.4432 23.8733V23.7677C66.4432 23.5742 66.2321 23.2913 65.8085 22.9219C65.7029 22.1559 65.6326 21.0096 65.5974 19.4857L65.7557 13.301C65.324 13.0276 64.3198 12.4998 62.7418 11.7148C61.808 10.9922 61.1733 10.4644 60.839 10.1287H60.7863L60.7876 10.1274ZM62.4265 13.458L62.3209 22.0747C61.2545 22.8149 60.6387 23.1844 60.4709 23.1844C59.7049 22.727 59.2813 22.4969 59.2015 22.4969V15.3607C59.9946 14.5948 60.858 13.9249 61.7918 13.3524L61.9501 13.194L62.4265 13.458Z" fill="#E9EEF7"/>
</g>
<defs>
<filter id="filter0_d_484_1308" x="0" y="0" width="121" height="42" filterUnits="userSpaceOnUse" color-interpolation-filters="sRGB">
<feFlood flood-opacity="0" result="BackgroundImageFix"/>
<feColorMatrix in="SourceAlpha" type="matrix" values="0 0 0 0 0 0 0 0 0 0 0 0 0 0 0 0 0 0 127 0" result="hardAlpha"/>
<feOffset dy="2"/>
<feGaussianBlur stdDeviation="1"/>
<feComposite in2="hardAlpha" operator="out"/>
<feColorMatrix type="matrix" values="0 0 0 0 0 0 0 0 0 0 0 0 0 0 0 0 0 0 0.4 0"/>
<feBlend mode="normal" in2="BackgroundImageFix" result="effect1_dropShadow_484_1308"/>
<feBlend mode="normal" in="SourceGraphic" in2="effect1_dropShadow_484_1308" result="shape"/>
</filter>
<linearGradient id="paint0_linear_484_1308" x1="119.5" y1="38" x2="33.3486" y2="73.9422" gradientUnits="userSpaceOnUse">
<stop stop-color="#5CE1E6"/>
<stop offset="0.927885" stop-color="#E68FFF"/>
</linearGradient>
</defs>
</svg>
