<svg width="117" height="38" viewBox="0 0 117 38" fill="none" xmlns="http://www.w3.org/2000/svg">
<path d="M10 0.5H107C112.247 0.5 116.5 4.7533 116.5 10V28C116.5 33.2467 112.247 37.5 107 37.5H10C4.7533 37.5 0.5 33.2467 0.5 28V10C0.5 4.7533 4.7533 0.5 10 0.5Z" fill="url(#paint0_linear_476_13448)"/>
<path d="M10 0.5H107C112.247 0.5 116.5 4.7533 116.5 10V28C116.5 33.2467 112.247 37.5 107 37.5H10C4.7533 37.5 0.5 33.2467 0.5 28V10C0.5 4.7533 4.7533 0.5 10 0.5Z" stroke="#5CE1E6"/>
<path d="M71.5753 29.8577C72.0192 29.9308 73.1208 29.3083 74.8815 27.9888L75.3146 27.6315L75.3403 27.4745C75.3078 27.0225 75.389 26.197 75.5866 24.9965C75.7679 23.8922 76.155 21.4197 76.7491 17.5802C75.6488 16.775 74.5662 15.7573 73.4997 14.5298C72.8975 13.7882 72.5497 13.4092 72.4536 13.3944C71.3655 14.0372 70.7619 14.3485 70.6401 14.3295L70.6482 14.2767C70.6753 13.6745 70.6983 13.3213 70.7146 13.2157C70.8973 12.3171 71.0326 11.6066 71.1179 11.0856L71.2126 10.8338C71.1165 10.8176 70.1989 9.88244 68.4585 8.02565L68.3016 7.99994C68.219 8.50473 68.0539 9.61989 67.8062 11.3467C67.5274 12.8273 67.292 13.8247 67.1011 14.3376C66.867 14.2997 66.2079 13.7449 65.1239 12.6744C65.0887 12.669 65.0684 12.6838 65.063 12.7177C64.8695 13.9005 65.4866 15.1442 66.9144 16.4502L65.511 25.006C65.4839 25.1711 65.0414 25.5812 64.1847 26.2348L64.09 26.4866L64.0385 26.7992C64.1441 26.8614 64.8329 27.5638 66.1037 28.9063L66.1565 28.9145C67.8333 27.618 68.6778 26.9359 68.6886 26.8655L71.5726 29.8564L71.5753 29.8577ZM68.9809 25.0926L69.5114 21.8581C69.6928 20.7538 69.9174 19.2733 70.1868 17.4151C70.9 17.5315 72.0124 17.3935 73.5227 16.9983L73.5755 17.0064C73.3279 18.7333 73.1262 20.0758 72.9692 21.0313L72.8664 21.6579C72.7013 22.6661 72.455 24.0546 72.1302 25.8234C71.2654 26.4676 70.7335 26.7735 70.5332 26.7396L70.429 26.722C70.1949 26.6842 69.7117 26.1401 68.9823 25.0913L68.9809 25.0926Z" fill="#0C0E12"/>
<path d="M48.3114 27.0022C48.3222 27.0712 49.1667 27.7547 50.8435 29.0512L50.8962 29.0431C52.167 27.7005 52.8559 26.9982 52.9614 26.9359L52.91 26.6233L52.8153 26.3716C51.9586 25.7179 51.5161 25.3078 51.489 25.1427L50.0856 16.5869C51.5134 15.2809 52.1318 14.0372 51.937 12.8544C51.9315 12.8192 51.9112 12.8057 51.8761 12.8111C50.7934 13.8816 50.1343 14.4365 49.8988 14.4744C49.708 13.9614 49.4725 12.964 49.1937 11.4835C48.9461 9.75661 48.781 8.6401 48.6984 8.13666L48.5414 8.16237C46.801 10.0192 45.8835 10.9557 45.7874 10.9706L45.8821 11.2223C45.9674 11.7433 46.1014 12.4538 46.2854 13.3524C46.303 13.4566 46.3247 13.8099 46.3517 14.4134L46.3598 14.4662C46.238 14.4865 45.6331 14.1753 44.5464 13.5311C44.4503 13.5473 44.1025 13.9249 43.5002 14.6665C42.4338 15.8954 41.3511 16.9117 40.2509 17.717C40.845 21.5564 41.2334 24.0289 41.4134 25.1333C41.6096 26.3337 41.6922 27.1592 41.6597 27.6112L41.6854 27.7682L42.1185 28.1255C43.8792 29.4436 44.9821 30.0662 45.4247 29.9945L48.3087 27.0036L48.3114 27.0022ZM46.5723 26.8588L46.4681 26.8764C46.2678 26.9088 45.736 26.6043 44.8712 25.9602C44.545 24.1927 44.3001 22.8042 44.135 21.7946L44.0321 21.168C43.8751 20.2112 43.6735 18.87 43.4258 17.1431L43.4786 17.135C44.9903 17.5302 46.1014 17.6696 46.8146 17.5518C47.0839 19.41 47.3085 20.8905 47.4899 21.9949L48.0204 25.2293C47.2909 26.2782 46.8078 26.8209 46.5737 26.8601L46.5723 26.8588Z" fill="#0C0E12"/>
<path d="M58.7876 10.1274C57.7212 10.6647 55.8888 11.8109 53.2903 13.5635H53.1848V13.6691C53.1848 13.8978 53.4487 14.1982 53.9778 14.5677C53.9778 14.6029 53.9954 14.6557 54.0306 14.726C53.9954 18.3909 53.9602 20.8404 53.9251 22.0747C53.3783 22.551 52.9033 22.7974 52.4973 22.8149H52.0209L51.9153 22.7622V23.2385C52.5853 24.0316 53.1848 24.508 53.7126 24.6663C54.2323 25.3362 54.6383 25.6705 54.9279 25.6705C55.0862 25.6705 55.8793 25.0886 57.3071 23.926C57.6427 23.926 58.3464 24.4024 59.421 25.3538C59.8351 25.6353 60.1166 25.7761 60.2668 25.7761H60.8488C60.9814 25.7761 61.562 25.4066 62.5932 24.6663C63.3781 24.2522 63.9939 23.9883 64.4432 23.8733V23.7677C64.4432 23.5742 64.2321 23.2913 63.8085 22.9219C63.7029 22.1559 63.6326 21.0096 63.5974 19.4857L63.7557 13.301C63.324 13.0276 62.3198 12.4998 60.7418 11.7148C59.808 10.9922 59.1733 10.4644 58.839 10.1287H58.7863L58.7876 10.1274ZM60.4265 13.458L60.3209 22.0747C59.2545 22.8149 58.6387 23.1844 58.4709 23.1844C57.7049 22.727 57.2813 22.4969 57.2015 22.4969V15.3607C57.9946 14.5948 58.858 13.9249 59.7918 13.3524L59.9501 13.194L60.4265 13.458Z" fill="#0C0E12"/>
<defs>
<linearGradient id="paint0_linear_476_13448" x1="117.5" y1="38" x2="31.3486" y2="73.9422" gradientUnits="userSpaceOnUse">
<stop stop-color="#E68FFF"/>
<stop offset="1" stop-color="#5CE1E6"/>
</linearGradient>
</defs>
</svg>
