<svg width="44" height="44" viewBox="0 0 44 44" fill="none" xmlns="http://www.w3.org/2000/svg">
<path d="M25.6094 32.3906C25.8672 32.6484 26.1953 32.7891 26.582 32.7891C27.3555 32.7891 27.9766 32.1797 27.9766 31.4062C27.9766 31.0195 27.8125 30.668 27.543 30.3984L19.3398 22.3828L27.543 14.3906C27.8125 14.1211 27.9766 13.7578 27.9766 13.3828C27.9766 12.6094 27.3555 12 26.582 12C26.1953 12 25.8672 12.1406 25.6094 12.3984L16.4922 21.3047C16.1641 21.6094 16.0117 21.9844 16 22.3945C16 22.8047 16.1641 23.1562 16.4922 23.4727L25.6094 32.3906Z" fill="#e9eef7"/>
</svg>
