<svg width="28" height="8" viewBox="0 0 28 8" fill="none" xmlns="http://www.w3.org/2000/svg">
<path fill-rule="evenodd" clip-rule="evenodd" d="M23.9878 0C26.1263 0 27.86 1.78383 27.86 3.983C27.86 6.18217 26.1263 7.96483 23.9878 7.96483C21.8505 7.96483 20.1168 6.18217 20.1168 3.983C20.1168 1.78383 21.8505 0 23.9878 0ZM13.9218 0C16.0603 0 17.794 1.78383 17.794 3.983C17.794 6.18217 16.0603 7.96483 13.9218 7.96483C11.7845 7.96483 10.0508 6.18217 10.0508 3.983C10.0508 1.78383 11.7845 0 13.9218 0ZM3.85582 0C5.99432 0 7.72799 1.78383 7.72799 3.983C7.72799 6.18217 5.99432 7.96483 3.85582 7.96483C1.71732 7.96483 -0.01518 6.18217 -0.01518 3.983C-0.01518 1.78383 1.71732 0 3.85582 0Z" fill="#e9eef7"/>
</svg>
