<svg width="26" height="26" viewBox="0 0 26 26" fill="none" xmlns="http://www.w3.org/2000/svg">
<path d="M23.8333 8.6667V13M11.1041 5.95836H7.36663C5.54645 5.95836 4.63637 5.95836 3.94115 6.31259C3.32963 6.62418 2.83244 7.12136 2.52085 7.73289C2.16662 8.42811 2.16662 9.33819 2.16663 11.1584L2.16663 12.4584C2.16663 13.4679 2.16663 13.9727 2.33156 14.3708C2.55146 14.9017 2.97325 15.3235 3.50415 15.5434C3.90232 15.7084 4.40709 15.7084 5.41663 15.7084V20.3125C5.41663 20.564 5.41663 20.6898 5.42706 20.7957C5.52838 21.8244 6.34224 22.6383 7.37092 22.7396C7.47685 22.75 7.60261 22.75 7.85413 22.75C8.10565 22.75 8.2314 22.75 8.33733 22.7396C9.36602 22.6383 10.1799 21.8244 10.2812 20.7957C10.2916 20.6898 10.2916 20.564 10.2916 20.3125V15.7084H11.1041C13.0178 15.7084 15.3586 16.7342 17.1646 17.7186C18.2182 18.293 18.745 18.5801 19.09 18.5379C19.4099 18.4987 19.6518 18.355 19.8394 18.0929C20.0416 17.8102 20.0416 17.2445 20.0416 16.1132V5.5535C20.0416 4.42219 20.0416 3.85653 19.8394 3.57382C19.6518 3.31167 19.4099 3.16802 19.09 3.12883C18.745 3.08657 18.2182 3.37374 17.1646 3.94808C15.3586 4.93256 13.0178 5.95836 11.1041 5.95836Z" stroke="#E9EEF7" stroke-width="2" stroke-linecap="round" stroke-linejoin="round"/>
</svg>
