<svg width="26" height="26" viewBox="0 0 26 26" fill="none" xmlns="http://www.w3.org/2000/svg">
<path d="M8.66663 15.1667C8.66663 15.1667 10.2916 17.3334 13 17.3334C15.7083 17.3334 17.3333 15.1667 17.3333 15.1667M18.4166 10.01C17.9887 10.5354 17.4037 10.8334 16.7916 10.8334C16.1795 10.8334 15.6108 10.5354 15.1666 10.01M10.8333 10.01C10.4054 10.5354 9.82038 10.8334 9.20829 10.8334C8.59621 10.8334 8.02746 10.5354 7.58329 10.01M23.8333 13C23.8333 18.9831 18.983 23.8334 13 23.8334C7.01687 23.8334 2.16663 18.9831 2.16663 13C2.16663 7.01694 7.01687 2.16669 13 2.16669C18.983 2.16669 23.8333 7.01694 23.8333 13Z" stroke="#1F2633" stroke-width="2" stroke-linecap="round" stroke-linejoin="round"/>
</svg>
