<svg width="24" height="16" viewBox="0 0 24 16" fill="none" xmlns="http://www.w3.org/2000/svg">
<rect width="16" height="16" rx="8" fill="#5CE1E6"/>
<g clip-path="url(#clip0_733_2554)">
<path fill-rule="evenodd" clip-rule="evenodd" d="M5.74005 9.2065L8.61005 5.0485C8.6343 5.0135 8.6654 4.98378 8.70146 4.96114C8.73753 4.9385 8.77781 4.9234 8.81987 4.91677C8.86193 4.91013 8.9049 4.91209 8.94618 4.92253C8.98746 4.93297 9.0262 4.95167 9.06005 4.9775L9.51855 5.326C9.65605 5.431 9.68355 5.626 9.58105 5.764L6.01005 10.5765C5.98358 10.6123 5.94984 10.642 5.91104 10.6638C5.87225 10.6855 5.82929 10.6988 5.78498 10.7028C5.74067 10.7068 5.69603 10.7013 5.65398 10.6868C5.61194 10.6723 5.57345 10.649 5.54105 10.6185L5.51755 10.5965C5.4916 10.5816 5.4673 10.564 5.44505 10.544L3.40905 8.7175C3.32733 8.64407 3.27764 8.54154 3.27063 8.4319C3.26362 8.32226 3.29985 8.21424 3.37155 8.131L3.63355 7.825C3.67059 7.78183 3.71602 7.74663 3.76707 7.72155C3.81812 7.69646 3.87374 7.682 3.93055 7.67906C3.98736 7.67611 4.04417 7.68474 4.09755 7.70441C4.15092 7.72408 4.19974 7.75439 4.24105 7.7935L5.73905 9.2065H5.74005ZM8.91655 9.52L11.79 5.3565C11.8143 5.32146 11.8453 5.2917 11.8814 5.26901C11.9174 5.24632 11.9577 5.23118 11.9998 5.22449C12.0418 5.21781 12.0848 5.21973 12.1261 5.23013C12.1674 5.24053 12.2062 5.25919 12.24 5.285L12.6985 5.634C12.836 5.7385 12.8635 5.934 12.761 6.0725L9.18905 10.8835C9.16254 10.9192 9.12877 10.9489 9.08996 10.9706C9.05115 10.9924 9.00817 11.0056 8.96387 11.0095C8.91956 11.0135 8.87493 11.008 8.8329 10.9934C8.79088 10.9788 8.75242 10.9555 8.72005 10.925L8.70855 10.9135C8.6691 10.8963 8.6325 10.8732 8.60005 10.845L7.60005 9.976C7.51614 9.90325 7.46445 9.80024 7.4563 9.68948C7.44815 9.57872 7.48419 9.46925 7.55655 9.385L7.81505 9.085C7.85201 9.04191 7.89733 9.00677 7.94825 8.98168C7.99918 8.9566 8.05466 8.9421 8.11135 8.93907C8.16804 8.93603 8.22475 8.94451 8.27807 8.96401C8.33138 8.98351 8.38019 9.01361 8.42155 9.0525L8.91605 9.519L8.91655 9.52Z" fill="#E9EEF7"/>
</g>
<g clip-path="url(#clip1_733_2554)">
<path d="M22.3333 4.33334H20.3333V6.33334H19.6666V4.33334H17.6666V3.66667H19.6666V1.66667H20.3333V3.66667H22.3333V4.33334Z" fill="#5CE1E6" stroke="#5CE1E6" stroke-width="0.666667"/>
</g>
<defs>
<clipPath id="clip0_733_2554">
<rect width="12" height="12" fill="white" transform="translate(2 2)"/>
</clipPath>
<clipPath id="clip1_733_2554">
<rect width="8" height="8" fill="white" transform="translate(16)"/>
</clipPath>
</defs>
</svg>
