<svg width="26" height="26" viewBox="0 0 26 26" fill="none" xmlns="http://www.w3.org/2000/svg">
<path d="M10.8333 16.25L7.50176 19.6232C7.03706 20.0937 6.80471 20.329 6.60499 20.3456C6.43172 20.3599 6.26208 20.2903 6.14891 20.1583C6.01848 20.0062 6.01848 19.6755 6.01848 19.0142V17.3243C6.01848 16.731 5.53262 16.3017 4.9456 16.2157C3.52485 16.0076 2.40905 14.8918 2.20094 13.471C2.16663 13.2368 2.16663 12.9572 2.16663 12.3982V7.36669C2.16663 5.54652 2.16663 4.63643 2.52085 3.94122C2.83244 3.32969 3.32963 2.8325 3.94116 2.52092C4.63637 2.16669 5.54646 2.16669 7.36663 2.16669H15.3833C17.2035 2.16669 18.1135 2.16669 18.8088 2.52092C19.4203 2.8325 19.9175 3.32969 20.2291 3.94122C20.5833 4.63643 20.5833 5.54652 20.5833 7.36669V11.9167M20.5833 23.8334L18.2255 22.1941C17.8941 21.9637 17.7284 21.8485 17.548 21.7668C17.3879 21.6943 17.2196 21.6416 17.0468 21.6097C16.8521 21.5738 16.6503 21.5738 16.2466 21.5738H14.3C13.0865 21.5738 12.4798 21.5738 12.0163 21.3377C11.6086 21.13 11.2772 20.7985 11.0694 20.3908C10.8333 19.9273 10.8333 19.3206 10.8333 18.1072V15.3834C10.8333 14.1699 10.8333 13.5632 11.0694 13.0997C11.2772 12.692 11.6086 12.3606 12.0163 12.1528C12.4798 11.9167 13.0865 11.9167 14.3 11.9167H20.3666C21.5801 11.9167 22.1868 11.9167 22.6503 12.1528C23.058 12.3606 23.3894 12.692 23.5971 13.0997C23.8333 13.5632 23.8333 14.1699 23.8333 15.3834V18.3238C23.8333 19.3334 23.8333 19.8381 23.6684 20.2363C23.4485 20.7672 23.0267 21.189 22.4958 21.4089C22.0976 21.5738 21.5928 21.5738 20.5833 21.5738V23.8334Z" stroke="#1F2633" stroke-width="2" stroke-linecap="round" stroke-linejoin="round"/>
</svg>
