<?xml version="1.0" encoding="UTF-8"?>
<svg id="Layer_1" xmlns="http://www.w3.org/2000/svg" version="1.1" xmlns:xlink="http://www.w3.org/1999/xlink" viewBox="0 0 24 24">
  <!-- Generator: Adobe Illustrator 29.8.4, SVG Export Plug-In . SVG Version: 2.1.1 Build 6)  -->
  <defs>
    <style>
      .st0 {
        fill: none;
      }

      .st1 {
        fill: #5ce1e6;
      }

      .st2 {
        clip-path: url(#clippath);
      }
    </style>
    <clipPath id="clippath">
      <rect class="st0" x="-1.3" y="-1" width="26" height="26"/>
    </clipPath>
  </defs>
  <g class="st2">
    <path class="st1" d="M10.7,23.9c-.1,0-.3,0-.4,0-.4-.2-.6-.6-.6-1l.9-7.5H3.8c-.7,0-1.2,0-1.7-.3-.4-.3-.6-.7-.6-1.2,0-.5.3-.9.8-1.5L12.1.5c.3-.3.8-.5,1.2-.3.4.2.6.6.6,1l-.9,7.5h6.8c.8,0,1.2,0,1.7.3.4.3.6.8.6,1.2,0,.5-.3.9-.8,1.5l-9.6,11.6c-.2.2-.5.4-.8.4ZM4.1,13.2h7.6c.3,0,.6.1.7.3.2.2.3.5.2.8l-.7,5.3,7.3-8.7h-7.6c-.3,0-.6-.1-.7-.3-.2-.2-.3-.5-.2-.8l.7-5.3-7.3,8.7ZM20.3,10.9h0Z"/>
  </g>
</svg>