<?xml version="1.0" encoding="UTF-8"?>
<svg id="Layer_2" xmlns="http://www.w3.org/2000/svg" version="1.1" xmlns:xlink="http://www.w3.org/1999/xlink" viewBox="0 0 128 128">
  <!-- Generator: Adobe Illustrator 29.8.3, SVG Export Plug-In . SVG Version: 2.1.1 Build 3)  -->
  <defs>
    <style>
      .st0 {
        fill: #fbb67d;
      }

      .st1 {
        fill: url(#linear-gradient2);
      }

      .st2 {
        fill: #dc0d27;
      }

      .st3 {
        fill: url(#radial-gradient10);
      }

      .st4 {
        fill: url(#linear-gradient1);
      }

      .st5 {
        fill: url(#linear-gradient9);
      }

      .st6 {
        fill: url(#radial-gradient11);
      }

      .st7 {
        fill: url(#linear-gradient8);
      }

      .st8 {
        fill: url(#radial-gradient);
      }

      .st9 {
        fill: #af0c1a;
      }

      .st10 {
        fill: url(#radial-gradient19);
      }

      .st11 {
        fill: url(#radial-gradient5);
      }

      .st12 {
        fill: url(#radial-gradient1);
      }

      .st13 {
        fill: #8a1e0d;
      }

      .st14 {
        fill: #c30b1b;
      }

      .st15 {
        fill: url(#radial-gradient7);
      }

      .st16 {
        fill: url(#radial-gradient18);
      }

      .st17 {
        fill: url(#radial-gradient14);
      }

      .st18 {
        fill: url(#linear-gradient7);
      }

      .st19 {
        fill: url(#radial-gradient13);
      }

      .st20 {
        fill: url(#linear-gradient4);
      }

      .st21 {
        fill: url(#linear-gradient5);
      }

      .st22 {
        fill: url(#radial-gradient8);
      }

      .st23 {
        fill: url(#linear-gradient3);
      }

      .st24 {
        fill: url(#radial-gradient12);
      }

      .st25 {
        fill: url(#radial-gradient17);
      }

      .st26 {
        fill: url(#radial-gradient6);
      }

      .st27 {
        fill: url(#radial-gradient2);
      }

      .st28 {
        fill: url(#radial-gradient15);
      }

      .st29 {
        fill: url(#linear-gradient6);
      }

      .st30 {
        fill: url(#radial-gradient4);
      }

      .st31 {
        fill: url(#radial-gradient3);
      }

      .st32 {
        fill: url(#radial-gradient9);
      }

      .st33 {
        fill: url(#linear-gradient);
      }

      .st34 {
        fill: url(#radial-gradient16);
      }
    </style>
    <radialGradient id="radial-gradient" cx="65.5" cy="756.8" fx="65.5" fy="756.8" r="39.9" gradientTransform="translate(0 -670)" gradientUnits="userSpaceOnUse">
      <stop offset=".3" stop-color="#e03623"/>
      <stop offset=".7" stop-color="#ff6614"/>
    </radialGradient>
    <radialGradient id="radial-gradient1" cx="52.1" cy="761.4" fx="52.1" fy="761.4" r="87.1" gradientTransform="translate(0 -670)" gradientUnits="userSpaceOnUse">
      <stop offset="0" stop-color="#fe7f07"/>
      <stop offset=".8" stop-color="#dc2b25"/>
    </radialGradient>
    <radialGradient id="radial-gradient2" cx="41.4" cy="629.2" fx="41.4" fy="629.2" r="55.6" gradientTransform="translate(1.6 -687.1) rotate(-1.5) scale(1 1.2)" gradientUnits="userSpaceOnUse">
      <stop offset=".2" stop-color="#fe7f07"/>
      <stop offset=".4" stop-color="#f8700c"/>
      <stop offset=".7" stop-color="#e8491a"/>
      <stop offset=".9" stop-color="#dc2b25"/>
    </radialGradient>
    <radialGradient id="radial-gradient3" r="55.6" xlink:href="#radial-gradient2"/>
    <radialGradient id="radial-gradient4" r="55.6" xlink:href="#radial-gradient2"/>
    <radialGradient id="radial-gradient5" r="55.6" xlink:href="#radial-gradient2"/>
    <radialGradient id="radial-gradient6" r="55.6" xlink:href="#radial-gradient2"/>
    <radialGradient id="radial-gradient7" r="55.6" xlink:href="#radial-gradient2"/>
    <radialGradient id="radial-gradient8" r="55.6" xlink:href="#radial-gradient2"/>
    <radialGradient id="radial-gradient9" r="55.6" xlink:href="#radial-gradient2"/>
    <radialGradient id="radial-gradient10" r="55.6" xlink:href="#radial-gradient2"/>
    <radialGradient id="radial-gradient11" r="55.6" xlink:href="#radial-gradient2"/>
    <radialGradient id="radial-gradient12" cx="-406.6" cy="-703.4" fx="-406.6" fy="-703.4" r="36.1" gradientTransform="translate(-1317.2 432.4) rotate(92.5) scale(1 1.9)" gradientUnits="userSpaceOnUse">
      <stop offset=".5" stop-color="#ffd84e"/>
      <stop offset=".7" stop-color="#ffd64b"/>
      <stop offset=".8" stop-color="#ffce42"/>
      <stop offset=".9" stop-color="#ffc132"/>
      <stop offset=".9" stop-color="#feaf1c"/>
      <stop offset="1" stop-color="#fea611"/>
    </radialGradient>
    <radialGradient id="radial-gradient13" r="55.6" xlink:href="#radial-gradient2"/>
    <linearGradient id="linear-gradient" x1="74.7" y1="783.4" x2="78.1" y2="775.8" gradientTransform="translate(0 -670)" gradientUnits="userSpaceOnUse">
      <stop offset="0" stop-color="#fea611"/>
      <stop offset=".1" stop-color="#feae1b"/>
      <stop offset=".5" stop-color="#ffc537"/>
      <stop offset=".8" stop-color="#ffd348"/>
      <stop offset="1" stop-color="#ffd84e"/>
    </linearGradient>
    <linearGradient id="linear-gradient1" x1="93.6" y1="779.6" x2="101.9" y2="766.6" gradientTransform="translate(0 -670)" gradientUnits="userSpaceOnUse">
      <stop offset="0" stop-color="#fea611"/>
      <stop offset="1" stop-color="#ffd84e"/>
    </linearGradient>
    <linearGradient id="linear-gradient2" x1="63.9" y1="791.6" x2="55.2" y2="773.4" gradientTransform="translate(0 -670)" gradientUnits="userSpaceOnUse">
      <stop offset="0" stop-color="#feca4c"/>
      <stop offset=".2" stop-color="#fed55f"/>
      <stop offset=".4" stop-color="#ffdf71"/>
      <stop offset=".6" stop-color="#ffe57c"/>
      <stop offset=".8" stop-color="#ffe780"/>
    </linearGradient>
    <linearGradient id="linear-gradient3" x1="55.6" y1="795.6" x2="46.9" y2="777.4" xlink:href="#linear-gradient2"/>
    <linearGradient id="linear-gradient4" x1="64.5" y1="791.3" x2="55.8" y2="773.1" xlink:href="#linear-gradient2"/>
    <linearGradient id="linear-gradient5" x1="56.3" y1="795.2" x2="47.6" y2="777.1" xlink:href="#linear-gradient2"/>
    <linearGradient id="linear-gradient6" x1="70.2" y1="793.3" x2="82.6" y2="779.9" gradientTransform="translate(0 -670)" gradientUnits="userSpaceOnUse">
      <stop offset=".2" stop-color="#feca4c"/>
      <stop offset=".3" stop-color="#fed55f"/>
      <stop offset=".5" stop-color="#ffdf72"/>
      <stop offset=".6" stop-color="#ffe57c"/>
      <stop offset=".8" stop-color="#ffe780"/>
    </linearGradient>
    <linearGradient id="linear-gradient7" x1="70.7" y1="793.8" x2="83.1" y2="780.3" xlink:href="#linear-gradient6"/>
    <linearGradient id="linear-gradient8" x1="71.1" y1="794.2" x2="83.5" y2="780.7" xlink:href="#linear-gradient6"/>
    <linearGradient id="linear-gradient9" x1="70.9" y1="794" x2="83.3" y2="780.5" xlink:href="#linear-gradient6"/>
    <radialGradient id="radial-gradient14" cx="55.2" cy="727.9" fx="55.2" fy="727.9" r="25.7" gradientTransform="translate(0 -670)" gradientUnits="userSpaceOnUse">
      <stop offset=".2" stop-color="#ffb800"/>
      <stop offset="1" stop-color="#ff9a02"/>
    </radialGradient>
    <radialGradient id="radial-gradient15" r="25.7" xlink:href="#radial-gradient14"/>
    <radialGradient id="radial-gradient16" r="55.6" xlink:href="#radial-gradient2"/>
    <radialGradient id="radial-gradient17" r="55.6" xlink:href="#radial-gradient2"/>
    <radialGradient id="radial-gradient18" r="55.6" xlink:href="#radial-gradient2"/>
    <radialGradient id="radial-gradient19" r="55.6" xlink:href="#radial-gradient2"/>
  </defs>
  <path class="st14" d="M71.7,25.7c1.1,1,1.7,3.1.9,5.2,0,.3-.2.5-.3.7.2-.1.4-.3.6-.5.6-.6,1.1-1.4,1.6-2.2-.2-1.2-.7-2.7-2.1-3.6-1.4-.9-2.7-.6-3.1-.3.5-.2,1.7,0,2.4.7Z"/>
  <path class="st9" d="M104.1,19.6c1.9,8.7.5,10.5,1.7,10.9.6.2,1.1-.7,1.5-1.7-.1-1.5-.9-10.5-3.9-15-3.3-4.9-7.3-6.5-8.4-6.5s-1.2,1-1.2,1h.1c0,.1,0,0,0,0,0-.7,8.3,2.6,10.2,11.3Z"/>
  <path class="st9" d="M108,25.6v.2c0-.2.1-.3.2-.4-.1.1-.2.2-.2.2Z"/>
  <path class="st9" d="M84.7,3.4c1.2.5,3.7,1.7,5.9,5.4,2.2,3.6,3.3,6.6,4.1,6.6.5,0,.8-.6.9-1.3,0,0,0,0,0,0-1.1-.4-2.4-4.7-4.6-7.3-2.2-2.6-4.6-4.2-6.7-4.1-.6,0-.8.3-1,.6.2-.3,1-.1,1.5,0Z"/>
  <path class="st9" d="M118.7,43.5c-1.1-15-8.7-18.8-9.4-18.8s-.8.3-1,.6c0,0,.1,0,.2,0,.5,0,7.5,6,8.5,17.2,1.6,18-14,25.8-14,25.8,0,0,0,10.7-11.9,14.5-11.9,3.8-23.1-3.7-23.5-3.9-.4-.2-1-.5-1.2-.2-.2.3.3,1.9,2.4,3.5,2.1,1.7,5.2,3.1,5.2,3.1,0,0,0,0,0,.1h0s10.8,4.4,21.9-1.2c10.3-5.3,9.6-14.2,9.9-14.6.2-.5,14.2-7.6,12.8-26Z"/>
  <path class="st9" d="M83.2,3.5c0,.3,0,.5,0,.5l.3.5c-.1-.3-.2-.5-.2-.7s0-.2,0-.3Z"/>
  <path class="st14" d="M75.5,34.7c-2.6,2.9-5.4,2.1-5.4,2.4s.2.5.4,1.1c1.2,0,5.3-.1,6.9-4,1.3-3.2,0-6.3-.9-6.8-.2-.2-.4-.2-.6-.2.6.7,1.5,5.4-.4,7.5Z"/>
  <path class="st8" d="M91.9,110.3c-.1,1.9-.9,3.6-.9,3.6,0,0,3.6-1.5,5.9-3.9.7-.7,1.3-1.5,1.9-2.2-1.8-1.1-4.4-2.8-7.4-5,0,3,.5,6,.5,7.5Z"/>
  <path class="st8" d="M77.7,96c-2.3-.4-4.6-2.1-4.6-2.1,0,0-.8,3.9-5,4.6.4,0,.7,0,1-.2,1.1-.4,2-1.1,2-1.1,0,0,2.3,4.6,2.8,5.6.4,1,.3,2.5-.3,3.1-.7.6-5,2.1-5.6,2.9s.3,5.2-1.1,5.3c-1.1.1-2.4-2.1-3-3.3-.5-1.1-1.3-3.9-.3-5.4s4.7-1.2,4.9-1.9c.2-.6-2.1-4.9-2.2-5-3.3-.4-5.2-3.2-5.2-3.2,0,0-.3,3.3-4.1,3.6-.9,0-1.6,0-2.3-.2,0,0,1.5.5,2.8.3,1.3-.3,2.2-.9,2.2-.9,0,0,1.3,6.4,1.9,11.3,0,.4.1.9.2,1.4,2.4,2.5,3.9,5,3.9,5,0,0,2.4-1.9,5.9-2.6,3.6-.7,7.8-.8,10.6-4.4,2.7-3.5,2.4-6.9,4.2-9.9-1.2-1-2.2-1.9-3-2.7-1.1.2-3,.3-5.7-.2ZM81.4,98.8c.3.2-.6,1.7-1.1,3.1-.5,1.4,0,2.8-.5,4.9-.4,2.8-3.6,3.5-3.9,3.4-.1-.1.7-1.4.7-2.9.2-1.9,0-3.4.8-5.3,1.2-2.6,3.9-3.3,4-3.2Z"/>
  <path class="st8" d="M46.6,105.4s-1.3-2.7-1-6.2c0-1,.3-2.1.5-3.1-.3,0-.6,0-.9-.1-1,1.4-2.4,3-3.9,4.6.7.8,1.4,1.6,2.2,2.4s3,2.4,3,2.4Z"/>
  <path class="st8" d="M39.1,114.2s-2.7-3.7-3.5-8.1c0-.3-.1-.6-.2-.8-1.3.8-2.4,1.5-3.3,2.2.4.5.8,1.1,1.2,1.7,2.9,3.8,5.8,5.1,5.8,5.1Z"/>
  <path class="st8" d="M56,106.3c-.5-3.2-1.3-7.6-1.3-7.6-3.2-.9-4.4-4-4.4-4,0,0-1.2.8-2.5,1.2.2,1.3.5,3,1.5,4.5,2.2,3.4,4.3,4.5,6.7,5.9Z"/>
  <path class="st9" d="M49.8,82c-3.1.8-13.8,2.7-23.3-4.2-7.6-5.4-7.4-12.3-7.8-13.2-.5-.9-3.8-2.7-6.1-7.3-2.9-5.9-2.3-11.8-.8-12.7,1-.6,2.9,2.3,4.1,1.5,1.2-.8-1.4-3.1-1-13.2.4-9.8,5.8-15.1,6.6-14.9.6.2.4,2.1.9,4-.4-2.1-.2-4.6-.9-4.7-2.2-.3-7.8,5.8-8.3,15.2-.4,7.5.9,10.9,1.2,13.1-.9-.2-2.1-1.7-3.4-1-1.5.8-3.1,7.2-.2,13.1,2.3,4.6,5.3,6.8,5.8,7.7.4.9,1,9.5,8.6,14.9,9.2,6.4,19.3,5.8,24.4,4.8,0-.6.2-1.3.2-2.1,0-.3,0-.6,0-1Z"/>
  <path class="st9" d="M25.7,26.6c.6,0-.4-2.7.9-8.9,1.3-6.2,5.3-9,5.9-8.7.4.1.2,1,.1,2.2.2-1,.4-2.2,0-2.4-.9-.5-6,.6-8,8.5-1,3.7-.8,6.9-.7,7.7,0,0-.2-.1-.2-.2.8,1.1,1.7,2,2,1.8Z"/>
  <path class="st9" d="M34.8,18.5c.5,0,.1-3,2-6.8,1.9-3.8,6.4-7.7,7.1-7.2.1,0,.2.2.2.4,0-.3,0-.5-.2-.5-1.7-.9-5.9,1.7-8.4,6.1-2.1,3.6-2.1,5.7-2.1,6.5,0,0,0,0,0,0,.5,1,1.2,1.6,1.5,1.5Z"/>
  <path class="st12" d="M23.7,24.8c-.5-.7-.9-1.5-1.2-2.3,0-.2,0-.3-.1-.5,0,0,0,.1,0,.2.2,1.1.8,2.1,1.3,2.6Z"/>
  <path class="st12" d="M41.8,45.3c.3,6.1,2,13.8,2.4,13.9l1.2,3.3c.6-3.2,2.2-6.2,5.3-7.7-.2,0-.4-.1-.5-.2-1.1-.4-6.6-3.4-7-9.5-.4-6.1,2.1-8.8,3.6-11.2,2.3-3.8.7-5.2-1.2-9.9s-2.2-6.8-2.3-10.8c0-3.4,1-7,.9-8.3,0,1.4-2,5.2-2.1,8.7-.2,5.1-.5,25.6-.2,31.7Z"/>
  <path class="st12" d="M32.6,14.8c0-.2,0-.5,0-.8,0-1,0-2,.1-2.8-.2.8-.4,1.5-.4,1.5,0,0,.2,1,.4,2.1Z"/>
  <path class="st12" d="M33.3,17c-.2-.3-.4-.7-.5-1.1.2.6.3,1.1.5,1.1Z"/>
  <path class="st9" d="M21.5,18c-.8-.2-6.2,5.1-6.6,14.9-.4,10.1,2.2,12.4,1,13.2-1.2.8-3.1-2.1-4.1-1.5-1.5.9-2.1,6.8.8,12.7,2.3,4.6,5.6,6.4,6.1,7.3.4.9.2,7.8,7.8,13.2,9.5,6.9,20.2,5,23.3,4.2-.1-2.2-.9-3.6-.9-3.6,0,0,0-.3,0-.9-1.2-2.2-2.4-4.6-3.1-6.8-.7-2.1-1-5.2-.4-8.2l-1.2-3.3c-.4-.1-2.1-7.8-2.4-13.9-.3-6.1,0-26.6.2-31.7,0-3.4,2-7.2,2.1-8.7,0-.2,0-.4-.2-.4-.7-.5-5.2,3.4-7.1,7.2-1.9,3.8-1.5,6.7-2,6.8-.3,0-.9-.5-1.5-1.5-.2,0-.3-.5-.5-1.1-.1-.3-.2-.7-.3-1.1-.2-1-.4-2.1-.4-2.1,0,0,.2-.7.4-1.5.1-1.2.2-2.1-.1-2.2-.6-.3-4.6,2.5-5.9,8.7-1.3,6.2-.3,8.8-.9,8.9-.4.1-1.3-.7-2-1.8-.4-.5-1.1-1.5-1.3-2.6,0,0,0-.1,0-.2-.5-1.9-.3-3.8-.9-4Z"/>
  <path class="st12" d="M21.5,18c-.8-.2-6.2,5.1-6.6,14.9-.4,10.1,2.2,12.4,1,13.2-1.2.8-3.1-2.1-4.1-1.5-1.5.9-2.1,6.8.8,12.7,2.3,4.6,5.6,6.4,6.1,7.3.4.9.2,7.8,7.8,13.2,9.5,6.9,20.2,5,23.3,4.2-.1-2.2-.9-3.6-.9-3.6,0,0,0-.3,0-.9-1.2-2.2-2.4-4.6-3.1-6.8-.7-2.1-1-5.2-.4-8.2l-1.2-3.3c-.4-.1-2.1-7.8-2.4-13.9-.3-6.1,0-26.6.2-31.7,0-3.4,2-7.2,2.1-8.7,0-.2,0-.4-.2-.4-.7-.5-5.2,3.4-7.1,7.2-1.9,3.8-1.5,6.7-2,6.8-.3,0-.9-.5-1.5-1.5-.2,0-.3-.5-.5-1.1-.1-.3-.2-.7-.3-1.1-.2-1-.4-2.1-.4-2.1,0,0,.2-.7.4-1.5.1-1.2.2-2.1-.1-2.2-.6-.3-4.6,2.5-5.9,8.7-1.3,6.2-.3,8.8-.9,8.9-.4.1-1.3-.7-2-1.8-.4-.5-1.1-1.5-1.3-2.6,0,0,0-.1,0-.2-.5-1.9-.3-3.8-.9-4Z"/>
  <path class="st2" d="M72.3,31.6c.1-.2.2-.4.3-.7.8-2.1.2-4.2-.9-5.2-.7-.6-1.9-.9-2.4-.7,0,0-.2,0-.2.2-.2.7.6.8.7,2.1.2,2-2.8,2.5-4.9,2.6,1.8,1,3,2.3,3.3,2.4.4.2,2.5.3,4.1-.7Z"/>
  <path class="st27" d="M96.8,12.3l-2.9-3.9c0,.9,1.3,3.7,1.6,4.6.1.3.1.7,0,1.1,1,.2,1.2-1.8,1.2-1.8Z"/>
  <path class="st31" d="M64.7,77.6l33.7-20-7.1-41.7-7.9-11.4c.6,1.8,1.9,6.5,1.8,13.1-.2,8.9-4,11.6-4.2,16.2-.2,4.5,3.7,13.6-1.4,19.8-4.7,5.7-10.8,4.8-11.4,3.7-.6-1.1,2.6-3.8,3.4-9.8.6-4.2-.5-7.6-1.1-9.3-.2,0-.3,0-.3,0-.5-.1-2.6-.9-2.6-.9,0,0,6.4-3.3,6.8-3.8.4-.5,1.4-6.3,1.4-6.3,0,0,0,0,.1,0,0,0,0,0-.1,0-.3,0-.8.8-1.3,1.8,0,.1,0,.2,0,.4,0,1.2-1,2.9-1,2.9l-4.4,2.1s.3-.3.8-.8c-.7-.2-4.1-1.3-4.2-1.4-.1,0-2.5-2.2-2.5-2.2,0,0,.7,0,1.7,0-1.2-.6-2.6-1.2-4.2-1.1-3.7.2-5.5,3.3-6.4,4.1.2,0,1,.5,1.7,1.3.7.6,1.3,1.4,1.5,1.6,0,0,0,0,.1,0,.1-.1.8.3.9.7,0,.4-.3,1.3-.7,1.5,0,.4,0,.8-.2,1.2-.2.6-.5,1-.7,1.2,1.1.3,3.6,1.4,3.6,5.1.1,5.3-5.8,8.4-5.8,8.4,0,0,0,0,0,0,.2,0,.4,0,.6,0,11.1,0,11.5,11.7,9.5,17.7-2.9,8.8-8,16.3-8.5,16.2-.2,0-1.7-1.7-3.5-4.3l.3.9s-1.3.4-3.4.8c-.3,1.9-.9,3.3-1.7,4.8-1.4,2.4-4.3,4.4-4.5,4.9-.1.4.7.9,1.9,1.2,1.3-1.7,2-3,2-3l18.2-3.2,14.9,3.3s1.1,1.2,3,3.1c.4,0,.8-.1,1-.2.8-.2.6-.7,0-1.1-.7-.4-3-2.1-5.4-4-2.1-1.8-4.5-5-4.9-5.6l-7.4.9-2-8.6ZM63,37.5c-2.6.5-3.4-2.2-2.9-2.5.4-.2,1.7.6,2.5.4.9-.2,1.3-1.3,1.8-1.3s1.3,2.9-1.4,3.4Z"/>
  <path class="st30" d="M108.6,28.7l-.6-2.9c0,.3-.1.7-.2,1,0,.3-.2,1.2-.5,2,0,.1,0,.2,0,.2l1.3-.3Z"/>
  <path class="st14" d="M72.3,31.6c-.9,1.5-2.3,1.9-2.3,1.9,0,0,0,0-.1,0-.4.5-.8.8-.8.8l4.4-2.1s1-1.7,1-2.9c0-.1,0-.2,0-.4-.4.7-.9,1.5-1.6,2.2s-.4.4-.6.5Z"/>
  <path class="st11" d="M72.3,31.6c-.9,1.5-2.3,1.9-2.3,1.9,0,0,0,0-.1,0-.4.5-.8.8-.8.8l4.4-2.1s1-1.7,1-2.9c0-.1,0-.2,0-.4-.4.7-.9,1.5-1.6,2.2s-.4.4-.6.5Z"/>
  <path class="st9" d="M68.8,82.1c-2.1-1.6-2.6-3.2-2.4-3.5.2-.3.8,0,1.2.2.4.2,11.6,7.7,23.5,3.9,11.9-3.8,11.9-14.5,11.9-14.5,0,0,15.6-7.8,14-25.8-1-11.2-8-17.1-8.5-17.2,0,0-.2,0-.2,0,0,0,0,0,0,0,0,.1-.1.2-.2.4l.6,2.9-1.3.3s0,0,0-.2c-.3,1-.8,1.9-1.5,1.7-1.2-.4.2-2.2-1.7-10.9-1.9-8.7-10.1-12-10.2-11.3,0,0,0,.1,0,.1l2.9,3.9s-.2,2-1.2,1.8c0,.7-.4,1.4-.9,1.3-.8,0-1.9-3-4.1-6.6-2.2-3.7-4.7-4.9-5.9-5.4-.5-.2-1.2-.4-1.5,0,0,0,0,.1,0,.2,0,0,0,.2,0,.3s.1.4.2.7l7.9,11.4,7.1,41.7-33.7,20,2,8.6,7.4-.9c0,0,0-.1,0-.1,0,0-3.1-1.4-5.2-3.1Z"/>
  <path class="st26" d="M68.8,82.1c-2.1-1.6-2.6-3.2-2.4-3.5.2-.3.8,0,1.2.2.4.2,11.6,7.7,23.5,3.9,11.9-3.8,11.9-14.5,11.9-14.5,0,0,15.6-7.8,14-25.8-1-11.2-8-17.1-8.5-17.2,0,0-.2,0-.2,0,0,0,0,0,0,0,0,.1-.1.2-.2.4l.6,2.9-1.3.3s0,0,0-.2c-.3,1-.8,1.9-1.5,1.7-1.2-.4.2-2.2-1.7-10.9-1.9-8.7-10.1-12-10.2-11.3,0,0,0,.1,0,.1l2.9,3.9s-.2,2-1.2,1.8c0,.7-.4,1.4-.9,1.3-.8,0-1.9-3-4.1-6.6-2.2-3.7-4.7-4.9-5.9-5.4-.5-.2-1.2-.4-1.5,0,0,0,0,.1,0,.2,0,0,0,.2,0,.3s.1.4.2.7l7.9,11.4,7.1,41.7-33.7,20,2,8.6,7.4-.9c0,0,0-.1,0-.1,0,0-3.1-1.4-5.2-3.1Z"/>
  <path class="st14" d="M74.4,33.5c-.4.5-6.8,3.8-6.8,3.8,0,0,2.1.8,2.6.9,0,0,.2,0,.3,0-.2-.6-.4-1-.4-1.1,0-.3,2.8.5,5.4-2.4,1.9-2.1,1.1-6.8.4-7.5,0,0-.1,0-.1,0,0,0-1,5.8-1.4,6.3Z"/>
  <path class="st15" d="M74.4,33.5c-.4.5-6.8,3.8-6.8,3.8,0,0,2.1.8,2.6.9,0,0,.2,0,.3,0-.2-.6-.4-1-.4-1.1,0-.3,2.8.5,5.4-2.4,1.9-2.1,1.1-6.8.4-7.5,0,0-.1,0-.1,0,0,0-1,5.8-1.4,6.3Z"/>
  <path class="st8" d="M80.4,93.1l-14.9-3.3-18.2,3.2s-.8,1.3-2,3c.3,0,.6,0,.9.1.4-1.4.8-2.5,1.2-2.5s.3,1,.5,2.3c1.3-.4,2.5-1.2,2.5-1.2,0,0,1.2,3.1,4.4,4h0s0,0,0,0c.7.2,1.4.3,2.3.2,3.8-.3,4.1-3.6,4.1-3.6,0,0,1.9,2.8,5.2,3.2,0,0,0,0,0,0,0,0,1,0,1.8,0,4.2-.7,5-4.6,5-4.6,0,0,2.3,1.7,4.6,2.1,2.7.5,4.6.4,5.7.2-1.9-1.9-3-3.1-3-3.1Z"/>
  <path class="st22" d="M80.4,93.1l-14.9-3.3-18.2,3.2s-.8,1.3-2,3c.3,0,.6,0,.9.1.4-1.4.8-2.5,1.2-2.5s.3,1,.5,2.3c1.3-.4,2.5-1.2,2.5-1.2,0,0,1.2,3.1,4.4,4h0s0,0,0,0c.7.2,1.4.3,2.3.2,3.8-.3,4.1-3.6,4.1-3.6,0,0,1.9,2.8,5.2,3.2,0,0,0,0,0,0,0,0,1,0,1.8,0,4.2-.7,5-4.6,5-4.6,0,0,2.3,1.7,4.6,2.1,2.7.5,4.6.4,5.7.2-1.9-1.9-3-3.1-3-3.1Z"/>
  <path class="st9" d="M52.7,83.4c-.6-.8-1.2-1.7-1.8-2.7l-.2,1.1s-.3.1-.9.2c0,.3,0,.6,0,1,0,.8,0,1.5-.2,2.1,2.1-.4,3.4-.8,3.4-.8l-.3-.9Z"/>
  <path class="st32" d="M52.7,83.4c-.6-.8-1.2-1.7-1.8-2.7l-.2,1.1s-.3.1-.9.2c0,.3,0,.6,0,1,0,.8,0,1.5-.2,2.1,2.1-.4,3.4-.8,3.4-.8l-.3-.9Z"/>
  <path class="st9" d="M48.9,78.4s.8,1.4.9,3.6c.6-.1.9-.2.9-.2l.2-1.1c-.7-1-1.3-2.1-1.9-3.2,0,.6,0,.9,0,.9Z"/>
  <path class="st12" d="M48.9,78.4s.8,1.4.9,3.6c.6-.1.9-.2.9-.2l.2-1.1c-.7-1-1.3-2.1-1.9-3.2,0,.6,0,.9,0,.9Z"/>
  <path class="st3" d="M48.9,78.4s.8,1.4.9,3.6c.6-.1.9-.2.9-.2l.2-1.1c-.7-1-1.3-2.1-1.9-3.2,0,.6,0,.9,0,.9Z"/>
  <path class="st2" d="M63.2,29.9s2.4,2.1,2.5,2.2c0,0,3.5,1.2,4.2,1.4,0,0,.1,0,.1,0,0,0,1.4-.4,2.3-1.9-1.5,1-3.6.9-4.1.7-.3-.1-1.5-1.4-3.3-2.4-1,0-1.7,0-1.7,0Z"/>
  <path class="st6" d="M63.2,29.9s2.4,2.1,2.5,2.2c0,0,3.5,1.2,4.2,1.4,0,0,.1,0,.1,0,0,0,1.4-.4,2.3-1.9-1.5,1-3.6.9-4.1.7-.3-.1-1.5-1.4-3.3-2.4-1,0-1.7,0-1.7,0Z"/>
  <path class="st24" d="M91.4,102.8c0-.6,0-1.2,0-1.9.3-3.5,3.3-6.1,3-6.8-.3-.7-5.2.5-7.9,4.5,0,0-.1.2-.2.3.8.7,1.8,1.4,2.8,2.2.8.6,1.5,1.1,2.2,1.7Z"/>
  <path class="st24" d="M97.7,114.1c-3.1,1.4-8,1.6-8,1.6,0,0-1.9.5-4.6,1.2-1.2,2.3-2.7,3.7-2.7,3.7,0,0-3.3,1-8.3.7.6,0,1.2,0,1.9,0,6.9,0,10.6-2.3,10.6-2.3,0,0,3.8,2.4,10,.8,6.2-1.6,7.7-6,9.3-11.3,1.6-5.3,3.4-5.1,3.3-5.7-.1-.6-3-.7-5.2.4-2.2,1-3.7,2.7-5.2,4.5,2.1,1.3,3.3,1.9,3.3,1.9,0,0-1.3,3-4.4,4.4Z"/>
  <path class="st24" d="M69.1,117.6c-2.2-.3-3.8-.6-3.8-.6,0,0-.8.1-2.4.3.6,1.4.9,2.4.9,2.4,0,0-.7.1-1.8.3,0,0,0,.1-.1.2,2.8-.5,4.6-1.1,4.6-1.1,0,0,1.4,1.1,4.6,1.8-3.1-.7-4.7-2-4.7-2,0,0,1.3-.7,2.7-1.3Z"/>
  <path class="st24" d="M51.2,120.7s-2.4-1.4-5.5-4.4c-3.3-.5-5.5-1.1-5.5-1.1,0,0-10.6-4.2-10.9-5.2-.2-.5.9-1.4,2.8-2.6-2.1-3-3.5-5.5-5.6-8.1-4.2-5.2-9.1-5.9-9.4-5.4-.3.5,1.1,1.4,3.1,4.9,1.9,3.3,1.8,9.3,6.6,13.9,6.6,6.4,13.2,2.9,13.2,2.9,0,0,4.3,4.4,11.4,5.2.3,0,.7,0,1,0,0,0,.1,0,.2-.1-.8,0-1.4,0-1.4,0Z"/>
  <path class="st24" d="M41.4,100.6c-1.2-1.4-2.4-2.8-4-4.1-4.6-3.5-9.2-3.3-9.2-2.9s2.9,3.3,4.2,4.8c1.2,1.4,2.4,4.2,3,6.9.8-.5,1.6-1.1,2.5-1.7,1.2-.9,2.4-1.9,3.5-3Z"/>
  <path class="st8" d="M71.6,113.2c-3.5.7-5.9,2.6-5.9,2.6,0,0-1.5-2.5-3.9-5,.2,1.6.4,3.4.5,5.1.2.5.5.9.7,1.4,1.6-.1,2.4-.3,2.4-.3,0,0,1.6.3,3.8.6.7-.3,1.4-.6,2-.7,2.8-.8,5.8-.7,9.2-2.1,3.4-1.4,6.3-5.4,6.4-5.4.3,0,.5,1.9-.6,5.2-.3.8-.6,1.6-1,2.3,2.7-.7,4.6-1.2,4.6-1.2,0,0,4.9-.2,8-1.6,3.1-1.4,4.4-4.4,4.4-4.4,0,0-1.2-.6-3.3-1.9-.6.8-1.3,1.5-1.9,2.2-2.3,2.4-5.9,3.9-5.9,3.9,0,0,.8-1.7.9-3.6,0-1.6-.4-4.6-.5-7.5-.7-.5-1.5-1.1-2.2-1.7-1-.8-1.9-1.5-2.8-2.2-1.8,3-1.5,6.4-4.2,9.9-2.8,3.6-7,3.7-10.6,4.4Z"/>
  <path class="st24" d="M71.6,113.2c-3.5.7-5.9,2.6-5.9,2.6,0,0-1.5-2.5-3.9-5,.2,1.6.4,3.4.5,5.1.2.5.5.9.7,1.4,1.6-.1,2.4-.3,2.4-.3,0,0,1.6.3,3.8.6.7-.3,1.4-.6,2-.7,2.8-.8,5.8-.7,9.2-2.1,3.4-1.4,6.3-5.4,6.4-5.4.3,0,.5,1.9-.6,5.2-.3.8-.6,1.6-1,2.3,2.7-.7,4.6-1.2,4.6-1.2,0,0,4.9-.2,8-1.6,3.1-1.4,4.4-4.4,4.4-4.4,0,0-1.2-.6-3.3-1.9-.6.8-1.3,1.5-1.9,2.2-2.3,2.4-5.9,3.9-5.9,3.9,0,0,.8-1.7.9-3.6,0-1.6-.4-4.6-.5-7.5-.7-.5-1.5-1.1-2.2-1.7-1-.8-1.9-1.5-2.8-2.2-1.8,3-1.5,6.4-4.2,9.9-2.8,3.6-7,3.7-10.6,4.4Z"/>
  <path class="st8" d="M29.3,110c.3,1,10.9,5.2,10.9,5.2,0,0,2.2.5,5.5,1.1-.5-.5-.9-.9-1.4-1.5-2.7-2.9-3.9-8.6-3.9-8.6.3,0,2.4,1.7,5.3,3.6,2.9,1.9,5.8,2.1,5.8,2.1,0,0-1.2-2.1-1.7-3.1-1.1-2.4-1.4-5.1-1.3-5.1.2-.1,2.2,2,4,3.4.9.7,2.3,1.6,4,2.9,0-.6-.1-1.1-.2-1.6,0-.6-.2-1.3-.3-2.1-2.4-1.4-4.5-2.5-6.7-5.9-.9-1.4-1.3-3.1-1.5-4.5-.4.1-.9.2-1.3.2-.1,0-.2,0-.4,0-.2,1-.4,2.1-.5,3.1-.3,3.5,1,6.2,1,6.2,0,0-2.1-1.5-3-2.4s-1.5-1.6-2.2-2.4c-1.1,1.1-2.3,2.2-3.5,3-.9.6-1.7,1.2-2.5,1.7,0,.3.1.6.2.8.8,4.4,3.5,8.1,3.5,8.1,0,0-2.9-1.3-5.8-5.1-.4-.6-.8-1.1-1.2-1.7-1.8,1.2-2.9,2-2.8,2.6Z"/>
  <path class="st24" d="M29.3,110c.3,1,10.9,5.2,10.9,5.2,0,0,2.2.5,5.5,1.1-.5-.5-.9-.9-1.4-1.5-2.7-2.9-3.9-8.6-3.9-8.6.3,0,2.4,1.7,5.3,3.6,2.9,1.9,5.8,2.1,5.8,2.1,0,0-1.2-2.1-1.7-3.1-1.1-2.4-1.4-5.1-1.3-5.1.2-.1,2.2,2,4,3.4.9.7,2.3,1.6,4,2.9,0-.6-.1-1.1-.2-1.6,0-.6-.2-1.3-.3-2.1-2.4-1.4-4.5-2.5-6.7-5.9-.9-1.4-1.3-3.1-1.5-4.5-.4.1-.9.2-1.3.2-.1,0-.2,0-.4,0-.2,1-.4,2.1-.5,3.1-.3,3.5,1,6.2,1,6.2,0,0-2.1-1.5-3-2.4s-1.5-1.6-2.2-2.4c-1.1,1.1-2.3,2.2-3.5,3-.9.6-1.7,1.2-2.5,1.7,0,.3.1.6.2.8.8,4.4,3.5,8.1,3.5,8.1,0,0-2.9-1.3-5.8-5.1-.4-.6-.8-1.1-1.2-1.7-1.8,1.2-2.9,2-2.8,2.6Z"/>
  <path class="st8" d="M47.8,95.9c-.2-1.3-.2-2.3-.5-2.3s-.8,1.1-1.2,2.5c.1,0,.2,0,.4,0,.4,0,.9,0,1.3-.2Z"/>
  <path class="st19" d="M47.8,95.9c-.2-1.3-.2-2.3-.5-2.3s-.8,1.1-1.2,2.5c.1,0,.2,0,.4,0,.4,0,.9,0,1.3-.2Z"/>
  <path class="st24" d="M47.8,95.9c-.2-1.3-.2-2.3-.5-2.3s-.8,1.1-1.2,2.5c.1,0,.2,0,.4,0,.4,0,.9,0,1.3-.2Z"/>
  <path class="st8" d="M77.4,102c-.9,1.9-.6,3.4-.8,5.3,0,1.5-.8,2.8-.7,2.9.3,0,3.5-.6,3.9-3.4.4-2.1,0-3.5.5-4.9.5-1.4,1.4-2.9,1.1-3.1-.1,0-2.8.6-4,3.2Z"/>
  <path class="st33" d="M77.4,102c-.9,1.9-.6,3.4-.8,5.3,0,1.5-.8,2.8-.7,2.9.3,0,3.5-.6,3.9-3.4.4-2.1,0-3.5.5-4.9.5-1.4,1.4-2.9,1.1-3.1-.1,0-2.8.6-4,3.2Z"/>
  <path class="st4" d="M101.2,92.7c-1.5,2.5-1.9,4.1-3.4,6.1-.8,1.1-3.4,2.7-3.3,2.8,0,.2,6,1.5,8.4-.6,1.5-1.3,2.7-3.5,3.2-5.8.9-3.6.7-7.4.5-7.4-.2,0-2.9.7-5.4,4.9Z"/>
  <path class="st24" d="M62.1,119.9s0,0,0,.1c1-.2,1.8-.3,1.8-.3,0,0-.3-1.1-.9-2.4-.2,0-.4,0-.6,0,0,.9,0,1.8-.2,2.6Z"/>
  <path class="st1" d="M62.1,119.9s0,0,0,.1c1-.2,1.8-.3,1.8-.3,0,0-.3-1.1-.9-2.4-.2,0-.4,0-.6,0,0,.9,0,1.8-.2,2.6Z"/>
  <path class="st24" d="M45.7,116.3c3.1,3,5.5,4.4,5.5,4.4,0,0,.6,0,1.4,0,.2,0,.3-.2.4-.3.8-.5,3.5-2.3,4-3.2-.9,0-1.9,0-3-.1-3-.2-5.9-.5-8.3-.9Z"/>
  <path class="st23" d="M45.7,116.3c3.1,3,5.5,4.4,5.5,4.4,0,0,.6,0,1.4,0,.2,0,.3-.2.4-.3.8-.5,3.5-2.3,4-3.2-.9,0-1.9,0-3-.1-3-.2-5.9-.5-8.3-.9Z"/>
  <path class="st8" d="M62.9,117.3c-.2-.4-.4-.9-.7-1.4,0,.5,0,.9,0,1.4.2,0,.4,0,.6,0Z"/>
  <path class="st24" d="M62.9,117.3c-.2-.4-.4-.9-.7-1.4,0,.5,0,.9,0,1.4.2,0,.4,0,.6,0Z"/>
  <path class="st20" d="M62.9,117.3c-.2-.4-.4-.9-.7-1.4,0,.5,0,.9,0,1.4.2,0,.4,0,.6,0Z"/>
  <path class="st8" d="M48.5,103.7c0,0,.2,2.7,1.3,5.1.5,1,1.7,3.1,1.7,3.1,0,0-2.9-.2-5.8-2.1-2.9-1.9-5-3.6-5.3-3.6,0,0,1.2,5.7,3.9,8.6.5.5,1,1,1.4,1.5,2.4.4,5.3.8,8.3.9,1.1,0,2.1.1,3,.1,0,0,0-.1,0-.1.3-.7-.3-4.4-.6-7.2-1.7-1.2-3.1-2.1-4-2.9-1.8-1.4-3.8-3.5-4-3.4Z"/>
  <path class="st24" d="M48.5,103.7c0,0,.2,2.7,1.3,5.1.5,1,1.7,3.1,1.7,3.1,0,0-2.9-.2-5.8-2.1-2.9-1.9-5-3.6-5.3-3.6,0,0,1.2,5.7,3.9,8.6.5.5,1,1,1.4,1.5,2.4.4,5.3.8,8.3.9,1.1,0,2.1.1,3,.1,0,0,0-.1,0-.1.3-.7-.3-4.4-.6-7.2-1.7-1.2-3.1-2.1-4-2.9-1.8-1.4-3.8-3.5-4-3.4Z"/>
  <path class="st21" d="M48.5,103.7c0,0,.2,2.7,1.3,5.1.5,1,1.7,3.1,1.7,3.1,0,0-2.9-.2-5.8-2.1-2.9-1.9-5-3.6-5.3-3.6,0,0,1.2,5.7,3.9,8.6.5.5,1,1,1.4,1.5,2.4.4,5.3.8,8.3.9,1.1,0,2.1.1,3,.1,0,0,0-.1,0-.1.3-.7-.3-4.4-.6-7.2-1.7-1.2-3.1-2.1-4-2.9-1.8-1.4-3.8-3.5-4-3.4Z"/>
  <path class="st29" d="M73.5,121.3c-.9,0-1.7-.2-2.4-.4.7.2,1.5.3,2.4.4Z"/>
  <path class="st24" d="M82.4,120.6s1.5-1.5,2.7-3.7c-1.4.4-3.1.7-4.7,1.1-2.9.7-7.9.2-11.3-.4-1.4.6-2.7,1.3-2.7,1.3,0,0,1.6,1.3,4.7,2,.7.2,1.5.3,2.4.4.2,0,.4,0,.6,0,5,.3,8.3-.7,8.3-.7Z"/>
  <path class="st18" d="M82.4,120.6s1.5-1.5,2.7-3.7c-1.4.4-3.1.7-4.7,1.1-2.9.7-7.9.2-11.3-.4-1.4.6-2.7,1.3-2.7,1.3,0,0,1.6,1.3,4.7,2,.7.2,1.5.3,2.4.4.2,0,.4,0,.6,0,5,.3,8.3-.7,8.3-.7Z"/>
  <path class="st24" d="M74.1,121.3s0,0,0,0c-.2,0-.4,0-.6,0,.2,0,.4,0,.6,0Z"/>
  <path class="st24" d="M74.1,121.3s0,0,0,0c-.2,0-.4,0-.6,0,.2,0,.4,0,.6,0Z"/>
  <path class="st7" d="M74.1,121.3s0,0,0,0c-.2,0-.4,0-.6,0,.2,0,.4,0,.6,0Z"/>
  <path class="st8" d="M80.4,118c1.7-.4,3.3-.8,4.7-1.1.4-.7.7-1.4,1-2.3,1.1-3.3.9-5.2.6-5.2s-3,4-6.4,5.4c-3.4,1.4-6.4,1.3-9.2,2.1-.6.2-1.3.5-2,.7,3.4.5,8.4,1,11.3.4Z"/>
  <path class="st24" d="M80.4,118c1.7-.4,3.3-.8,4.7-1.1.4-.7.7-1.4,1-2.3,1.1-3.3.9-5.2.6-5.2s-3,4-6.4,5.4c-3.4,1.4-6.4,1.3-9.2,2.1-.6.2-1.3.5-2,.7,3.4.5,8.4,1,11.3.4Z"/>
  <path class="st5" d="M80.4,118c1.7-.4,3.3-.8,4.7-1.1.4-.7.7-1.4,1-2.3,1.1-3.3.9-5.2.6-5.2s-3,4-6.4,5.4c-3.4,1.4-6.4,1.3-9.2,2.1-.6.2-1.3.5-2,.7,3.4.5,8.4,1,11.3.4Z"/>
  <path class="st0" d="M57.6,39.1c.1-.4.2-.9.2-1.2,0,0,0,0,0,0-.4.2-.7-.1-.9-.1,0,0-1.7.7-2.9,1.1-1.1.4-3.7.8-4.5.7-.8-.2-1-.7-1-.7,0,0,2.7-.6,4.3-1,1.6-.4,3.8-1.2,3.9-1.3.2,0,.5-.6.8-.8-.1-.2-.8-.9-1.5-1.6-.7-.8-1.5-1.2-1.7-1.3,0,0,0,0,0,0,0,0-3.1,1.2-4.8,2.9-1.1,1.1-1.5,2.8-.9,3.4.8.8,3.9.7,4.9.8s3.1.5,3.1.5c0,0,.1,0,.3-.2.2-.2.5-.6.7-1.2Z"/>
  <path class="st9" d="M56.7,36.6c-.1.1-2.3.9-3.9,1.3-1.6.4-4.3,1-4.3,1,0,0,.2.5,1,.7.8.1,3.4-.3,4.5-.7,1.2-.4,2.9-1.1,2.9-1.1.2,0,.5.3.9.1,0,0,0,0,0,0,.4-.2.8-1.1.7-1.5,0-.4-.8-.8-.9-.7,0,0,0,0-.1,0-.2.2-.6.8-.8.8Z"/>
  <path class="st13" d="M64.4,34.1c-.5,0-.9,1.1-1.8,1.3-.8.2-2.1-.6-2.5-.4-.5.3.3,3,2.9,2.5,2.7-.5,2-3.4,1.4-3.4Z"/>
  <path class="st9" d="M62.1,119.9c.1-.8.2-1.7.2-2.6,0-.5,0-.9,0-1.4,0-1.7-.3-3.5-.5-5.1,0-.5-.1-.9-.2-1.4-.6-4.9-1.9-11.3-1.9-11.3,0,0-.9.6-2.2.9-1.3.2-2.7-.3-2.8-.3,0,0,0,0,0,0h0s.8,4.4,1.3,7.6c.1.8.2,1.6.3,2.1,0,.5.1,1,.2,1.6.4,2.8.9,6.6.6,7.2,0,0,0,0,0,.1-.6.9-3.3,2.7-4,3.2-.1,0-.3.2-.4.3,0,0-.1,0-.2.1-1,.6-2.5,1.5-2.3,2.3.2,1.1,3.7,1.4,6.6.3,2.5-1,4.6-2.4,5.2-3.3,0,0,0-.1.1-.2,0,0,0,0,0-.1Z"/>
  <path class="st9" d="M68.5,103.5c-.2.7-3.9.4-4.9,1.9s-.2,4.3.3,5.4c.6,1.2,1.9,3.4,3,3.3,1.4,0,.5-4.5,1.1-5.3s4.9-2.3,5.6-2.9c.6-.6.7-2.1.3-3.1-.5-1-2.8-5.6-2.8-5.6,0,0-.9.7-2,1.1-.2,0-.6.1-1,.2-.9,0-1.8,0-1.8,0,0,0,0,0,0,0,0,.1,2.4,4.4,2.2,5Z"/>
  <path class="st17" d="M54.6,53.8c-1.6,0-2.9.4-4,1,.4.1.9.3,1.5.4,1-.9,2.3-1.3,2.5-1.4Z"/>
  <path class="st12" d="M45.4,62.5l3.7,10.6c.2-4.8.7-11.7,1.7-16,.2-.8.7-1.4,1.3-1.9-.5-.1-1-.3-1.5-.4-3.1,1.5-4.7,4.5-5.3,7.7Z"/>
  <path class="st28" d="M45.4,62.5l3.7,10.6c.2-4.8.7-11.7,1.7-16,.2-.8.7-1.4,1.3-1.9-.5-.1-1-.3-1.5-.4-3.1,1.5-4.7,4.5-5.3,7.7Z"/>
  <path class="st9" d="M45.4,62.5c-.6,3-.3,6.1.4,8.2.7,2.2,1.9,4.6,3.1,6.8,0-.9,0-2.5.2-4.4l-3.7-10.6Z"/>
  <path class="st12" d="M45.4,62.5c-.6,3-.3,6.1.4,8.2.7,2.2,1.9,4.6,3.1,6.8,0-.9,0-2.5.2-4.4l-3.7-10.6Z"/>
  <path class="st17" d="M45.4,62.5c-.6,3-.3,6.1.4,8.2.7,2.2,1.9,4.6,3.1,6.8,0-.9,0-2.5.2-4.4l-3.7-10.6Z"/>
  <path class="st34" d="M54.6,55.8l-3.5,23.2,1.6,4.5c1.8,2.6,3.3,4.3,3.5,4.3.5,0,5.6-7.4,8.5-16.2,2-6,1.6-17.7-9.5-17.7s-.4,0-.6,0c-.3,0-1.5.5-2.5,1.4,1.1.3,2.3.6,2.5.6Z"/>
  <path class="st17" d="M54.6,55.8l-3.5,23.2,1.6,4.5c1.8,2.6,3.3,4.3,3.5,4.3.5,0,5.6-7.4,8.5-16.2,2-6,1.6-17.7-9.5-17.7s-.4,0-.6,0c-.3,0-1.5.5-2.5,1.4,1.1.3,2.3.6,2.5.6Z"/>
  <path class="st9" d="M50.9,80.7c.6,1,1.2,1.9,1.8,2.7l-1.6-4.5-.3,1.8Z"/>
  <path class="st25" d="M50.9,80.7c.6,1,1.2,1.9,1.8,2.7l-1.6-4.5-.3,1.8Z"/>
  <path class="st17" d="M50.9,80.7c.6,1,1.2,1.9,1.8,2.7l-1.6-4.5-.3,1.8Z"/>
  <path class="st12" d="M54.6,55.8c-.2,0-1.4-.3-2.5-.6-.6.5-1.1,1.1-1.3,1.9-1,4.3-1.5,11.2-1.7,16l2.1,5.9,3.5-23.2Z"/>
  <path class="st16" d="M54.6,55.8c-.2,0-1.4-.3-2.5-.6-.6.5-1.1,1.1-1.3,1.9-1,4.3-1.5,11.2-1.7,16l2.1,5.9,3.5-23.2Z"/>
  <path class="st17" d="M54.6,55.8c-.2,0-1.4-.3-2.5-.6-.6.5-1.1,1.1-1.3,1.9-1,4.3-1.5,11.2-1.7,16l2.1,5.9,3.5-23.2Z"/>
  <path class="st9" d="M49.1,73.1c0,1.9-.1,3.5-.2,4.4.6,1.1,1.3,2.2,1.9,3.2l.3-1.8-2.1-5.9Z"/>
  <path class="st12" d="M49.1,73.1c0,1.9-.1,3.5-.2,4.4.6,1.1,1.3,2.2,1.9,3.2l.3-1.8-2.1-5.9Z"/>
  <path class="st10" d="M49.1,73.1c0,1.9-.1,3.5-.2,4.4.6,1.1,1.3,2.2,1.9,3.2l.3-1.8-2.1-5.9Z"/>
  <path class="st17" d="M49.1,73.1c0,1.9-.1,3.5-.2,4.4.6,1.1,1.3,2.2,1.9,3.2l.3-1.8-2.1-5.9Z"/>
</svg>