<svg width="10" height="7" viewBox="0 0 10 7" fill="none" xmlns="http://www.w3.org/2000/svg">
<path fill-rule="evenodd" clip-rule="evenodd" d="M2.47027 4.29358L5.34027 0.135582C5.36453 0.100583 5.39563 0.0708642 5.43169 0.0482224C5.46775 0.0255805 5.50803 0.0104854 5.55009 0.00384908C5.59215 -0.00278722 5.63512 -0.000826888 5.6764 0.00961166C5.71769 0.0200502 5.75642 0.0387503 5.79027 0.0645817L6.24877 0.413082C6.38627 0.518082 6.41377 0.713082 6.31127 0.851082L2.74027 5.66358C2.7138 5.69933 2.68006 5.72907 2.64127 5.75084C2.60248 5.77262 2.55951 5.78592 2.5152 5.78989C2.4709 5.79386 2.42625 5.7884 2.38421 5.77387C2.34216 5.75933 2.30368 5.73606 2.27127 5.70558L2.24777 5.68358C2.22183 5.66868 2.19753 5.65108 2.17527 5.63108L0.139274 3.80458C0.0575576 3.73115 0.00786675 3.62862 0.000856586 3.51898C-0.00615358 3.40934 0.0300751 3.30132 0.101774 3.21808L0.363774 2.91208C0.400816 2.86891 0.446241 2.83371 0.497295 2.80863C0.548348 2.78354 0.603966 2.76909 0.660773 2.76614C0.717581 2.7632 0.774395 2.77182 0.82777 2.79149C0.881144 2.81116 0.929966 2.84147 0.971274 2.88058L2.46927 4.29358H2.47027ZM5.64677 4.60708L8.52027 0.443582C8.54449 0.408544 8.57556 0.378781 8.6116 0.356092C8.64765 0.333403 8.68792 0.318259 8.72998 0.311575C8.77204 0.304892 8.81503 0.306808 8.85633 0.317208C8.89763 0.327608 8.93639 0.346275 8.97027 0.372082L9.42877 0.721082C9.56627 0.825582 9.59377 1.02108 9.49127 1.15958L5.91927 5.97058C5.89277 6.0063 5.85899 6.036 5.82018 6.05772C5.78137 6.07945 5.7384 6.09271 5.69409 6.09663C5.64979 6.10055 5.60515 6.09504 5.56313 6.08047C5.5211 6.0659 5.48264 6.04259 5.45027 6.01208L5.43877 6.00058C5.39932 5.98343 5.36273 5.96033 5.33027 5.93208L4.33027 5.06308C4.24636 4.99034 4.19467 4.88732 4.18652 4.77656C4.17837 4.66581 4.21442 4.55633 4.28677 4.47208L4.54527 4.17208C4.58224 4.12899 4.62755 4.09385 4.67848 4.06877C4.7294 4.04368 4.78489 4.02919 4.84158 4.02615C4.89826 4.02311 4.95498 4.0316 5.00829 4.05109C5.06161 4.07059 5.11042 4.10069 5.15177 4.13958L5.64627 4.60608L5.64677 4.60708Z" fill="#E9EEF7"/>
</svg>
