<?xml version="1.0" encoding="UTF-8"?>
<svg id="Layer_2_copy" xmlns="http://www.w3.org/2000/svg" version="1.1" viewBox="0 0 128 128">
  <!-- Generator: Adobe Illustrator 29.8.4, SVG Export Plug-In . SVG Version: 2.1.1 Build 6)  -->
  <defs>
    <style>
      .st0 {
        fill: #ffca28;
      }

      .st1 {
        fill: none;
      }

      .st2 {
        fill: #b55e19;
      }

      .st3 {
        fill: #faa700;
      }
    </style>
  </defs>
  <path class="st1" d="M60,81.7h0,0Z"/>
  <path class="st1" d="M49.1,67.5c-1.4-3.2-1.8-1.8-1.9-.7-.5-1.9-1.6-5.5-1.8-9.5,0-2.3.3-6.1,1.5-8.1h0c.5-1,1.1-1.8,1.7-2.4-.6.7-1.2,1.5-1.8,2.4-1.1,2-1.5,5.8-1.5,8.1-.2-1-1-1.2-1.5-.7.5-.4,1.3,0,1.4.8,0,4,1.3,7.6,1.8,9.5.2.6.3.9.3,1.2.4,2.9.4,5.3,1.2,7.3.7,1.7,2.1,2.9,3.8,3.5,0,0,0,0,0,0-1.6-.6-2.9-1.8-3.6-3.4-.8-2-.8-4.4-1.2-7.3,0-.3-.2-.7-.3-1.2.2-1,.5-2.5,1.9.7.6,1.2,2.6,2,4.9,2.2,0,0,0,0,0,0-2.4-.1-4.4-1-5-2.2Z"/>
  <path class="st1" d="M85.5,90.7c3.2.5,4.8-1.5,4.9-3.2,0,1.7-1.7,3.7-4.9,3.2Z"/>
  <path class="st1" d="M65.2,46.4c-.6.6-1.1,1.3-1.7,2.1h.1c.5-.9,1-1.5,1.6-2.1Z"/>
  <path class="st1" d="M60.1,80.2c-.5,0-.9.3-.8.7,0-.4.3-.7.8-.7Z"/>
  <path class="st1" d="M92.1,11.8h.1c.6-2.8,2.7-4.4,4.7-4.4-2.1,0-4.3,1.5-4.8,4.4Z"/>
  <path class="st1" d="M60,81.7c-.2-.1-.5-.1-.7-.1-4.7-.8-6-9-2-10.7,2.2-.9,13.3-4.9,16-6,1.4-.5,2.8-.8,4.2-.8-1.4,0-2.9.2-4.3.8-2.7,1.1-13.8,5.1-16,6-4,1.7-2.7,9.9,2,10.7.2,0,.4,0,.7,0,5.3.8,10.7.4,14.4-1.2-3.7,1.6-9.1,2-14.3,1.2Z"/>
  <path class="st1" d="M82,59.3c.2-.3.5-.6.5-1.1,0,.4-.3.8-.5,1.1Z"/>
  <path class="st1" d="M100.1,9c-.3-1.6-.8-2.7-1.4-3.6.5.9,1,2,1.4,3.6,0,0,0,0,0,0Z"/>
  <path class="st1" d="M71.1,62.5c1.8-.6,3.6-.9,5.9-.9s1.2,0,2.1.1v-.2c-.4,0-1,0-1.8,0-2.5,0-4.4.4-6.2,1Z"/>
  <path class="st1" d="M55.7,68.5c.2,0,.3-.1.5-.2,2.5-.8,4.5-1.5,6.3-2.2,0,0,0,0,0,0-1.7.7-3.7,1.4-6.1,2.1-.2,0-.5.2-.7.3Z"/>
  <path class="st1" d="M34.2,94.6c2,9.4,7.2,19.4,18.8,24.6-11.5-5.2-16.7-15.2-18.8-24.6Z"/>
  <path class="st1" d="M75.3,82.8s2.5-1.5,3-3.8c.1-.3-.1-.6-.4-.7.2.1.4.3.3.7-.5,2.3-3,3.8-3,3.8,1.8,2,3.5,3.6,5.2,4.7,2.2,1.5,4.1,1.6,5.1,1.5-1,0-2.9-.2-5-1.5-1.7-1.1-3.4-2.7-5.2-4.7Z"/>
  <path class="st1" d="M47,85.3c2.9,6.3,8.1,10.1,15.2,11.7,0,0,0,0,0,0-7-1.6-12.3-5.4-15.2-11.6Z"/>
  <path class="st1" d="M24,29s0,0,0,0c0-2.8,4.1-4.7,6.4-2.4,0,0,0-.2-.1-.3-2.3-2.2-6.2-1.1-6.2,2.6Z"/>
  <path class="st1" d="M85.5,90.7c.4-.1.8-.4,1.2-.7.6-.5,0-1-.5-1s0,0,0,0c.5,0,1,.5.5,1-.4.3-.8.5-1.2.7-.3.1-.5.2-.8.3.3,0,.6-.1.9-.3h0Z"/>
  <path class="st1" d="M63.2,105.2c.6-12.4,7.7-20.1,8.4-20.6.1-.1.2-.2.3-.2-.1,0-.3.1-.4.2-.7.5-7.8,8.2-8.4,20.6,0,.2-.1.5-.3.5.2,0,.4-.2.4-.5Z"/>
  <path class="st0" d="M100.1,9.2c0,0,0-.1,0-.2,0,0,0,0,0,0,0,0,0,.1,0,.2Z"/>
  <path class="st0" d="M100.3,12.9c.1-1.5,0-2.7-.2-3.7-.8-1.2-2-1.8-3.2-1.8-2,0-4.2,1.6-4.7,4.4h-.1c-.6,2.8-9.3,44.5-9.6,46.4,0,.5-.3.8-.5,1.1v3.2c.9.6,1.5,1,2.2,1.5,4.6,3.4,8.3,6.4,10.7,8.5.5-8.6,1.2-19.6,1.5-22.5.3-3.2,3.6-32.2,3.9-37.1Z"/>
  <path class="st0" d="M95.4,102.7c5-8.6,5.4-16.8,2.7-21.5-2.7-4.7-13.4-13-16.9-15.8-1-.8-2.3-1.2-3.7-1.3-1.4,0-2.8.2-4.2.8-2.7,1.1-13.8,5.1-16,6-4,1.7-2.7,9.9,2,10.7.2,0,.5,0,.7.1h0c-.4-.3-.6-.6-.6-.8,0-.4.3-.7.8-.7.7,0,1.4,0,2.1-.1.7-.1,1.5-.3,2.2-.5,1.1-.3,2.2-.7,3.3-1.1.7-.3,1.4-.6,2-.9,1-.4,1.8-.9,2.5-1.3.5-.3.9-.5,1.2-.7.3-.2.6-.3.7-.4,3.7-2.1,6.2.4,6.9,1.1.7.7,7.9,8.2,8.9,9.7.3.4.4.9.4,1.5,0,1.7-1.6,3.7-4.9,3.2,0,0,0,0,0,0,0,0,0,0,0,0h0c-.3.1-.6.2-.9.3-4.4,1-10.6-4.3-11.7-6.4-.1-.3-.6-.4-1-.2-.1,0-.2.1-.3.2-.7.5-7.8,8.2-8.4,20.6,0,.3-.2.5-.4.5-.1,0-.3,0-.4-.3-1.1-2-.9-5.1-.2-8.3,0,0,0,0,0,0-7.1-1.6-12.3-5.5-15.2-11.7-2.3-4.8-3.2-11-2.5-18.7,0,0,0,0,0-.1-4.5-5.9-4.1-9.8-4.7-11.2-.9-2.5-8.5-26-9-27.7,0-.2-.1-.5-.2-.7,0,0,0-.2-.1-.2-2.3-2.3-6.3-.4-6.4,2.4,0,4.1,4.3,29.6,5.2,32.7,2.2,8.8,1.9,19,5,32.8,2.1,9.4,7.3,19.4,18.8,24.6,4.2,1.2,8.1,1.8,11.9,1.9,6.2.1,11.7-1.2,16.7-3.8,7.1-4.2,10.9-9.6,13.8-14.6Z"/>
  <path class="st0" d="M48.6,46.8c-.6.6-1.1,1.4-1.7,2.3h0c-1.2,2.1-1.5,5.9-1.5,8.2.2,4,1.3,7.6,1.8,9.5,0-1.1.5-2.5,1.9.7.6,1.2,2.6,2.1,5,2.2.5-.5,1-.9,1.6-1.2.2-.1.5-.2.7-.3,2.4-.8,4.4-1.4,6.1-2.1.2-6.3-.3-14.5-2.5-19.4,0,0,0-.1,0-.2-2.3-2.4-7.4-4-11.4.3Z"/>
  <path class="st0" d="M77.3,61.5c.8,0,1.4,0,1.8,0v-1.4c0-2.4-.2-8.2-2.2-12.9,0-.1-.1-.3-.2-.4-2.4-2.5-7.4-4.5-11.5-.4-.5.6-1.1,1.2-1.6,2h-.1c1.2,4.1,1.8,10.5,1.9,16.5,2.2-1,3.9-1.8,5.7-2.4,1.9-.6,3.8-1,6.2-1Z"/>
  <path class="st3" d="M92.1,11.8c.6-2.9,2.8-4.5,4.8-4.4,1.2,0,2.4.6,3.2,1.8,0,0,0-.1,0-.2-.3-1.6-.9-2.7-1.4-3.6-3.3-1.5-7.8,0-9.4,5.3-1.1,3.7-8.1,37.9-8.3,39.4.8,3,1,5.9,1,9.2.2-.3.4-.7.5-1.1.3-1.9,9-43.6,9.6-46.4Z"/>
  <path class="st3" d="M34.2,94.6c-3.1-13.8-2.8-24-5-32.8-.9-3.1-5.2-28.6-5.2-32.7,0,0,0,0,0,0,0-3.7,3.9-4.8,6.2-2.6-.8-1.3-2.2-2.9-4.4-3.1.2,0,.3,0,.5,0-.1,0-.3,0-.4,0-2.9.5-5.4,3-4.9,7,.7,5,3.6,23.6,4.4,27.7,4,19.2,1.7,20.5,6,38.4,1.9,8.2,5.6,14.2,10.1,18.5.2,0,.4.1.6.2,3.8,1.8,7.5,3.2,10.9,4.2-11.6-5.2-16.8-15.2-18.8-24.6Z"/>
  <path class="st3" d="M76.7,46.8c-.5-1-1.1-2.1-1.8-3-.1-.2,0-.6,0-.9,0,0,.1,0,.2,0,0,0,0,0,0,0-.9-.5-1.9-.8-2.8-1-4-.7-7.7.6-9.8,4.1.4.6.7,1.5,1,2.6h0c.5-.9,1.1-1.6,1.7-2.2,4.1-4.1,9.1-2.1,11.5.4Z"/>
  <path class="st3" d="M43.4,57.2c0-.3.2-.5.4-.6.5-.5,1.3-.2,1.5.7,0-2.3.4-6.1,1.5-8.1.6-1,1.1-1.7,1.8-2.4,4-4.3,9-2.7,11.4-.3-.5-1.1-1.1-2-1.8-2.7s-.4-1-.2-1.4c0,0,0,0,0,0,0,0,0,0,0,0-1-.4-2.1-.6-3.4-.6-5.4-.2-10.5,2.6-12.4,13.7,0,0,0,2.5,1.2,4-.2-1.3,0-2,0-2.3Z"/>
  <path class="st3" d="M86.7,90c-.4.3-.8.6-1.2.7,0,0,0,0,0,0,0,0,0,0,0,0,3.2.5,4.8-1.5,4.9-3.2,0-.6-.1-1.1-.4-1.5-1-1.5-8.2-9-8.9-9.7-.7-.7-3.2-3.2-6.9-1.1-.2,0-.4.2-.7.4-.3.2-.7.4-1.2.7-.7.4-1.6.8-2.5,1.3-.6.3-1.3.6-2,.9-1.1.4-2.2.8-3.3,1.1-.7.2-1.5.4-2.2.5-.7.1-1.4.2-2.1.1-.5,0-.9.3-.8.7,0,.2.2.5.6.7h0c5.2.8,10.6.5,14.3-1.1,1.2-.5,2.2-1.2,3-2.1.1-.1.4-.2.5-.1,0,0,0,0,0,0,0,0,0,0,0,0,.3,0,.5.3.4.7-.5,2.3-3,3.8-3,3.8,1.8,2,3.5,3.6,5.2,4.7,2.1,1.3,3.9,1.5,5,1.5.3,0,.5,0,.6,0s0,0,0,0c0,0,0,0,0,0,.6,0,1.1.5.5,1Z"/>
  <path class="st3" d="M49.1,67.6c-1.4-3.2-1.7-1.7-1.9-.7,0,.5.2.9.3,1.2.4,2.9.4,5.3,1.2,7.3.7,1.6,2,2.8,3.6,3.4-1.1-3.3,0-6.9,1.7-9,0,0,0,0,0,0-2.3-.2-4.3-1-4.9-2.2Z"/>
  <path class="st3" d="M47,85.3c2.9,6.2,8.2,10.1,15.2,11.6,1.1-5.1,3.5-10.4,4.4-11.6-6.2.4-10-1.1-12.2-3.3-9-.6-9-11.4-9.5-15-.2-.2-.3-.3-.4-.5-.7,7.7.2,13.9,2.5,18.7Z"/>
  <path class="st2" d="M97.6,75.3h0c1.6-18.4,3.3-44.2,4.9-61.8.4-4.2-1.5-7-3.9-8.1.6.9,1.1,2,1.4,3.6,0,0,0,.1,0,.2.2,1,.3,2.2.2,3.7-.3,4.9-3.6,33.9-3.9,37.1-.3,2.9-1,13.9-1.5,22.5,0,0,0,0,0,0-2.4-2.1-6.1-5.2-10.8-8.6-.7-.5-1.3-.9-2.2-1.5v-3.2c0-3.3-.2-6.2-1-9.2-1.2-3.5-3.4-5.9-5.8-7.1,0,0-.1,0-.2,0,0,.3-.1.7,0,.9.7.9,1.3,1.9,1.8,3,0,.1.1.3.2.4,2,4.7,2.2,10.5,2.2,12.9v1.6c-.9-.1-1.5-.1-2.1-.1-2.3,0-4.2.3-5.9.9-1.8.6-3.5,1.4-5.7,2.4-.1,0-.2,0-.3.1,0-6-.7-12.4-1.9-16.4-.3-1.1-.6-1.9-1-2.6-.8-1.4-2.2-2.8-4.2-3.6,0,0,0,0,0,0-.2.4-.3.9.2,1.4s1.3,1.6,1.8,2.7c0,0,0,.1,0,.2,2.2,4.9,2.7,13.1,2.5,19.4,0,0,0,0,0,0-1.8.7-3.8,1.4-6.3,2.2-.2,0-.3.1-.5.2-.6.3-1.1.7-1.6,1.2,0,0,0,0,0,0,0,0,0,0,0,0-1.8,2.1-2.8,5.7-1.7,9,0,0,0,0,0,0-1.7-.6-3.1-1.8-3.8-3.5-.8-2-.8-4.4-1.2-7.3,0-.3,0-.6-.3-1.2-.5-1.9-1.7-5.5-1.8-9.5-.1-.9-.9-1.2-1.4-.8-.2.1-.3.3-.4.6,0,.3-.2,1,0,2.3,0,0,0,0,0,.1-1.3-1.5-1.2-4-1.2-4-.3-1.1-8.7-25.6-9.8-28.4-1.1-3-3.7-4.1-6.1-3.9-.2,0-.3,0-.5,0,2.2.2,3.6,1.8,4.4,3.1,0,0,0,.2.1.3,0,0,0,.2.1.2,0,.2.2.5.2.7.5,1.7,8.1,25.2,9,27.7.6,1.4.2,5.3,4.7,11.2,0,0,0,0,0,.1.1.2.2.3.4.5.5,3.6.5,14.4,9.5,15,2.2,2.2,6,3.7,12.2,3.3-.9,1.2-3.3,6.5-4.4,11.6,0,0,0,0,0,0,0,0,0,0,0,0-.7,3.2-.9,6.3.2,8.3.1.3.3.3.4.3.2,0,.3-.3.3-.5.6-12.4,7.7-20.1,8.4-20.6.1-.1.3-.2.4-.2.4-.1.8,0,1,.2,1,2.1,7.3,7.3,11.7,6.4.3,0,.6-.1.8-.3.4-.2.8-.4,1.2-.7.6-.5,0-1-.5-1,0,0,0,0,0,0-.1,0-.3,0-.6,0-1,0-2.8,0-5.1-1.5-1.7-1.1-3.4-2.7-5.2-4.7,0,0,2.5-1.5,3-3.8,0-.3,0-.6-.3-.7,0,0,0,0,0,0,0,0,0,0,0,0-.2,0-.4,0-.5.1-.8.8-1.8,1.5-3,2.1-3.7,1.7-9.1,2-14.4,1.2-.3,0-.5,0-.7,0-4.7-.8-6-9-2-10.7,2.2-.9,13.3-4.9,16-6,1.4-.6,2.9-.8,4.3-.8,1.4,0,2.7.5,3.7,1.3,3.5,2.8,14.2,11.1,16.9,15.8,2.7,4.7,2.3,12.9-2.7,21.5-2.9,5-6.7,10.4-13.8,14.6-5,2.5-10.6,3.9-16.7,3.8-3.7,0-7.7-.7-12-1.9-3.5-1-7.1-2.4-10.9-4.2-.2,0-.4-.2-.6-.2,11.7,11.1,29.6,10.4,40.6,5.5,13.5-6.1,19.6-24.6,20.3-27.9,1.7-8-1.1-13.4-4.7-17.1Z"/>
</svg>