<?xml version="1.0" encoding="UTF-8"?>
<svg id="Layer_2_copy" xmlns="http://www.w3.org/2000/svg" version="1.1" viewBox="0 0 128 128">
  <!-- Generator: Adobe Illustrator 29.8.3, SVG Export Plug-In . SVG Version: 2.1.1 Build 3)  -->
  <defs>
    <style>
      .st0 {
        fill: #ffca28;
      }

      .st1 {
        fill: #b55e19;
      }

      .st2 {
        fill: #faa700;
      }
    </style>
  </defs>
  <path class="st0" d="M92.1,11.8c-.6,2.8-9.3,44.5-9.6,46.4,0,.5-.3.8-.5,1.1,0,1,0,2.1,0,3.2.9.6,1.5,1,2.2,1.5,4.7,3.4,8.4,6.5,10.8,8.6.5-8.6,1.2-19.7,1.5-22.6.3-3.2,3.6-32.2,3.9-37.1,0-1.4,0-2.6-.2-3.7-2.1-3.3-7.1-2-8,2.6Z"/>
  <path class="st0" d="M24,29c0,3.9,4.3,29.7,5.2,32.8,2.2,8.8,1.9,19,5,32.8,2.1,9.4,7.3,19.4,18.8,24.6,11.2,3.2,20.6,2.2,28.7-1.9,7.1-4.2,10.9-9.6,13.8-14.6,5-8.6,5.4-16.8,2.7-21.5-2.7-4.7-13.4-13-16.9-15.8-2-1.6-5.2-1.6-8-.5-2.7,1.1-13.8,5.1-16,6-4,1.7-2.7,9.9,2,10.7.2,0,.5,0,.7.1,0,0,0,0-.1-.1-1.1-.6-.6-1.5.2-1.4,5.4.2,12.9-4.3,14.1-5,3.7-2.1,6.2.4,6.9,1.1.7.7,7.9,8.2,8.9,9.7,1.2,1.7-.2,5.4-4.5,4.7-4.4,1.8-11.4-3.9-12.5-6.1-.2-.5-.9-.5-1.4,0-.7.5-7.8,8.2-8.4,20.6,0,.4-.4.8-.7.2-1-1.9-.9-5.1-.2-8.3-12.6-2.8-19.3-12.8-17.8-30.6-4.5-5.9-4.2-9.8-4.7-11.2-.9-2.5-8.5-26-9-27.7,0-.2-.1-.4-.2-.7-2.2-2.7-6.6-.7-6.6,2.2Z"/>
  <path class="st0" d="M46.9,49.2c-1.2,2-1.5,5.8-1.5,8.1,0,0,0,0,0,0,.2,4,1.3,7.6,1.8,9.5.1-1.1.5-2.5,1.9.7.6,1.2,2.7,2.1,5.1,2.2.6-.7,1.4-1.3,2.2-1.5,2.5-.8,4.5-1.5,6.3-2.2.2-6.4-.3-14.5-2.5-19.4-2.6-2.9-9.1-4.8-13.3,2.5Z"/>
  <path class="st0" d="M63.5,48.5s0,0,0,0c1.2,4,1.8,10.4,1.9,16.4,4.5-2,7.1-3.4,11.9-3.4s1.2,0,2.1.1v-1.6c0-2.4-.1-8.2-2.2-12.9-2.6-3-9.1-5.8-13.6,1.3Z"/>
  <path class="st2" d="M82,59.3c.2-.3.4-.7.5-1.1.3-1.9,9-43.6,9.6-46.4.9-4.6,5.9-5.9,8-2.6-.3-1.7-.9-2.9-1.4-3.8-3.3-1.5-7.8,0-9.4,5.3-1.1,3.7-8.1,37.9-8.3,39.4.8,3,1,5.9,1,9.2Z"/>
  <path class="st2" d="M53,119.2c-11.6-5.2-16.8-15.2-18.8-24.6-3.1-13.8-2.8-24-5-32.8-.9-3.1-5.2-28.9-5.2-32.8s4.4-4.9,6.6-2.2c-.7-1.5-2.2-3.5-4.7-3.6-2.9.5-5.4,3-4.9,7,.7,5,3.6,23.6,4.4,27.7,4,19.2,1.7,20.5,6,38.4,1.9,8.2,5.6,14.2,10.1,18.5.2,0,.4.1.6.2,3.8,1.8,7.5,3.2,10.9,4.2Z"/>
  <path class="st2" d="M63.5,48.5c4.5-7.1,11.1-4.3,13.6-1.3-.5-1.2-1.2-2.4-2-3.4-.2-.2-.2-.6,0-.9-.9-.5-1.9-.8-2.8-1-4-.7-7.7.6-9.8,4.1.4.6.7,1.5,1,2.6,0,0,0,0,0,0Z"/>
  <path class="st2" d="M43.5,59.5c-.1-1.4,0-2.1,0-2.4.3-1.1,1.6-1,1.8.2,0-2.3.4-6.1,1.5-8.1,4.2-7.3,10.7-5.4,13.3-2.5-.5-1.2-1.2-2.2-1.9-2.9-.5-.5-.4-1-.2-1.4-1-.4-2.1-.6-3.4-.6-5.4-.2-10.5,2.6-12.4,13.7,0,0,0,2.5,1.2,4Z"/>
  <path class="st2" d="M90,86c-1-1.5-8.2-9-8.9-9.7-.7-.7-3.2-3.2-6.9-1.1-1.2.7-8.7,5.2-14.1,5-.8,0-1.3.8-.2,1.4,0,0,0,0,.1.1,7,1,14.3,0,17.4-3.3.3-.3,1.1,0,.9.6-.5,2.3-3,3.8-3,3.8,1.8,2,3.5,3.6,5.2,4.7,2.9,1.9,5.5,1.5,5.7,1.5.6,0,1.1.5.5,1-.4.3-.8.6-1.2.7,4.3.7,5.7-3.1,4.5-4.7Z"/>
  <path class="st2" d="M49.1,67.6c-1.4-3.2-1.7-1.7-1.9-.7.1.5.2.9.3,1.2.4,2.9.4,5.3,1.2,7.3.7,1.7,2.1,2.9,3.8,3.5-1.1-3.2-.1-7,1.7-9.1-2.4-.2-4.5-1-5.1-2.2Z"/>
  <path class="st2" d="M62.3,97c1.1-5.1,3.5-10.5,4.4-11.7-6.2.4-10-1.1-12.2-3.3-9-.6-9-11.4-9.5-15-.2-.2-.3-.4-.5-.6-1.6,17.8,5.2,27.8,17.8,30.6Z"/>
  <path class="st1" d="M97.7,75.3c1.6-18.4,3.3-44.2,4.9-61.8.4-4.2-1.5-7-3.9-8.1.6.9,1.1,2.1,1.4,3.8.2,1,.3,2.2.2,3.7-.3,4.9-3.6,33.9-3.9,37.1-.3,2.9-1,14-1.5,22.6-2.4-2.1-6.1-5.2-10.8-8.6-.7-.5-1.3-.9-2.2-1.5,0-1.1,0-2.2,0-3.2,0-3.3-.2-6.2-1-9.2-1.2-3.6-3.5-6-6-7.2,0,.3-.1.7,0,.9.8,1,1.5,2.2,2,3.4,2,4.7,2.2,10.5,2.2,12.9v1.6c-.9-.1-1.5-.1-2.1-.1-4.8,0-7.4,1.4-11.9,3.4,0-6-.7-12.4-1.9-16.4-.3-1.1-.6-1.9-1-2.6-.8-1.4-2.2-2.8-4.3-3.6-.2.4-.3.9.2,1.4.7.7,1.4,1.7,1.9,2.9,2.2,4.9,2.7,13.1,2.5,19.4-1.8.7-3.8,1.4-6.3,2.2-.8.2-1.6.8-2.2,1.5-1.8,2.1-2.8,5.8-1.7,9.1-1.7-.6-3.1-1.8-3.8-3.5-.8-2-.8-4.4-1.2-7.3,0-.3-.1-.6-.3-1.2-.5-1.9-1.7-5.5-1.8-9.5,0,0,0,0,0,0-.2-1.2-1.5-1.3-1.8-.2,0,.3-.2,1,0,2.4-1.3-1.5-1.2-4-1.2-4-.3-1.1-8.7-25.6-9.8-28.4-1.2-3.2-4.1-4.3-6.6-3.9,2.5.2,4,2.2,4.7,3.6.1.2.2.5.2.7.5,1.7,8.1,25.2,9,27.7.6,1.4.2,5.3,4.7,11.2.2.2.3.4.5.6.5,3.6.5,14.4,9.5,15,2.2,2.2,6,3.7,12.2,3.3-.9,1.2-3.3,6.6-4.4,11.7-.7,3.2-.9,6.3.2,8.3.3.6.7.2.7-.2.6-12.4,7.7-20.1,8.4-20.6.5-.4,1.2-.4,1.4,0,1.1,2.2,8.1,8,12.5,6.1.4-.2.8-.4,1.2-.7.6-.5,0-1-.5-1s-2.8.4-5.7-1.5c-1.7-1.1-3.4-2.7-5.2-4.7,0,0,2.5-1.5,3-3.8.2-.7-.6-.9-.9-.6-3.1,3.4-10.4,4.3-17.4,3.3-.3,0-.5,0-.7-.1-4.7-.8-6-9-2-10.7,2.2-.9,13.3-4.9,16-6,2.8-1.1,6-1.1,8,.5,3.5,2.8,14.2,11.1,16.9,15.8,2.7,4.7,2.3,12.9-2.7,21.5-2.9,5-6.7,10.4-13.8,14.6-8.1,4.1-17.5,5.1-28.7,1.9-3.5-1-7.1-2.4-10.9-4.2-.2-.1-.4-.2-.6-.2,11.7,11.1,29.6,10.4,40.6,5.5,13.5-6.1,19.6-24.6,20.3-27.9,1.7-8-1.1-13.4-4.7-17.1Z"/>
</svg>