<svg width="34" height="34" viewBox="0 0 34 34" fill="none" xmlns="http://www.w3.org/2000/svg">
<path d="M0 17C0 7.61116 7.61116 0 17 0C26.3888 0 34 7.61116 34 17C34 26.3888 26.3888 34 17 34C7.61116 34 0 26.3888 0 17Z" fill="#5CE1E6"/>
<path d="M15.5845 17.0009H9.65907M9.56786 17.3093L7.05233 24.6897C6.85471 25.2695 6.7559 25.5594 6.82681 25.738C6.88839 25.893 7.02065 26.0105 7.18385 26.0553C7.37178 26.1068 7.65563 25.9813 8.22332 25.7304L26.2275 17.7729C26.7816 17.528 27.0586 17.4055 27.1442 17.2354C27.2186 17.0876 27.2186 16.9142 27.1442 16.7664C27.0586 16.5963 26.7816 16.4738 26.2274 16.2289L8.21704 8.26863C7.65106 8.01847 7.36807 7.8934 7.18033 7.94471C7.01728 7.98927 6.88504 8.10649 6.82324 8.26124C6.75209 8.43943 6.84984 8.72871 7.04536 9.30727L9.56857 16.7739C9.60214 16.8733 9.61893 16.923 9.62556 16.9738C9.63144 17.0189 9.63138 17.0645 9.62538 17.1096C9.61862 17.1604 9.6017 17.2101 9.56786 17.3093Z" stroke="#11141C" stroke-width="2" stroke-linecap="round" stroke-linejoin="round"/>
</svg>
