<svg width="7" height="7" viewBox="0 0 7 7" fill="none" xmlns="http://www.w3.org/2000/svg">
<path fill-rule="evenodd" clip-rule="evenodd" d="M2.47027 4.29358L5.34027 0.135582C5.36453 0.100583 5.39563 0.0708642 5.43169 0.0482224C5.46775 0.0255805 5.50803 0.0104854 5.55009 0.00384908C5.59215 -0.00278722 5.63512 -0.000826888 5.6764 0.00961166C5.71769 0.0200502 5.75642 0.0387503 5.79027 0.0645817L6.24877 0.413082C6.38627 0.518082 6.41377 0.713082 6.31127 0.851082L2.74027 5.66358C2.7138 5.69933 2.68006 5.72907 2.64127 5.75084C2.60248 5.77262 2.55951 5.78592 2.5152 5.78989C2.4709 5.79386 2.42625 5.7884 2.38421 5.77387C2.34216 5.75933 2.30368 5.73606 2.27127 5.70558L2.24777 5.68358C2.22183 5.66868 2.19753 5.65108 2.17527 5.63108L0.139274 3.80458C0.0575576 3.73115 0.00786675 3.62862 0.000856586 3.51898C-0.00615358 3.40934 0.0300751 3.30132 0.101774 3.21808L0.363774 2.91208C0.400816 2.86891 0.446241 2.83371 0.497295 2.80863C0.548348 2.78354 0.603966 2.76909 0.660773 2.76614C0.717581 2.7632 0.774395 2.77182 0.82777 2.79149C0.881144 2.81116 0.929966 2.84147 0.971274 2.88058L2.46927 4.29358H2.47027Z" fill="#E9EEF7"/>
</svg>
