<svg width="42" height="38" viewBox="0 0 42 38" fill="none" xmlns="http://www.w3.org/2000/svg">
<path d="M0 14C0 6.26801 6.26801 0 14 0H28C35.732 0 42 6.26801 42 14V24C42 31.732 35.732 38 28 38H14C6.26801 38 0 31.732 0 24V14Z" fill="#11141C"/>
<path d="M21 22.5H16.5C15.1044 22.5 14.4067 22.5 13.8389 22.6722C12.5605 23.06 11.56 24.0605 11.1722 25.3389C11 25.9067 11 26.6044 11 28M28 28V22M25 25H31M23.5 14.5C23.5 16.9853 21.4853 19 19 19C16.5147 19 14.5 16.9853 14.5 14.5C14.5 12.0147 16.5147 10 19 10C21.4853 10 23.5 12.0147 23.5 14.5Z" stroke="#5CE1E6" stroke-width="2" stroke-linecap="round" stroke-linejoin="round"/>
</svg>
