<svg width="75" height="27" viewBox="0 0 75 27" fill="none" xmlns="http://www.w3.org/2000/svg">
<path d="M8 0.5H67C71.1421 0.500001 74.5 3.85787 74.5 8V19C74.5 23.1421 71.1421 26.5 67 26.5H8C3.85787 26.5 0.5 23.1421 0.5 19V8C0.5 3.85786 3.85786 0.5 8 0.5Z" fill="#11141C"/>
<path d="M8 0.5H67C71.1421 0.500001 74.5 3.85787 74.5 8V19C74.5 23.1421 71.1421 26.5 67 26.5H8C3.85787 26.5 0.5 23.1421 0.5 19V8C0.5 3.85786 3.85786 0.5 8 0.5Z" stroke="url(#paint0_linear_456_4362)"/>
<path d="M8.19141 18.84H20.1914V6.84H8.19141V18.84ZM21.2482 18V9.27273H26.4812V10.2102H22.305V13.1591H26.0891V14.0966H22.305V18H21.2482ZM30.3335 18.1364C29.7425 18.1364 29.2241 17.9957 28.7781 17.7145C28.3349 17.4332 27.9883 17.0398 27.7383 16.5341C27.4911 16.0284 27.3675 15.4375 27.3675 14.7614C27.3675 14.0795 27.4911 13.4844 27.7383 12.9759C27.9883 12.4673 28.3349 12.0724 28.7781 11.7912C29.2241 11.5099 29.7425 11.3693 30.3335 11.3693C30.9244 11.3693 31.4414 11.5099 31.8846 11.7912C32.3306 12.0724 32.6772 12.4673 32.9244 12.9759C33.1744 13.4844 33.2994 14.0795 33.2994 14.7614C33.2994 15.4375 33.1744 16.0284 32.9244 16.5341C32.6772 17.0398 32.3306 17.4332 31.8846 17.7145C31.4414 17.9957 30.9244 18.1364 30.3335 18.1364ZM30.3335 17.233C30.7823 17.233 31.1516 17.1179 31.4414 16.8878C31.7312 16.6577 31.9457 16.3551 32.0849 15.9801C32.2241 15.6051 32.2937 15.1989 32.2937 14.7614C32.2937 14.3239 32.2241 13.9162 32.0849 13.5384C31.9457 13.1605 31.7312 12.8551 31.4414 12.6222C31.1516 12.3892 30.7823 12.2727 30.3335 12.2727C29.8846 12.2727 29.5153 12.3892 29.2255 12.6222C28.9357 12.8551 28.7212 13.1605 28.582 13.5384C28.4428 13.9162 28.3732 14.3239 28.3732 14.7614C28.3732 15.1989 28.4428 15.6051 28.582 15.9801C28.7212 16.3551 28.9357 16.6577 29.2255 16.8878C29.5153 17.1179 29.8846 17.233 30.3335 17.233ZM38.9595 15.3239V11.4545H39.9652V18H38.9595V16.892H38.8913C38.7379 17.2244 38.4993 17.5071 38.1754 17.7401C37.8516 17.9702 37.4425 18.0852 36.9482 18.0852C36.5391 18.0852 36.1754 17.9957 35.8572 17.8168C35.5391 17.6349 35.2891 17.3622 35.1072 16.9986C34.9254 16.6321 34.8345 16.1705 34.8345 15.6136V11.4545H35.8402V15.5455C35.8402 16.0227 35.9737 16.4034 36.2408 16.6875C36.5107 16.9716 36.8544 17.1136 37.272 17.1136C37.522 17.1136 37.7763 17.0497 38.0348 16.9219C38.2962 16.794 38.5149 16.598 38.6911 16.3338C38.87 16.0696 38.9595 15.733 38.9595 15.3239ZM42.8129 14.0625V18H41.8072V11.4545H42.7788V12.4773H42.864C43.0174 12.1449 43.2504 11.8778 43.5629 11.6761C43.8754 11.4716 44.2788 11.3693 44.7731 11.3693C45.2163 11.3693 45.604 11.4602 45.9364 11.642C46.2688 11.821 46.5273 12.0938 46.712 12.4602C46.8967 12.8239 46.989 13.2841 46.989 13.8409V18H45.9833V13.9091C45.9833 13.3949 45.8498 12.9943 45.5827 12.7074C45.3157 12.4176 44.9492 12.2727 44.4833 12.2727C44.1623 12.2727 43.8754 12.3423 43.6225 12.4815C43.3725 12.6207 43.1751 12.8239 43.0302 13.0909C42.8853 13.358 42.8129 13.6818 42.8129 14.0625ZM51.2983 18.1364C50.7528 18.1364 50.2713 17.9986 49.8537 17.723C49.4361 17.4446 49.1094 17.0526 48.8736 16.5469C48.6378 16.0384 48.5199 15.4375 48.5199 14.7443C48.5199 14.0568 48.6378 13.4602 48.8736 12.9545C49.1094 12.4489 49.4375 12.0582 49.858 11.7827C50.2784 11.5071 50.7642 11.3693 51.3153 11.3693C51.7415 11.3693 52.0781 11.4403 52.3253 11.5824C52.5753 11.7216 52.7656 11.8807 52.8963 12.0597C53.0298 12.2358 53.1335 12.3807 53.2074 12.4943H53.2926V9.27273H54.2983V18H53.3267V16.9943H53.2074C53.1335 17.1136 53.0284 17.2642 52.892 17.446C52.7557 17.625 52.5611 17.7855 52.3082 17.9276C52.0554 18.0668 51.7188 18.1364 51.2983 18.1364ZM51.4347 17.233C51.8381 17.233 52.179 17.1278 52.4574 16.9176C52.7358 16.7045 52.9474 16.4105 53.0923 16.0355C53.2372 15.6577 53.3097 15.2216 53.3097 14.7273C53.3097 14.2386 53.2386 13.8111 53.0966 13.4446C52.9545 13.0753 52.7443 12.7884 52.4659 12.5838C52.1875 12.3764 51.8438 12.2727 51.4347 12.2727C51.0085 12.2727 50.6534 12.3821 50.3693 12.6009C50.0881 12.8168 49.8764 13.1108 49.7344 13.483C49.5952 13.8523 49.5256 14.267 49.5256 14.7273C49.5256 15.1932 49.5966 15.6165 49.7386 15.9972C49.8835 16.375 50.0966 16.6761 50.3778 16.9006C50.6619 17.1222 51.0142 17.233 51.4347 17.233ZM59.0241 18.1364C58.3935 18.1364 57.8494 17.9972 57.392 17.7188C56.9375 17.4375 56.5866 17.0455 56.3395 16.5426C56.0952 16.0369 55.973 15.4489 55.973 14.7784C55.973 14.108 56.0952 13.517 56.3395 13.0057C56.5866 12.4915 56.9304 12.0909 57.3707 11.804C57.8139 11.5142 58.331 11.3693 58.9219 11.3693C59.2628 11.3693 59.5994 11.4261 59.9318 11.5398C60.2642 11.6534 60.5668 11.8381 60.8395 12.0938C61.1122 12.3466 61.3295 12.6818 61.4915 13.0994C61.6534 13.517 61.7344 14.0312 61.7344 14.642V15.0682H56.6889V14.1989H60.7116C60.7116 13.8295 60.6378 13.5 60.4901 13.2102C60.3452 12.9205 60.1378 12.6918 59.8679 12.5241C59.6009 12.3565 59.2855 12.2727 58.9219 12.2727C58.5213 12.2727 58.1747 12.3722 57.8821 12.571C57.5923 12.767 57.3693 13.0227 57.2131 13.3381C57.0568 13.6534 56.9787 13.9915 56.9787 14.3523V14.9318C56.9787 15.4261 57.0639 15.8452 57.2344 16.1889C57.4077 16.5298 57.6477 16.7898 57.9545 16.9688C58.2614 17.1449 58.6179 17.233 59.0241 17.233C59.2884 17.233 59.527 17.196 59.7401 17.1222C59.956 17.0455 60.142 16.9318 60.2983 16.7812C60.4545 16.6278 60.5753 16.4375 60.6605 16.2102L61.6321 16.483C61.5298 16.8125 61.358 17.1023 61.1165 17.3523C60.875 17.5994 60.5767 17.7926 60.2216 17.9318C59.8665 18.0682 59.4673 18.1364 59.0241 18.1364ZM63.2642 18V11.4545H64.2358V12.4432H64.304C64.4233 12.1193 64.6392 11.8565 64.9517 11.6548C65.2642 11.4531 65.6165 11.3523 66.0085 11.3523C66.0824 11.3523 66.1747 11.3537 66.2855 11.3565C66.3963 11.3594 66.4801 11.3636 66.5369 11.3693V12.392C66.5028 12.3835 66.4247 12.3707 66.3026 12.3537C66.1832 12.3338 66.0568 12.3239 65.9233 12.3239C65.6051 12.3239 65.321 12.3906 65.071 12.5241C64.8239 12.6548 64.6278 12.8366 64.483 13.0696C64.3409 13.2997 64.2699 13.5625 64.2699 13.858V18H63.2642Z" fill="url(#paint1_linear_456_4362)"/>
<defs>
<linearGradient id="paint0_linear_456_4362" x1="75" y1="27" x2="13.9034" y2="45.6201" gradientUnits="userSpaceOnUse">
<stop stop-color="#FF0004"/>
<stop offset="1" stop-color="#FFEA00"/>
</linearGradient>
<linearGradient id="paint1_linear_456_4362" x1="73.4756" y1="26.2941" x2="5.71389" y2="30.9769" gradientUnits="userSpaceOnUse">
<stop stop-color="#FFEA00"/>
<stop offset="1" stop-color="#FF0004"/>
</linearGradient>
</defs>
</svg>
