<?xml version="1.0" encoding="UTF-8"?>
<svg id="Layer_1" data-name="Layer 1" xmlns="http://www.w3.org/2000/svg" viewBox="0 0 316 202.67">
  <defs>
    <style>
      .cls-1 {
        fill: #fff;
      }
    </style>
  </defs>
  <path class="cls-1" d="M61.39,181.32c-3.28.54-11.42-4.06-24.43-13.81l-3.2-2.64-.19-1.16c.24-3.34-.36-9.44-1.82-18.31-1.34-8.16-4.2-26.43-8.59-54.8,8.13-5.95,16.13-13.47,24.01-22.54,4.45-5.48,7.02-8.28,7.73-8.39,8.04,4.75,12.5,7.05,13.4,6.91l-.06-.39c-.2-4.45-.37-7.06-.49-7.84-1.35-6.64-2.35-11.89-2.98-15.74l-.7-1.86c.71-.12,7.49-7.03,20.35-20.75l1.16-.19c.61,3.73,1.83,11.97,3.66,24.73,2.06,10.94,3.8,18.31,5.21,22.1,1.73-.28,6.6-4.38,14.61-12.29.26-.04.41.07.45.32,1.43,8.74-3.13,17.93-13.68,27.58l10.37,63.22c.2,1.22,3.47,4.25,9.8,9.08l.7,1.86.38,2.31c-.78.46-5.87,5.65-15.26,15.57l-.39.06c-12.39-9.58-18.63-14.62-18.71-15.14l-21.31,22.1ZM80.56,146.11l-3.92-23.9c-1.34-8.16-3-19.1-4.99-32.83-5.27.86-13.49-.16-24.65-3.08l-.39.06c1.83,12.76,3.32,22.68,4.48,29.74l.76,4.63c1.22,7.45,3.04,17.71,5.44,30.78,6.39,4.76,10.32,7.02,11.8,6.77l.77-.13c1.73-.28,5.3-4.3,10.69-12.05Z"/>
  <path class="cls-1" d="M233.29,160.22c-.08.51-6.32,5.56-18.71,15.14l-.39-.06c-9.39-9.92-14.48-15.11-15.26-15.57l.38-2.31.7-1.86c6.33-4.83,9.6-7.86,9.8-9.08l10.37-63.22c-10.55-9.65-15.12-18.84-13.68-27.58.04-.26.19-.36.45-.32,8,7.91,12.87,12.01,14.61,12.29,1.41-3.79,3.15-11.16,5.21-22.1,1.83-12.76,3.05-21.01,3.66-24.73l1.16.19c12.86,13.72,19.64,20.64,20.35,20.75l-.7,1.86c-.63,3.85-1.62,9.1-2.98,15.74-.13.77-.29,3.38-.49,7.84l-.06.39c.9.15,5.37-2.15,13.4-6.91.71.12,3.28,2.91,7.73,8.39,7.88,9.08,15.88,16.59,24.01,22.54-4.39,28.37-7.26,46.64-8.59,54.8-1.45,8.87-2.06,14.97-1.82,18.31l-.19,1.16-3.2,2.64c-13.01,9.74-21.16,14.34-24.43,13.81l-21.31-22.1ZM246.14,159.16l.77.13c1.48.24,5.41-2.01,11.8-6.77,2.41-13.06,4.22-23.32,5.44-30.78l.76-4.63c1.16-7.07,2.65-16.98,4.48-29.74l-.39-.06c-11.17,2.92-19.38,3.95-24.65,3.08-1.99,13.73-3.65,24.67-4.99,32.83l-3.92,23.9c5.39,7.75,8.96,11.76,10.69,12.05Z"/>
  <path class="cls-1" d="M155.88,35.53c7.88,3.97,21.42,12.44,40.62,25.39h.78v.78c0,1.69-1.95,3.91-5.86,6.64,0,.26-.13.65-.39,1.17.26,27.08.52,45.18.78,54.3,4.04,3.52,7.55,5.34,10.55,5.47h3.52l.78-.39v3.52c-4.95,5.86-9.38,9.38-13.28,10.55-3.84,4.95-6.84,7.42-8.98,7.42-1.17,0-7.03-4.3-17.58-12.89-2.48,0-7.68,3.52-15.62,10.55-3.06,2.08-5.14,3.12-6.25,3.12h-4.3c-.98,0-5.27-2.73-12.89-8.2-5.8-3.06-10.35-5.01-13.67-5.86v-.78c0-1.43,1.56-3.52,4.69-6.25.78-5.66,1.3-14.13,1.56-25.39l-1.17-45.7c3.19-2.02,10.61-5.92,22.27-11.72,6.9-5.34,11.59-9.24,14.06-11.72h.39ZM143.77,60.14l.78,63.67c7.88,5.47,12.43,8.2,13.67,8.2,5.66-3.38,8.79-5.08,9.38-5.08v-52.73c-5.86-5.66-12.24-10.61-19.14-14.84l-1.17-1.17-3.52,1.95Z"/>
</svg>