<?xml version="1.0" encoding="UTF-8"?>
<svg id="Layer_1" data-name="Layer 1" xmlns="http://www.w3.org/2000/svg" viewBox="0 0 316 202.67">
  <defs>
    <style>
      .cls-1 {
        fill: #e41e2f;
      }

      .cls-2 {
        fill: #fff;
      }

      .cls-3 {
        fill: none;
      }

      .cls-4 {
        fill: #00b29c;
      }
    </style>
  </defs>
  <path class="cls-4" d="M292.45,88.62c-7.64-5.59-15.31-12.79-22.78-21.4-6.96-8.57-8.87-10.29-11.96-10.8l-2.51-.41-2.19,1.29c-.47.28-.93.55-1.36.8.77-3.94,1.39-7.29,1.85-10.01l.46-1.22,1.39-5.3-4.98-3.78c-1.78-1.68-6.36-6.3-18.2-18.93l-1.63-1.74-2.35-.39-1.16-.19-6.91-1.13-1.13,6.91c-.61,3.71-1.81,11.8-3.66,24.72-.89,4.73-1.66,8.47-2.33,11.42-1.52-1.41-3.39-3.19-5.66-5.44l-1.59-1.57-2.2-.36c-.41-.07-.82-.1-1.23-.1-3.4,0-6.3,2.31-7.12,5.58h-1.09c-18.68-12.56-31.64-20.62-39.61-24.64l-1.49-.75h-4.95l-2.05,2.05c-1.52,1.52-4.97,4.6-12.85,10.71-10.82,5.39-17.88,9.09-21.51,11.29-.93-3.09-3.74-5.24-7.03-5.24-.41,0-.82.03-1.23.1l-2.2.36-1.59,1.57c-2.28,2.25-4.14,4.03-5.66,5.44-.66-2.95-1.44-6.69-2.33-11.42-1.85-12.92-3.05-21.01-3.66-24.72l-1.13-6.91-6.91,1.13-1.16.19-2.35.39-1.63,1.74c-11.84,12.63-16.42,17.25-18.2,18.93l-6.6,1.08,3.01,7.99.46,1.22c.46,2.72,1.08,6.07,1.85,10.01-.44-.26-.89-.52-1.36-.8l-2.19-1.29-2.51.41c-3.09.51-5,2.23-11.96,10.8-7.48,8.61-15.14,15.8-22.78,21.4l-3.43,2.51.65,4.21c4.37,28.23,7.26,46.69,8.6,54.86,1.78,10.86,1.86,15.1,1.74,16.66l-.06.83.13.82.19,1.16.43,2.6,2.03,1.67,3.2,2.64.13.1.13.1c17.89,13.4,24.07,15.24,28.07,15.24.58,0,1.14-.05,1.69-.13l2.29-.38,1.61-1.67,16.68-17.29c3.15,2.55,7.87,6.25,14.03,11.01l2.41,1.86,3-.49.39-.06,2.33-.38,1.62-1.71c10.27-10.85,13.28-13.8,14.16-14.6l3.71-2.17-.78-4.74-.38-2.31-.11-.68-.24-.65-.7-1.86-.71-1.88-1.6-1.22c-2.49-1.9-4.21-3.3-5.4-4.32,2.07.76,5.03,2.05,9.24,4.26,12.33,8.84,14.09,9.23,16.58,9.23h4.3c2.75,0,5.6-1.22,10.19-4.34l.37-.25.33-.29c4.98-4.41,8.01-6.64,9.77-7.77,3.85,3.1,7,5.55,9.38,7.29,4.4,3.23,6.68,4.58,9.41,4.58,2.99,0,5.85-1.25,8.97-4.02l-.6,1.6-.24.65-.11.68-.38,2.31-.78,4.74,3.71,2.17c.88.8,3.88,3.75,14.16,14.6l1.62,1.71,2.33.38.39.06,3,.49,2.41-1.86c6.16-4.76,10.88-8.47,14.03-11.01l16.68,17.29,1.61,1.67,2.29.38c.54.09,1.11.13,1.69.13,4.01,0,10.18-1.85,28.07-15.24l.13-.1.13-.1,3.2-2.64,2.03-1.67.43-2.6.19-1.16.13-.82-.06-.83c-.11-1.56-.04-5.8,1.74-16.66,1.34-8.18,4.24-26.63,8.6-54.86l.65-4.21-3.43-2.51Z"/>
  <path class="cls-1" d="M303.27,83.88c-7.64-5.59-15.31-12.79-22.78-21.4-6.96-8.57-8.87-10.29-11.96-10.8l-2.51-.41-2.19,1.29c-.47.28-.93.55-1.36.8.77-3.94,1.39-7.29,1.85-10.01l.46-1.22,1.39-5.3-4.98-3.78c-1.78-1.68-6.36-6.3-18.2-18.93l-1.63-1.74-2.35-.39-1.16-.19-6.91-1.13-1.13,6.91c-.61,3.71-1.81,11.8-3.66,24.72-.89,4.73-1.66,8.47-2.33,11.42-1.52-1.41-3.39-3.19-5.66-5.44l-1.59-1.57-2.2-.36c-.41-.07-.82-.1-1.23-.1-3.4,0-6.3,2.31-7.12,5.58h-1.09c-18.68-12.56-31.64-20.62-39.61-24.64l-1.49-.75h-4.95l-2.05,2.05c-1.52,1.52-4.97,4.6-12.85,10.71-10.82,5.39-17.88,9.09-21.51,11.29-.93-3.09-3.74-5.24-7.03-5.24-.41,0-.82.03-1.23.1l-2.2.36-1.59,1.57c-2.28,2.25-4.14,4.03-5.66,5.44-.66-2.95-1.44-6.69-2.33-11.42-1.85-12.92-3.05-21.01-3.66-24.72l-1.13-6.91-6.91,1.13-1.16.19-2.35.39-1.63,1.74c-11.84,12.63-16.42,17.25-18.2,18.93l-6.6,1.08,3.01,7.99.46,1.22c.46,2.72,1.08,6.07,1.85,10.01-.44-.26-.89-.52-1.36-.8l-2.19-1.29-2.51.41c-3.09.51-5,2.23-11.96,10.8-7.48,8.61-15.14,15.8-22.78,21.4l-3.43,2.51.65,4.21c4.37,28.23,7.26,46.69,8.6,54.86,1.78,10.86,1.86,15.1,1.74,16.66l-.06.83.13.82.19,1.16.43,2.6,2.03,1.67,3.2,2.64.13.1.13.1c17.89,13.4,24.07,15.24,28.07,15.24.58,0,1.14-.05,1.69-.13l2.29-.38,1.61-1.67,16.68-17.29c3.15,2.55,7.87,6.25,14.03,11.01l2.41,1.86,3-.49.39-.06,2.33-.38,1.62-1.71c10.27-10.85,13.28-13.8,14.16-14.6l3.71-2.17-.78-4.74-.38-2.31-.11-.68-.24-.65-.7-1.86-.71-1.88-1.6-1.22c-2.49-1.9-4.21-3.3-5.4-4.32,2.07.76,5.03,2.05,9.24,4.26,12.33,8.84,14.09,9.23,16.58,9.23h4.3c2.75,0,5.6-1.22,10.19-4.34l.37-.25.33-.29c4.98-4.41,8.01-6.64,9.77-7.77,3.85,3.1,7,5.55,9.38,7.29,4.4,3.23,6.68,4.58,9.41,4.58,2.99,0,5.85-1.25,8.97-4.02l-.6,1.6-.24.65-.11.68-.38,2.31-.78,4.74,3.71,2.17c.88.8,3.88,3.75,14.16,14.6l1.62,1.71,2.33.38.39.06,3,.49,2.41-1.86c6.16-4.76,10.88-8.47,14.03-11.01l16.68,17.29,1.61,1.67,2.29.38c.54.09,1.11.13,1.69.13,4.01,0,10.18-1.85,28.07-15.24l.13-.1.13-.1,3.2-2.64,2.03-1.67.43-2.6.19-1.16.13-.82-.06-.83c-.11-1.56-.04-5.8,1.74-16.66,1.34-8.18,4.24-26.63,8.6-54.86l.65-4.21-3.43-2.51Z"/>
  <g>
    <path class="cls-3" d="M249.99,94.07c-1.59,10.85-2.97,19.81-4.1,26.71l-3.46,21.07c2.35,3.26,3.9,5.13,4.85,6.18.98-.58,2.47-1.53,4.65-3.09,2.14-11.66,3.79-21.04,4.92-27.9l.76-4.63c.83-5.05,1.84-11.65,3.02-19.67-4,.76-7.54,1.2-10.65,1.33Z"/>
    <path class="cls-3" d="M69.35,119.78c-1.13-6.9-2.51-15.86-4.1-26.71-3.11-.13-6.65-.57-10.65-1.33,1.18,8.03,2.19,14.62,3.02,19.67l.76,4.63c1.13,6.86,2.78,16.24,4.92,27.9,2.18,1.56,3.67,2.51,4.65,3.09.96-1.05,2.5-2.92,4.85-6.18l-3.46-21.07Z"/>
    <path class="cls-3" d="M151.13,116.53c3.03,2.05,5,3.29,6.27,4.05,1.07-.62,2-1.16,2.82-1.61v-45.3c-3.08-2.82-6.33-5.44-9.71-7.87l.62,50.73Z"/>
    <path class="cls-3" d="M102.94,81.19l7.17,43.69c.52-.61,1.08-1.21,1.65-1.78.58-5.28.98-12.66,1.2-21.98l-.81-31.77c-2.21,3.95-5.28,7.9-9.2,11.85Z"/>
    <path class="cls-3" d="M197.69,68.55c.22,22.57.45,38.77.67,48.26,2.28,1.62,3.52,1.87,3.86,1.91h1.64l2.69-1.34,5.77-35.18c-5.53-5.56-9.34-11.13-11.46-16.68-.94,1.11-2.03,2.12-3.16,3.04Z"/>
    <path d="M115.61,150.98c-6.33-4.83-9.6-7.86-9.8-9.08l-10.37-63.22c10.55-9.65,15.12-18.84,13.68-27.58-.04-.22-.15-.33-.35-.33-.03,0-.07,0-.1,0-8,7.91-12.87,12.01-14.61,12.29-1.41-3.79-3.15-11.16-5.21-22.1-1.83-12.76-3.05-21.01-3.66-24.73l-1.16.19c-12.86,13.72-19.64,20.64-20.35,20.75l.7,1.86c.63,3.85,1.62,9.1,2.98,15.74.13.77.29,3.38.49,7.84l.06.39s-.06,0-.09,0c-1.08,0-5.52-2.3-13.31-6.91-.71.12-3.28,2.91-7.73,8.39-7.88,9.08-15.88,16.59-24.01,22.54,4.39,28.37,7.26,46.64,8.59,54.8,1.45,8.87,2.06,14.97,1.82,18.31l.19,1.16,3.2,2.64c12.33,9.23,20.29,13.85,23.88,13.85.2,0,.38-.01.55-.04l21.31-22.1c.08.51,6.32,5.56,18.71,15.14l.39-.06c9.39-9.92,14.48-15.11,15.26-15.57l-.38-2.31-.7-1.86ZM69.49,154.59l-.77.13c-.07.01-.15.02-.23.02-1.63,0-5.49-2.26-11.57-6.79-2.41-13.06-4.22-23.32-5.44-30.78l-.76-4.63c-1.16-7.07-2.65-16.98-4.48-29.74l.39-.06c8.62,2.25,15.47,3.38,20.58,3.38,1.51,0,2.87-.1,4.07-.3,1.99,13.73,3.65,24.67,4.99,32.83l3.92,23.9c-5.39,7.75-8.96,11.76-10.69,12.05Z"/>
    <path d="M292.47,88.04c-8.13-5.95-16.13-13.47-24.01-22.54-4.45-5.48-7.02-8.28-7.73-8.39-7.79,4.61-12.23,6.91-13.31,6.91-.03,0-.06,0-.09,0l.06-.39c.2-4.45.37-7.07.49-7.84,1.35-6.64,3.68-17.61,3.68-17.61-.71-.12-7.49-7.03-20.35-20.75l-1.16-.19c-.61,3.73-1.83,11.97-3.66,24.73-2.06,10.94-3.8,18.31-5.21,22.1-1.73-.28-6.6-4.38-14.61-12.29-.04,0-.07,0-.1,0-.19,0-.31.11-.35.33-1.43,8.74,3.13,17.93,13.68,27.58l-10.37,63.22c-.2,1.22-3.47,4.25-9.8,9.08l-.7,1.86-.38,2.31c.78.46,5.87,5.65,15.26,15.57l.39.06c12.39-9.58,18.63-14.62,18.71-15.14l21.31,22.1c.17.03.36.04.55.04,3.59,0,11.55-4.62,23.88-13.85l3.2-2.64.19-1.16c-.24-3.34.36-9.44,1.82-18.31,1.34-8.16,4.2-26.43,8.59-54.8ZM264.53,113.54l-.76,4.63c-1.22,7.45-3.04,17.71-5.44,30.78-6.08,4.53-9.93,6.79-11.57,6.79-.08,0-.16,0-.23-.02l-.77-.13c-1.73-.28-5.3-4.3-10.69-12.05l3.92-23.9c1.34-8.16,3-19.1,4.99-32.83,1.2.2,2.56.3,4.07.3,5.1,0,11.96-1.13,20.58-3.38l.39.06c-1.83,12.76-3.32,22.68-4.48,29.74Z"/>
    <path d="M193,139.39c3.37-1.01,7.13-3.78,11.28-8.28l.88-5.39h-3.18c-3-.13-6.51-1.95-10.55-5.47-.26-9.11-.52-27.21-.78-54.3.26-.52.39-.91.39-1.17,3.91-2.73,5.86-4.95,5.86-6.64v-.78h-.78c-19.21-12.95-32.75-21.42-40.63-25.39h-.39c-2.48,2.48-7.16,6.38-14.06,11.72-11.66,5.8-19.08,9.7-22.27,11.72l1.17,45.7c-.26,11.26-.78,19.73-1.56,25.39-3.12,2.73-4.69,4.82-4.69,6.25v.78c3.32.85,7.88,2.8,13.67,5.86,7.62,5.47,11.91,8.2,12.89,8.2h4.3c1.11,0,3.19-1.04,6.25-3.12,7.94-7.03,13.15-10.55,15.62-10.55,10.55,8.59,16.41,12.89,17.58,12.89,2.15,0,5.14-2.47,8.98-7.42ZM167.22,123.37c-.59,0-3.71,1.69-9.38,5.08-1.24,0-5.8-2.73-13.67-8.2l-.78-63.67,3.52-1.95,1.17,1.17c6.9,4.23,13.28,9.18,19.14,14.84v52.73Z"/>
    <path class="cls-2" d="M71.27,85.82c-1.2.2-2.56.3-4.07.3-5.1,0-11.96-1.13-20.58-3.38l-.39.06c1.83,12.76,3.32,22.68,4.48,29.74l.76,4.63c1.22,7.45,3.04,17.71,5.44,30.78,6.08,4.53,9.93,6.79,11.57,6.79.08,0,.16,0,.23-.02l.77-.13c1.73-.28,5.3-4.3,10.69-12.05l-3.92-23.9c-1.34-8.16-3-19.1-4.99-32.83ZM63.3,143.94c-2.14-11.66-3.79-21.04-4.92-27.9l-.76-4.63c-.83-5.05-1.84-11.64-3.02-19.67,4,.76,7.54,1.2,10.65,1.33,1.59,10.85,2.97,19.81,4.1,26.71l3.46,21.07c-2.35,3.26-3.9,5.13-4.85,6.18-.98-.58-2.47-1.53-4.65-3.09Z"/>
    <path class="cls-2" d="M248.05,87.11c-1.51,0-2.87-.1-4.07-.3-1.99,13.73-3.65,24.67-4.99,32.83l-3.92,23.9c5.39,7.75,8.96,11.76,10.69,12.05l.77.13c.07.01.15.02.23.02,1.63,0,5.49-2.26,11.57-6.79,2.41-13.06,4.22-23.32,5.44-30.78l.76-4.63c1.16-7.07,2.65-16.98,4.48-29.74l-.39-.06c-8.61,2.25-15.48,3.38-20.58,3.38ZM256.87,117.04c-1.13,6.86-2.78,16.24-4.92,27.9-2.18,1.56-3.67,2.51-4.65,3.09-.96-1.05-2.5-2.92-4.85-6.18l3.46-21.07c1.13-6.9,2.51-15.86,4.1-26.71,3.11-.13,6.65-.57,10.65-1.33-1.18,8.03-2.19,14.62-3.02,19.67l-.76,4.63Z"/>
    <path class="cls-2" d="M296.6,82.39c-7.64-5.59-15.31-12.79-22.78-21.4-6.96-8.57-8.87-10.29-11.96-10.8l-2.51-.41-2.19,1.29c-.47.28-.93.55-1.36.8.77-3.94,1.39-7.29,1.85-10.01l.46-1.22,1.39-5.3-4.98-3.78c-1.78-1.68-6.36-6.3-18.2-18.93l-1.63-1.74-2.35-.39-1.16-.19-6.91-1.13-1.13,6.91c-.61,3.71-1.81,11.8-3.66,24.72-.89,4.73-1.66,8.47-2.33,11.42-1.52-1.41-3.39-3.19-5.66-5.44l-1.59-1.57-2.2-.36c-.41-.07-.82-.1-1.23-.1-3.4,0-6.3,2.31-7.12,5.58h-1.09c-18.68-12.56-31.64-20.62-39.61-24.64l-1.49-.75h-4.95l-2.05,2.05c-1.52,1.52-4.97,4.6-12.85,10.71-10.82,5.39-17.88,9.09-21.51,11.29-.93-3.09-3.74-5.24-7.03-5.24-.41,0-.82.03-1.23.1l-2.2.36-1.59,1.57c-2.28,2.25-4.14,4.03-5.66,5.44-.66-2.95-1.44-6.69-2.33-11.42-1.85-12.92-3.05-21.01-3.66-24.72l-1.13-6.91-6.91,1.13-1.16.19-2.35.39-1.63,1.74c-11.84,12.63-16.42,17.25-18.2,18.93l-6.6,1.08,3.01,7.99.46,1.22c.46,2.72,1.08,6.07,1.85,10.01-.44-.26-.89-.52-1.36-.8l-2.19-1.29-2.51.41c-3.09.51-5,2.23-11.96,10.8-7.48,8.61-15.14,15.8-22.78,21.4l-3.43,2.51.65,4.21c4.37,28.23,7.26,46.69,8.6,54.86,1.78,10.86,1.86,15.1,1.74,16.66l-.06.83.13.82.19,1.16.43,2.6,2.03,1.67,3.2,2.64.13.1.13.1c17.89,13.4,24.07,15.24,28.07,15.24.58,0,1.14-.05,1.69-.13l2.29-.38,1.61-1.67,16.68-17.29c3.15,2.55,7.87,6.25,14.03,11.01l2.41,1.86,3-.49.39-.06,2.33-.38,1.62-1.71c10.27-10.85,13.28-13.8,14.16-14.6l3.71-2.17-.78-4.74-.38-2.31-.11-.68-.24-.65-.7-1.86-.71-1.88-1.6-1.22c-2.49-1.9-4.21-3.3-5.4-4.32,2.07.76,5.03,2.05,9.24,4.26,12.33,8.84,14.09,9.23,16.58,9.23h4.3c2.75,0,5.6-1.22,10.19-4.34l.37-.25.33-.29c4.98-4.41,8.01-6.64,9.77-7.77,3.85,3.1,7,5.55,9.38,7.29,4.4,3.23,6.68,4.58,9.41,4.58,2.99,0,5.85-1.25,8.97-4.02l-.6,1.6-.24.65-.11.68-.38,2.31-.78,4.74,3.71,2.17c.88.8,3.88,3.75,14.16,14.6l1.62,1.71,2.33.38.39.06,3,.49,2.41-1.86c6.16-4.76,10.88-8.47,14.03-11.01l16.68,17.29,1.61,1.67,2.29.38c.54.09,1.11.13,1.69.13,4.01,0,10.18-1.85,28.07-15.24l.13-.1.13-.1,3.2-2.64,2.03-1.67.43-2.6.19-1.16.13-.82-.06-.83c-.11-1.56-.04-5.8,1.74-16.66,1.34-8.18,4.24-26.63,8.6-54.86l.65-4.21-3.43-2.51ZM282.06,161.15l-.19,1.16-3.2,2.64c-12.33,9.23-20.29,13.85-23.88,13.85-.2,0-.38-.01-.55-.04l-21.31-22.1c-.08.51-6.32,5.56-18.71,15.14l-.39-.06c-9.39-9.92-14.48-15.11-15.26-15.57l.38-2.31.7-1.86c6.33-4.83,9.6-7.86,9.8-9.08l10.37-63.22c-10.55-9.65-15.12-18.84-13.68-27.58.04-.22.15-.33.35-.33.03,0,.07,0,.1,0,8,7.91,12.87,12.01,14.61,12.29,1.41-3.79,3.15-11.16,5.21-22.1,1.83-12.76,3.05-21.01,3.66-24.73l1.16.19c12.86,13.72,19.64,20.64,20.35,20.75,0,0-2.33,10.97-3.68,17.61-.13.77-.29,3.38-.49,7.84l-.06.39s.06,0,.09,0c1.08,0,5.52-2.3,13.31-6.91.71.12,3.28,2.91,7.73,8.39,7.88,9.08,15.88,16.59,24.01,22.54-4.39,28.37-7.26,46.64-8.59,54.8-1.45,8.87-2.06,14.97-1.82,18.31ZM166.44,133.92c-2.48,0-7.68,3.52-15.62,10.55-3.06,2.08-5.14,3.12-6.25,3.12h-4.3c-.98,0-5.27-2.73-12.89-8.2-5.8-3.06-10.35-5.01-13.67-5.86v-.78c0-1.43,1.56-3.52,4.69-6.25.78-5.66,1.3-14.13,1.56-25.39l-1.17-45.7c3.19-2.02,10.61-5.92,22.27-11.72,6.9-5.34,11.59-9.24,14.06-11.72h.39c7.88,3.97,21.42,12.44,40.63,25.39h.78v.78c0,1.69-1.95,3.91-5.86,6.64,0,.26-.13.65-.39,1.17.26,27.08.52,45.18.78,54.3,4.04,3.52,7.55,5.34,10.55,5.47h3.18l-.88,5.39c-4.15,4.5-7.91,7.27-11.28,8.28-3.84,4.95-6.84,7.42-8.98,7.42-1.17,0-7.03-4.3-17.58-12.89ZM101.43,170.73l-.39.06c-12.39-9.58-18.63-14.62-18.71-15.14l-21.31,22.1c-.17.03-.36.04-.55.04-3.59,0-11.55-4.62-23.88-13.85l-3.2-2.64-.19-1.16c.24-3.34-.36-9.44-1.82-18.31-1.34-8.16-4.2-26.43-8.59-54.8,8.13-5.95,16.13-13.47,24.01-22.54,4.45-5.48,7.02-8.28,7.73-8.39,7.79,4.61,12.23,6.91,13.31,6.91.03,0,.06,0,.09,0l-.06-.39c-.2-4.45-.37-7.07-.49-7.84-1.35-6.64-2.35-11.89-2.98-15.74l-.7-1.86c.71-.12,7.49-7.03,20.35-20.75l1.16-.19c.61,3.73,1.83,11.97,3.66,24.73,2.06,10.94,3.8,18.31,5.21,22.1,1.73-.28,6.6-4.38,14.61-12.29.04,0,.07,0,.1,0,.19,0,.31.11.35.33,1.43,8.74-3.13,17.93-13.68,27.58l10.37,63.22c.2,1.22,3.47,4.25,9.8,9.08l.7,1.86.38,2.31c-.78.46-5.87,5.65-15.26,15.57ZM212.31,82.19l-5.77,35.18-2.69,1.34h-1.64c-.34-.04-1.58-.29-3.86-1.91-.22-9.49-.45-25.69-.67-48.26,1.13-.92,2.22-1.93,3.16-3.04,2.12,5.55,5.93,11.13,11.46,16.68ZM111.76,123.1c-.58.57-1.13,1.17-1.65,1.78l-7.17-43.69c3.93-3.94,6.99-7.9,9.2-11.85l.81,31.77c-.22,9.33-.62,16.7-1.2,21.98Z"/>
    <path class="cls-2" d="M146.91,54.62l-3.52,1.95.78,63.67c7.88,5.47,12.43,8.2,13.67,8.2,5.66-3.38,8.79-5.08,9.38-5.08v-52.73c-5.86-5.66-12.24-10.61-19.14-14.84l-1.17-1.17ZM160.22,118.96c-.82.46-1.75.99-2.82,1.61-1.27-.75-3.25-2-6.27-4.05l-.62-50.73c3.39,2.42,6.63,5.05,9.71,7.87v45.3Z"/>
  </g>
</svg>
