<?xml version="1.0" encoding="utf-8"?>
<!-- Generator: Adobe Illustrator 25.2.0, SVG Export Plug-In . SVG Version: 6.00 Build 0)  -->
<svg version="1.1" xmlns="http://www.w3.org/2000/svg" xmlns:xlink="http://www.w3.org/1999/xlink" x="0px" y="0px"
	 viewBox="0 0 310 95" style="enable-background:new 0 0 310 95;" xml:space="preserve">
<style type="text/css">
	.st0{fill:none;}
	.st1{fill:#DDA500;}
	.st2{fill:#404040;}
</style>
<g id="Logo_BG">
	<rect class="st0" width="310" height="95"/>
</g>
<g id="Logo_HG">
	<g id="Gruppe_110" transform="translate(0 0)">
		<g id="Gruppe_169">
			<path id="Pfad_477" class="st1" d="M88.3,66.8L80,52.5c-0.4-0.7-1.2-1.1-2-1.2H59.2c-3.5,0-6.3,2.9-6.2,6.4
				c0,3.4,2.8,6.2,6.2,6.2l12.4-0.1l4.1,7.1c1.8,3.3,1,6-3.9,6H24c-3.5,0-4.6-3.5-2.9-6.1l23.2-40.3c2.3-4.1,5.8-4,8.3,0.2l4.5,8.2
				c2,3.4,5.4,4.7,9.2,2.5l0,0c3.1-1.8,4.1-5.5,2.1-9l-6.7-11.6c-7.4-12.8-19.5-12.8-26.8,0l-26.7,46C0.7,79.5,6.9,90,21.7,90h53.2
				C89.6,90,95.7,79.5,88.3,66.8"/>
			<path id="Pfad_478" class="st2" d="M127,39.9V33h-5.9v6.9h-3.8V23.1h3.8v6.5h5.9v-6.5h3.8v16.8H127z"/>
			<path id="Pfad_479" class="st2" d="M145.7,36.6l-0.1,3.3h-11.5V23.1h11.1l0.1,3.3h-7.4v3.3h6.2v3h-6.2v3.8L145.7,36.6z"/>
			<path id="Pfad_480" class="st2" d="M157.7,36.6h-6.1l-0.9,3.3h-4l5.8-16.8h4.5l5.9,16.8h-4.2L157.7,36.6z M154.2,27.7l-1.7,5.8
				h4.3l-1.6-5.8l-0.4-1.8h-0.1L154.2,27.7z"/>
			<path id="Pfad_481" class="st2" d="M177.5,23.1l-5.7,16.8h-4.2l-5.7-16.8h4.2l3.3,11.4l0.5,1.8h0.1l0.4-1.8l3.3-11.4H177.5z"/>
			<path id="Pfad_482" class="st2" d="M190.9,36.6l-0.1,3.3h-11.5V23.1h11.1l0.1,3.3h-7.4v3.3h6.2v3h-6.2v3.8L190.9,36.6z"/>
			<path id="Pfad_483" class="st2" d="M204.3,39.9l-6.5-9.2l-1-1.5l0,0l0,1.8v8.9h-3.4V23.1h3.2l6,8.7l1,1.5l0,0l0-1.8v-8.4h3.3
				v16.8H204.3z"/>
			<path id="Pfad_484" class="st2" d="M214.7,40.2c-1.8,0-3.6-0.4-5.2-1.3l0.5-3.3c1.4,0.8,3,1.2,4.7,1.2c1.8,0,2.7-0.7,2.7-1.8
				c0-2.7-7.8-1.5-7.8-7.2c0-2.9,1.8-5.2,6.1-5.2c1.6,0,3.2,0.3,4.7,0.9l-0.5,3.2c-1.3-0.4-2.7-0.7-4.1-0.7c-2.1,0-2.7,0.7-2.7,1.6
				c0,2.6,7.7,1.4,7.7,7.1C221,38.2,218.7,40.2,214.7,40.2"/>
			<path id="Pfad_485" class="st2" d="M241.8,39.3c-1.6,0.6-3.3,1-5.1,0.9c-5.8,0-8-2.9-8-8.7c0-5.9,2.4-8.7,8.1-8.7
				c1.6,0,3.2,0.3,4.6,0.8l-0.4,3.3c-1.3-0.5-2.7-0.7-4.1-0.7c-3.3,0-4.4,1.2-4.4,5.4c0,4.2,1,5.4,3.9,5.4c0.6,0,1.2-0.1,1.8-0.2
				v-5.7h3.3L241.8,39.3z"/>
			<path id="Pfad_486" class="st2" d="M254.3,36.6h-6.1l-0.9,3.3h-4l5.8-16.8h4.5l5.9,16.8h-4.2L254.3,36.6z M250.8,27.7l-1.7,5.8
				h4.3l-1.6-5.8l-0.4-1.8h-0.1L250.8,27.7z"/>
			<path id="Pfad_487" class="st2" d="M266.8,26.5v13.4H263V26.5h-4.5l0.1-3.4h12.7l0.1,3.4L266.8,26.5z"/>
			<path id="Pfad_488" class="st2" d="M284.8,36.6l-0.1,3.3h-11.5V23.1h11.1l0.1,3.3h-7.4v3.3h6.2v3h-6.2v3.8L284.8,36.6z"/>
			<path id="Pfad_489" class="st2" d="M127.2,64.5l-5.2-7.5h-2.4v7.5h-2.2V48.1h2.2V55h2.4l5-6.9h2.7l-5.6,7.7l6,8.6L127.2,64.5z"/>
			<path id="Pfad_490" class="st2" d="M142.6,62.4l-0.1,2.1h-9.8V48.1h2.2v14.2H142.6z"/>
			<path id="Pfad_491" class="st2" d="M155.7,62.4l-0.1,2h-10.4V48.1h10l0.1,2h-7.9V55h6.7v1.9h-6.7v5.5L155.7,62.4z"/>
			<path id="Pfad_492" class="st2" d="M164.3,50.2v14.2H162V50.2h-4.9l0.1-2.1h11.9l0,2.1H164.3z"/>
			<path id="Pfad_493" class="st2" d="M177.4,50.2v14.2h-2.3V50.2h-4.9l0.1-2.1h11.9l0,2.1H177.4z"/>
			<path id="Pfad_494" class="st2" d="M195.3,62.4l-0.1,2h-10.4V48.1h10l0.1,2h-7.9V55h6.7v1.9h-6.7v5.5L195.3,62.4z"/>
			<path id="Pfad_495" class="st2" d="M206.1,57.2l4.3,7.3h-2.7l-3.7-6.9h-3.3v6.9h-2.2V48.1h5.5c3.6,0,5.2,1.5,5.2,4.7
				C209.3,55.3,208.2,56.8,206.1,57.2 M204,50.1h-3.3v5.7h3.2c2.1,0,3-0.8,3-2.9C207,50.8,206.1,50.1,204,50.1"/>
			<path id="Pfad_496" class="st2" d="M223.7,64.5L216,53.2l-1-1.5l0,0l0,1.8v10.9h-2V48.1h2l8.3,12.3l0,0l0-1.7V48.1h2v16.3H223.7z
				"/>
			<path id="Pfad_497" class="st2" d="M248.2,64.6c-1.2-0.7-2.4-1.5-3.5-2.3c-1.3,1.5-3.2,2.4-5.1,2.4c-3.2,0-4.5-2.1-4.5-4.3
				c0-2.3,1.4-3.8,3.1-5.1c-0.8-1.1-1.3-2.4-1.4-3.7c0-2.1,1.1-3.7,4-3.7c2.4,0,3.8,1.2,3.8,2.9c0,2.1-2,3.4-3.9,4.8
				c1.1,1.4,2.4,2.8,3.8,4c0.7-1.1,1.1-2.3,1.4-3.5l1.8,0c-0.2,1.7-0.8,3.3-1.7,4.7c1,0.8,2,1.4,3,2L248.2,64.6z M243.4,61.1
				c-1.5-1.3-2.9-2.8-4.1-4.4c-1.1,0.8-1.9,2.1-2,3.5c-0.1,1.3,1,2.5,2.3,2.5c0.1,0,0.2,0,0.4,0C241.3,62.7,242.5,62.1,243.4,61.1
				 M239.7,54.2c1.5-1,2.8-2,2.9-3.2c0-0.9-0.7-1.5-1.8-1.5c-1.1-0.1-2,0.7-2.1,1.8c0,0.1,0,0.2,0,0.3
				C238.8,52.5,239.2,53.4,239.7,54.2"/>
			<path id="Pfad_498" class="st2" d="M123.6,89h-6.2V72.7h6c3.2,0,4.9,1.4,4.9,4.1c0.2,1.6-0.8,3.1-2.3,3.6v0c1.9,0.3,3.2,2.1,3,4
				C128.8,87.3,127.3,89,123.6,89 M123.2,74.7h-3.8v5h3.9c1.8,0,2.6-0.8,2.6-2.5C126,75.4,125.1,74.7,123.2,74.7 M123.5,81.4h-4v5.7
				h4.1c1.9,0,3-0.7,3-2.9C126.6,82.3,125.6,81.4,123.5,81.4"/>
			<path id="Pfad_499" class="st2" d="M138.3,89.3c-4.8,0-6.8-2.5-6.8-8.5c0-6,1.9-8.4,6.8-8.4c4.9,0,6.7,2.5,6.7,8.4
				C145,86.9,143.2,89.3,138.3,89.3 M138.3,74.5c-3.2,0-4.4,1.3-4.4,6.4c0,5,1.2,6.4,4.4,6.4c3.2,0,4.4-1.4,4.4-6.4
				C142.7,75.9,141.5,74.5,138.3,74.5"/>
			<path id="Pfad_500" class="st2" d="M160.7,83.1c0,4.3-2.2,6.2-6.2,6.2s-6.2-1.9-6.2-6.2V72.7h2.2v10.4c0,2.8,1.3,4.1,4,4.1
				c2.7,0,4-1.3,4-4.1V72.7h2.2L160.7,83.1z"/>
			<path id="Pfad_501" class="st2" d="M174.5,86.9l-0.1,2.1h-9.8V72.7h2.2v14.2H174.5z"/>
			<path id="Pfad_502" class="st2" d="M182.8,89h-5.6V72.7h5.6c5,0,7,2.4,7,8.1C189.8,86.7,187.5,89,182.8,89 M182.8,74.8h-3.4v12.2
				h3.4c3.2,0,4.7-1.2,4.7-6.2C187.5,76.1,186.1,74.8,182.8,74.8"/>
			<path id="Pfad_503" class="st2" d="M203.8,87l-0.1,2h-10.4V72.7h10l0.1,2h-7.9v4.8h6.7v1.9h-6.7V87H203.8z"/>
			<path id="Pfad_504" class="st2" d="M214.5,81.7l4.3,7.3h-2.7l-3.7-6.9h-3.3V89H207V72.7h5.5c3.6,0,5.2,1.5,5.2,4.7
				C217.7,79.9,216.6,81.4,214.5,81.7 M212.5,74.6h-3.3v5.7h3.2c2.1,0,3-0.8,3-2.9C215.4,75.4,214.6,74.6,212.5,74.6"/>
			<path id="Pfad_505" class="st2" d="M232.2,89l-7.7-11.2l-1-1.5l0,0l0,1.8V89h-2V72.7h2l8.3,12.3l0,0l0-1.7V72.7h2V89H232.2z"/>
		</g>
	</g>
</g>
</svg>
