<svg width="42" height="38" viewBox="0 0 42 38" fill="none" xmlns="http://www.w3.org/2000/svg">
<path d="M0 14C0 6.26801 6.26801 0 14 0H28C35.732 0 42 6.26801 42 14V24C42 31.732 35.732 38 28 38H14C6.26801 38 0 31.732 0 24V14Z" fill="#11141C"/>
<path d="M16 15.5H21M16 19H24M18.6837 25H25.2C26.8802 25 27.7202 25 28.362 24.673C28.9265 24.3854 29.3854 23.9265 29.673 23.362C30 22.7202 30 21.8802 30 20.2V14.8C30 13.1198 30 12.2798 29.673 11.638C29.3854 11.0735 28.9265 10.6146 28.362 10.327C27.7202 10 26.8802 10 25.2 10H16.8C15.1198 10 14.2798 10 13.638 10.327C13.0735 10.6146 12.6146 11.0735 12.327 11.638C12 12.2798 12 13.1198 12 14.8V27.3355C12 27.8684 12 28.1348 12.1092 28.2716C12.2042 28.3906 12.3483 28.4599 12.5005 28.4597C12.6756 28.4595 12.8837 28.2931 13.2998 27.9602L15.6852 26.0518C16.1725 25.662 16.4162 25.4671 16.6875 25.3285C16.9282 25.2055 17.1844 25.1156 17.4492 25.0613C17.7477 25 18.0597 25 18.6837 25Z" stroke="#5CE1E6" stroke-width="2" stroke-linecap="round" stroke-linejoin="round"/>
</svg>
